<svg width="34" height="34" viewBox="0 0 34 34" fill="none" xmlns="http://www.w3.org/2000/svg">
<path d="M7.82363 13.7948C7.21188 15.6783 6.78197 17.7425 4.73275 18.5647C4.26178 18.7532 3.84131 19.049 3.50483 19.4286C3.16835 19.8082 2.92515 20.2612 2.79461 20.7514C2.42905 22.1156 3.18747 23.5655 4.58049 23.9388L24.2854 29.2187C25.6784 29.5919 27.0602 28.7155 27.4257 27.3512C27.6919 26.3578 27.4747 25.2964 26.8405 24.4885C25.477 22.7518 26.1368 20.7492 26.5487 18.8121C27.0687 16.3791 26.6344 13.8393 25.3356 11.7172C24.0368 9.59514 21.9727 8.05289 19.5695 7.40895C17.1663 6.76501 14.6075 7.06857 12.4217 8.25693C10.2359 9.4453 8.58987 11.4277 7.82363 13.7948Z" stroke="#4DB3AE" stroke-linecap="round" stroke-linejoin="round"/>
<path d="M18.5396 27.6787C18.2479 28.7675 17.5356 29.6958 16.5595 30.2594C15.5833 30.823 14.4232 30.9757 13.3345 30.6839C12.2457 30.3922 11.3174 29.6799 10.7539 28.7038C10.1903 27.7276 10.0375 26.5675 10.3293 25.4788M18.2026 4.3055C17.899 5.43853 18.4347 7.11764 19.5677 7.42123C20.7007 7.72483 22.0042 6.53851 22.3078 5.40548C22.6114 4.27245 21.8007 3.61964 20.6677 3.31605C19.5347 3.01245 18.5062 3.17247 18.2026 4.3055Z" stroke="#4DB3AE" stroke-linecap="round" stroke-linejoin="round"/>
</svg>
