<svg width="28" height="28" viewBox="0 0 28 28" fill="none" xmlns="http://www.w3.org/2000/svg">
<path d="M16.332 25.667H11.6654C7.26586 25.667 5.06553 25.667 3.69936 24.2997C2.3332 22.9323 2.33203 20.7332 2.33203 16.3337V14.0003C2.33203 9.60083 2.33203 7.40049 3.69936 6.03433C5.0667 4.66816 7.26586 4.66699 11.6654 4.66699H16.332C20.7315 4.66699 22.9319 4.66699 24.298 6.03433C25.6642 7.40166 25.6654 9.60083 25.6654 14.0003V16.3337C25.6654 20.7332 25.6654 22.9335 24.298 24.2997C23.5362 25.0627 22.5154 25.3998 20.9987 25.548M8.16536 4.66699V2.91699M19.832 4.66699V2.91699M25.082 10.5003H12.5404M2.33203 10.5003H6.85286" stroke="#4DB3AE" stroke-width="2" stroke-linecap="round"/>
<path d="M21 19.8333C21 20.1428 20.8771 20.4395 20.6583 20.6583C20.4395 20.8771 20.1428 21 19.8333 21C19.5239 21 19.2272 20.8771 19.0084 20.6583C18.7896 20.4395 18.6667 20.1428 18.6667 19.8333C18.6667 19.5239 18.7896 19.2272 19.0084 19.0084C19.2272 18.7896 19.5239 18.6667 19.8333 18.6667C20.1428 18.6667 20.4395 18.7896 20.6583 19.0084C20.8771 19.2272 21 19.5239 21 19.8333ZM21 15.1667C21 15.4761 20.8771 15.7728 20.6583 15.9916C20.4395 16.2104 20.1428 16.3333 19.8333 16.3333C19.5239 16.3333 19.2272 16.2104 19.0084 15.9916C18.7896 15.7728 18.6667 15.4761 18.6667 15.1667C18.6667 14.8572 18.7896 14.5605 19.0084 14.3417C19.2272 14.1229 19.5239 14 19.8333 14C20.1428 14 20.4395 14.1229 20.6583 14.3417C20.8771 14.5605 21 14.8572 21 15.1667ZM15.1667 19.8333C15.1667 20.1428 15.0437 20.4395 14.825 20.6583C14.6062 20.8771 14.3094 21 14 21C13.6906 21 13.3938 20.8771 13.175 20.6583C12.9562 20.4395 12.8333 20.1428 12.8333 19.8333C12.8333 19.5239 12.9562 19.2272 13.175 19.0084C13.3938 18.7896 13.6906 18.6667 14 18.6667C14.3094 18.6667 14.6062 18.7896 14.825 19.0084C15.0437 19.2272 15.1667 19.5239 15.1667 19.8333ZM15.1667 15.1667C15.1667 15.4761 15.0437 15.7728 14.825 15.9916C14.6062 16.2104 14.3094 16.3333 14 16.3333C13.6906 16.3333 13.3938 16.2104 13.175 15.9916C12.9562 15.7728 12.8333 15.4761 12.8333 15.1667C12.8333 14.8572 12.9562 14.5605 13.175 14.3417C13.3938 14.1229 13.6906 14 14 14C14.3094 14 14.6062 14.1229 14.825 14.3417C15.0437 14.5605 15.1667 14.8572 15.1667 15.1667ZM9.33333 19.8333C9.33333 20.1428 9.21042 20.4395 8.99162 20.6583C8.77283 20.8771 8.47609 21 8.16667 21C7.85725 21 7.5605 20.8771 7.34171 20.6583C7.12292 20.4395 7 20.1428 7 19.8333C7 19.5239 7.12292 19.2272 7.34171 19.0084C7.5605 18.7896 7.85725 18.6667 8.16667 18.6667C8.47609 18.6667 8.77283 18.7896 8.99162 19.0084C9.21042 19.2272 9.33333 19.5239 9.33333 19.8333ZM9.33333 15.1667C9.33333 15.4761 9.21042 15.7728 8.99162 15.9916C8.77283 16.2104 8.47609 16.3333 8.16667 16.3333C7.85725 16.3333 7.5605 16.2104 7.34171 15.9916C7.12292 15.7728 7 15.4761 7 15.1667C7 14.8572 7.12292 14.5605 7.34171 14.3417C7.5605 14.1229 7.85725 14 8.16667 14C8.47609 14 8.77283 14.1229 8.99162 14.3417C9.21042 14.5605 9.33333 14.8572 9.33333 15.1667Z" fill="#4DB3AE"/>
</svg>
