<svg width="32" height="26" viewBox="0 0 32 26" fill="none" xmlns="http://www.w3.org/2000/svg">
<g clip-path="url(#clip0_1687_15243)">
<path d="M6.23297 25.2045H25.7618C27.0564 25.2045 28.298 24.6902 29.2134 23.7748C30.1289 22.8593 30.6432 21.6177 30.6432 20.3231V8.93264C30.6434 8.29147 30.5173 7.65654 30.2721 7.06412C30.0268 6.4717 29.6673 5.93339 29.214 5.47994C28.7607 5.02649 28.2225 4.66678 27.6302 4.42137C27.0378 4.17596 26.4029 4.04964 25.7618 4.04964H23.515C22.869 4.04964 22.2483 3.79156 21.7892 3.33398L19.9683 1.51156C19.7419 1.28467 19.4728 1.10468 19.1767 0.981876C18.8806 0.859073 18.5631 0.795875 18.2425 0.795898H13.7522C13.103 0.795898 12.4855 1.05398 12.0263 1.51156L10.2055 3.33398C9.74639 3.79314 9.12572 4.04964 8.47972 4.04964H6.23297C5.5918 4.04964 4.95691 4.17596 4.36457 4.42137C3.77223 4.66678 3.23403 5.02649 2.78073 5.47994C2.32743 5.93339 1.9679 6.4717 1.72268 7.06412C1.47746 7.65654 1.35135 8.29147 1.35156 8.93264V20.3231C1.35156 21.6177 1.86585 22.8593 2.78129 23.7748C3.69673 24.6902 4.93834 25.2045 6.23297 25.2045Z" stroke="#FFFAEE" stroke-opacity="0.8" stroke-width="2" stroke-linecap="round" stroke-linejoin="round"/>
<path d="M16.0013 20.3229C17.7276 20.3229 19.3832 19.6371 20.6039 18.4164C21.8246 17.1957 22.5104 15.5401 22.5104 13.8138C22.5104 12.0875 21.8246 10.4318 20.6039 9.21115C19.3832 7.99046 17.7276 7.30469 16.0013 7.30469C14.275 7.30469 12.6194 7.99046 11.3987 9.21115C10.178 10.4318 9.49219 12.0875 9.49219 13.8138C9.49219 15.5401 10.178 17.1957 11.3987 18.4164C12.6194 19.6371 14.275 20.3229 16.0013 20.3229Z" stroke="#FFFAEE" stroke-opacity="0.8" stroke-width="2" stroke-linecap="round" stroke-linejoin="round"/>
</g>
<defs>
<clipPath id="clip0_1687_15243">
<rect width="32" height="26" fill="white"/>
</clipPath>
</defs>
</svg>
