<svg width="32" height="32" viewBox="0 0 32 32" fill="none" xmlns="http://www.w3.org/2000/svg">
<path d="M16 4H6.66667C5.95942 4 5.28115 4.28095 4.78105 4.78105C4.28095 5.28115 4 5.95942 4 6.66667V25.3333C4 26.0406 4.28095 26.7189 4.78105 27.219C5.28115 27.719 5.95942 28 6.66667 28H25.3333C26.0406 28 26.7189 27.719 27.219 27.219C27.719 26.7189 28 26.0406 28 25.3333V16" stroke="#3A3B61" stroke-width="2" stroke-linecap="round" stroke-linejoin="round"/>
<path d="M24.4988 3.5003C25.0293 2.96987 25.7487 2.67188 26.4988 2.67188C27.249 2.67188 27.9684 2.96987 28.4988 3.5003C29.0293 4.03074 29.3273 4.75016 29.3273 5.5003C29.3273 6.25045 29.0293 6.96987 28.4988 7.5003L16.4815 19.519C16.1649 19.8353 15.7738 20.0669 15.3442 20.1923L11.5135 21.3123C11.3988 21.3458 11.2771 21.3478 11.1614 21.3181C11.0456 21.2885 10.9399 21.2282 10.8554 21.1437C10.7709 21.0592 10.7107 20.9535 10.681 20.8378C10.6514 20.722 10.6534 20.6004 10.6868 20.4856L11.8068 16.655C11.9329 16.2257 12.1649 15.835 12.4815 15.519L24.4988 3.5003Z" stroke="#3A3B61" stroke-width="2" stroke-linecap="round" stroke-linejoin="round"/>
</svg>
