<svg width="32" height="27" viewBox="0 0 32 27" fill="none" xmlns="http://www.w3.org/2000/svg">
<path d="M28 21.2381H27.6381C26.519 21.2381 25.4036 20.9119 24.5857 20.1464C23.6138 19.236 22.7864 18.1826 22.1321 17.0226L21.156 15.2857H20.5607L19.5821 17.0226C19.0129 18.0313 18.3123 18.9601 17.4988 19.7845C16.6465 19.5535 15.8627 19.1197 15.2143 18.5202C13.8595 17.2452 12.708 15.7702 11.8 14.1464L10.4405 11.7143H9.84762L8.48929 14.1464C7.4712 15.9669 6.148 17.5989 4.57738 18.9714C4.12034 19.3692 3.58203 19.6625 3 19.831M3 26V1H28V26H3ZM20.8571 10.5238C20.2257 10.5238 19.6201 10.273 19.1736 9.82644C18.727 9.37993 18.4762 8.77432 18.4762 8.14286C18.4762 7.51139 18.727 6.90578 19.1736 6.45927C19.6201 6.01275 20.2257 5.7619 20.8571 5.7619C21.4886 5.7619 22.0942 6.01275 22.5407 6.45927C22.9872 6.90578 23.2381 7.51139 23.2381 8.14286C23.2381 8.77432 22.9872 9.37993 22.5407 9.82644C22.0942 10.273 21.4886 10.5238 20.8571 10.5238Z" stroke="#FFFAEE" stroke-width="2"/>
</svg>
