<svg width="25" height="22" viewBox="0 0 25 22" fill="none" xmlns="http://www.w3.org/2000/svg">
<path d="M22.0839 12.5591L14.4491 20.2083C13.9429 20.7152 13.2564 21 12.5407 21C11.8249 21 11.1385 20.7152 10.6323 20.2083L2.99743 12.5604C2.3663 11.9337 1.86496 11.1883 1.52219 10.367C1.17942 9.54572 1.00196 8.66469 1.00002 7.7745C0.99807 6.88432 1.17167 6.00251 1.51085 5.17971C1.85003 4.35691 2.34811 3.60933 2.97649 2.97987C3.60487 2.35041 4.35118 1.85148 5.17258 1.51172C5.99397 1.17196 6.87427 0.998067 7.76294 1.00002C8.6516 1.00197 9.53113 1.17972 10.351 1.52308C11.1709 1.86644 11.9151 2.36864 12.5407 3.00085C13.8114 1.75959 15.5192 1.06983 17.2941 1.08097C19.069 1.09211 20.768 1.80326 22.0232 3.06037C23.2783 4.31747 23.9885 6.01931 23.9999 7.79722C24.0112 9.57513 23.3229 11.2859 22.0839 12.5591Z" fill="#3A3B61" stroke="#3A3B61" stroke-linecap="round" stroke-linejoin="round"/>
</svg>
