<svg width="24" height="24" viewBox="0 0 24 24" fill="none" xmlns="http://www.w3.org/2000/svg">
<path d="M6.40146 4.91744C7.89178 3.35534 9.89826 2.4854 11.9849 2.49667C14.0715 2.50795 16.0697 3.39952 17.5452 4.97764C19.0207 6.55576 19.8543 8.69292 19.8648 10.9247C19.8753 13.1565 19.062 15.3025 17.6015 16.8965L13.4155 21.3737C13.0404 21.7747 12.5318 22 12.0015 22C11.4711 22 10.9625 21.7747 10.5875 21.3737L6.40146 16.8965C4.91635 15.3079 4.08203 13.1535 4.08203 10.907C4.08203 8.6605 4.91635 6.50602 6.40146 4.91744Z" stroke="#3A3B61" stroke-linejoin="round"/>
<path d="M12 14.1157C13.6569 14.1157 15 12.6791 15 10.907C15 9.13488 13.6569 7.6983 12 7.6983C10.3431 7.6983 9 9.13488 9 10.907C9 12.6791 10.3431 14.1157 12 14.1157Z" stroke="#3A3B61" stroke-linecap="round" stroke-linejoin="round"/>
</svg>
