<svg width="34" height="34" viewBox="0 0 34 34" fill="none" xmlns="http://www.w3.org/2000/svg">
<path d="M7.30717 16.2789C7.20375 18.2566 7.32275 20.3618 5.55617 21.6864C5.15002 21.9903 4.82044 22.3848 4.59368 22.8386C4.36691 23.2924 4.24923 23.7928 4.25 24.3001C4.25 25.7125 5.35784 26.9167 6.8 26.9167H27.2C28.6422 26.9167 29.75 25.7125 29.75 24.3001C29.75 23.2716 29.2655 22.3026 28.4438 21.6864C26.6773 20.3618 26.7963 18.2566 26.6928 16.2789C26.5653 13.7942 25.4885 11.4533 23.6847 9.73974C21.881 8.02614 19.488 7.07068 17 7.07068C14.512 7.07068 12.119 8.02614 10.3153 9.73974C8.51148 11.4533 7.43466 13.7942 7.30717 16.2789Z" stroke="#3A3B61" stroke-linecap="round" stroke-linejoin="round"/>
<path d="M21.25 26.9167C21.25 28.0439 20.8022 29.1249 20.0052 29.9219C19.2082 30.7189 18.1272 31.1667 17 31.1667C15.8728 31.1667 14.7918 30.7189 13.9948 29.9219C13.1978 29.1249 12.75 28.0439 12.75 26.9167M14.875 4.42712C14.875 5.60012 15.827 7.08337 17 7.08337C18.173 7.08337 19.125 5.60012 19.125 4.42712C19.125 3.25412 18.173 2.83337 17 2.83337C15.827 2.83337 14.875 3.25412 14.875 4.42712Z" stroke="#3A3B61" stroke-linecap="round" stroke-linejoin="round"/>
</svg>
