<svg width="32" height="26" viewBox="0 0 32 26" fill="none" xmlns="http://www.w3.org/2000/svg">
<g clip-path="url(#clip0_827_3703)">
<path d="M6.23493 25.2043H25.7638C27.0584 25.2043 28.3 24.69 29.2154 23.7746C30.1309 22.8591 30.6452 21.6175 30.6452 20.3229V8.9324C30.6454 8.29123 30.5193 7.6563 30.2741 7.06388C30.0288 6.47146 29.6693 5.93315 29.216 5.4797C28.7627 5.02625 28.2245 4.66654 27.6322 4.42113C27.0398 4.17572 26.4049 4.0494 25.7638 4.0494H23.517C22.871 4.0494 22.2503 3.79132 21.7912 3.33374L19.9703 1.51132C19.7439 1.28443 19.4748 1.10444 19.1787 0.981632C18.8826 0.858829 18.5651 0.795631 18.2445 0.795654H13.7542C13.105 0.795654 12.4875 1.05374 12.0283 1.51132L10.2075 3.33374C9.74835 3.7929 9.12768 4.0494 8.48168 4.0494H6.23493C5.59376 4.0494 4.95887 4.17572 4.36653 4.42113C3.77419 4.66654 3.23599 5.02625 2.78269 5.4797C2.32939 5.93315 1.96986 6.47146 1.72464 7.06388C1.47942 7.6563 1.35331 8.29123 1.35352 8.9324V20.3229C1.35352 21.6175 1.86781 22.8591 2.78325 23.7746C3.69869 24.69 4.9403 25.2043 6.23493 25.2043Z" stroke="#FFFAEE" stroke-opacity="0.8" stroke-linecap="round" stroke-linejoin="round"/>
<path d="M15.9993 20.3229C17.7256 20.3229 19.3812 19.6371 20.6019 18.4164C21.8226 17.1957 22.5084 15.5401 22.5084 13.8138C22.5084 12.0875 21.8226 10.4318 20.6019 9.21115C19.3812 7.99046 17.7256 7.30469 15.9993 7.30469C14.273 7.30469 12.6174 7.99046 11.3967 9.21115C10.176 10.4318 9.49023 12.0875 9.49023 13.8138C9.49023 15.5401 10.176 17.1957 11.3967 18.4164C12.6174 19.6371 14.273 20.3229 15.9993 20.3229Z" stroke="#FFFAEE" stroke-opacity="0.8" stroke-linecap="round" stroke-linejoin="round"/>
</g>
<defs>
<clipPath id="clip0_827_3703">
<rect width="32" height="26" fill="white"/>
</clipPath>
</defs>
</svg>
