<svg width="34" height="34" viewBox="0 0 34 34" fill="none" xmlns="http://www.w3.org/2000/svg">
<path d="M7.45346 18.8122C7.86543 20.7492 8.52523 22.7518 7.16167 24.4885C6.84802 24.8872 6.63178 25.3536 6.53019 25.8506C6.4286 26.3476 6.44446 26.8615 6.5765 27.3513C6.94206 28.7156 8.3238 29.592 9.71683 29.2187L29.4217 23.9388C30.8147 23.5655 31.5732 22.1157 31.2076 20.7514C30.9414 19.7579 30.2226 18.9473 29.2695 18.5648C27.2202 17.7425 26.7903 15.6783 26.1786 13.7948C25.4123 11.4277 23.7663 9.44532 21.5805 8.25696C19.3947 7.0686 16.836 6.76504 14.4327 7.40898C12.0295 8.05292 9.96539 9.59517 8.66659 11.7172C7.36778 13.8393 6.93351 16.3791 7.45346 18.8122Z" stroke="#3A3B61" stroke-linecap="round" stroke-linejoin="round"/>
<path d="M23.6741 25.4788C23.9658 26.5675 23.8131 27.7276 23.2495 28.7037C22.6859 29.6799 21.7576 30.3922 20.6689 30.6839C19.5801 30.9757 18.42 30.8229 17.4439 30.2594C16.4677 29.6958 15.7554 28.7675 15.4637 27.6787M11.6956 5.40547C11.9991 6.5385 13.3026 7.72481 14.4356 7.42122C15.5687 7.11762 16.1043 5.43852 15.8007 4.30549C15.4971 3.17246 14.4687 3.01244 13.3357 3.31603C12.2026 3.61963 11.392 4.27244 11.6956 5.40547Z" stroke="#3A3B61" stroke-linecap="round" stroke-linejoin="round"/>
</svg>
