<?xml version="1.0" encoding="UTF-8"?>
<svg id="Layer_11" xmlns="http://www.w3.org/2000/svg" viewBox="0 0 1154 875.07">
  <defs>
    <style>
      .cls-1 {
        fill: none;
      }

      .cls-2 {
        fill: #cc8562;
      }

      .cls-2, .cls-3, .cls-4, .cls-5, .cls-6 {
        stroke-miterlimit: 10;
      }

      .cls-2, .cls-3, .cls-5, .cls-6 {
        stroke: #000;
      }

      .cls-7, .cls-6 {
        fill: #fffaee;
      }

      .cls-8, .cls-4 {
        fill: #ebe6db;
      }

      .cls-3, .cls-9 {
        fill: #e3ca93;
      }

      .cls-4 {
        stroke: #2e2f4c;
      }

      .cls-5, .cls-10 {
        fill: #b87858;
      }

      .cls-11 {
        fill: #9ebfe0;
      }

      .cls-12 {
        fill: #3a3b61;
      }

      .cls-13 {
        fill: #2e2f4c;
      }

      .cls-14 {
        fill: #e5c7ce;
      }

      .cls-15 {
        fill: #f9d8e0;
      }
    </style>
  </defs>
  <g>
    <path class="cls-4" d="M236.82,638.1c-4.97-4.42-6.75-52.64,19.93-83.29,26.22-30.12,66.84-48.8,86.18-31.67,19.34,17.13-28.74,91.74-90.64,119.93l-15.47-4.97Z"/>
    <path class="cls-7" d="M257.82,633.13c-8.77,1.59-14.37-4.97-12.16-19.34,2.21-14.37,19.9-58.03,69.08-77.92,49.19-19.9,9.4,34.84,2.21,44.5-7.18,9.66-46.98,50.56-59.13,52.77Z"/>
    <path class="cls-4" d="M207.91,633.36s3.52-56.35-12.48-89.92c-16.75-35.14-41.05-56.82-59.44-54.85s-21.71,35.15-16.75,58.79c4,19.03,20.36,70.73,51.56,95.69l37.11-9.71Z"/>
    <path class="cls-7" d="M193.13,630.47c9.85-4.93,5.91-35.23,1.31-50.62-4.6-15.39-27.33-77.01-56.49-83.04-21.95-4.54-6.47,64.05,3.94,83.04,11.17,20.36,35.13,58.67,51.23,50.62Z"/>
    <path class="cls-4" d="M279.87,835.4c0,26.33,6.7,90.43-82,90.43s-76.36-64.1-76.36-90.43,35.45-69.13,79.18-69.13,79.18,42.8,79.18,69.13Z"/>
    <path class="cls-7" d="M250.71,838.31c0,26.33,0,76.31-51.89,76.31-56.97,0-51.89-49.97-51.89-76.31s23.23-47.68,51.89-47.68,51.89,21.35,51.89,47.68Z"/>
    <path class="cls-4" d="M204.87,788.92c31.44,1.12,80.65-10.14,90.32-32.72,9.68-22.58-19.43-99.52-42.9-113.13s-64.52-19.12-93.63,6.33c-29.11,25.44-53.86,60.28-43.55,90.31,10.31,30.03,55.73,48,89.75,49.21Z"/>
    <path class="cls-7" d="M220.7,732.9s-3.2-18.98-3.2-30.06,8.33-54.09,22.48-53.4c15.72.76,38.12,51.68,45.07,78.42,6.95,26.73-8.41,59.17-76.81,53.77-68.4-5.41-88.09-32.78-78.05-75.67,10.04-42.89,50.61-61.93,65.2-58.5,9.53,2.24,7.45,43.41,5.3,53.84-2.15,10.43-5.3,31.61-5.3,31.61h25.31Z"/>
    <ellipse class="cls-11" cx="255.71" cy="715.87" rx="10.94" ry="14.57"/>
    <ellipse class="cls-7" cx="250.71" cy="711.04" rx="3.01" ry="2.05" transform="translate(-501.63 760.18) rotate(-74.31)"/>
    <ellipse class="cls-11" cx="169.46" cy="709.82" rx="10.94" ry="14.57"/>
    <ellipse class="cls-7" cx="256.47" cy="709.82" rx="2.86" ry="2.09" transform="translate(-487.21 838.51) rotate(-79.95)"/>
    <ellipse class="cls-7" cx="260.06" cy="723.49" rx="1.24" ry="1.82" transform="translate(-30.7 11.78) rotate(-2.45)"/>
    <ellipse class="cls-7" cx="165.89" cy="705.95" rx="1.74" ry="3.11"/>
    <ellipse class="cls-7" cx="170.82" cy="704.02" rx="1.37" ry="1.93"/>
    <circle class="cls-7" cx="163.62" cy="713.54" r="1.59"/>
    <path class="cls-7" d="M169.46,698.22c5.4.09,8.69,5.92,8.5,10.84-.32-.44-.41-1.21-.62-1.75-.61-1.69-1.28-3.34-2.31-4.82-1.34-1.91-3.23-3.45-5.57-4.17v-.1h0Z"/>
    <path class="cls-7" d="M256.99,703.59c6.49-.54,7.88,7.93,7.45,12.87,0,0-.18,0-.18,0-.18-1.37-.28-2.73-.54-4.07-.52-3.14-1.57-6.93-4.76-8.28-.61-.26-1.28-.39-1.95-.37l-.03-.15h0Z"/>
    <path class="cls-14" d="M220.7,732.9c0,2.79-5.67,7.94-12.66,7.94s-12.66-5.15-12.66-7.94,5.67-5.05,12.66-5.05,12.66,2.26,12.66,5.05Z"/>
    <ellipse class="cls-7" cx="205.72" cy="732.71" rx="5.19" ry="1.62"/>
    <ellipse class="cls-7" cx="216" cy="733.76" rx="1.5" ry=".57"/>
    <g>
      <path class="cls-14" d="M208.55,740.03c.08,2.33.05,4.7.05,7.02.19,1.66,1.86,2.68,3.32,3.28,3.9,1.65,8.41.17,10.85-3.23-2.16,3.82-7,5.59-11.14,4.04-1.79-.61-3.91-1.91-4.1-4.03-.08-2.37-.03-4.72.02-7.09,0,0,1,0,1,0h0Z"/>
      <path class="cls-14" d="M208.55,740.03c-.04,2.57.39,5.54-.16,8.02-1.85,3.54-6.81,4.34-10.31,3.16-2.05-.76-3.68-2.29-4.79-4.07,0,0,.11-.07.11-.07,1.23,1.66,2.95,2.98,4.87,3.57,3.04,1,9.53-.37,9.21-4.34-.03-2.09,0-4.18.07-6.27h1Z"/>
    </g>
    <ellipse class="cls-15" cx="268.96" cy="749.21" rx="20.34" ry="15.45"/>
    <ellipse class="cls-15" cx="141.86" cy="735.9" rx="20.34" ry="15.45"/>
    <path class="cls-11" d="M264.35,738.31c5.49-1.94,11.34-2.67,17.12-3.15,14.53-1.07,29.13.47,43.42,3.07,0,0,8.54,1.8,8.53,1.81,0,0-8.59-1.49-8.59-1.49-14.24-2.22-28.94-3.83-43.34-2.97-5.77.41-11.61.96-17.15,2.73h0Z"/>
    <path class="cls-11" d="M275.2,742.34c17.01,0,41.39,2.94,55.18,13.16,0,0-3.08-1.83-3.08-1.83-7.36-3.95-15.51-6.2-23.67-7.85-9.37-1.87-18.9-2.92-28.43-3.48h0Z"/>
    <path class="cls-11" d="M262.41,745.69c21.7-.08,44.19,6.44,60.93,20.58-1.64-1.07-3.45-2.31-5.08-3.41-1.09-.62-4.14-2.43-5.26-3.1-15.54-8.3-33.02-12.92-50.58-14.07h0Z"/>
    <path class="cls-11" d="M275.2,753.12c13.91,5.38,27.38,12.99,37.7,23.9-1.38-1.27-2.68-2.62-4.14-3.79-9.96-8.51-21.57-14.93-33.56-20.11h0Z"/>
    <path class="cls-11" d="M264.35,755.47c15.01,7.27,26.34,20.57,35,34.52,1.18,2.05,2.33,4.13,3.45,6.21-1.34-1.95-2.59-3.96-3.92-5.9-9.32-13.46-20.28-26.42-34.53-34.83h0Z"/>
    <path class="cls-11" d="M155.86,724.7c-18.57-9.76-39.35-14.61-60.08-17,2.49.03,5.27.37,7.85.6,18.16,2.16,36.38,7.11,52.24,16.4h0Z"/>
    <path class="cls-11" d="M158.52,730.44c-4.92-4.27-11.12-6.84-17.19-9.04-12.29-4.29-25.37-6.06-38.31-7.03-5.7-.36-13.89-.6-19.54-.77,0,0,0-.13,0-.13,3.26-.1,6.53-.16,9.79-.18,20.01.32,49.68,3.73,65.24,17.15h0Z"/>
    <path class="cls-11" d="M154.31,733.29c-12.69-4.81-26.33-6.56-39.81-7.26-10.11-.49-20.36.07-30.43,1.04-3.37.33-6.74.67-10.16.78,3.32-.77,6.67-1.44,10.04-1.9,16.9-1.9,34.15-1.77,50.89,1.39,3.25.61,6.75,1.43,9.94,2.35,3.27.94,6.52,1.99,9.63,3.4l-.09.19h0Z"/>
    <path class="cls-11" d="M145.6,735.91c-20.9-1.34-42.58.09-62.08,8.2,0,0-.08-.18-.08-.18,18.87-9.09,41.65-10.43,62.16-8.02h0Z"/>
    <path class="cls-11" d="M138.53,739.6c-8.43,2.9-20.22,6.81-28.47,9.8-4.7,1.73-9.36,3.55-13.93,5.59-4.48,2.15-9.13,4.28-12.65,7.88,9.01-11.05,40.77-20.44,55.05-23.28h0Z"/>
  </g>
  <g>
    <path class="cls-5" d="M520.68,245.29s21.24,30.21-9.18,48.98c-28.78,17.76-50.2,6.73-54.8-5.51-4.59-12.24,4.59-26.02,4.59-26.02l59.39-17.45Z"/>
    <path class="cls-8" d="M473.54,262.43l35.51-8.88s4.29,20.2-10.41,29.08-25.71-.61-27.55-6.73,2.45-13.47,2.45-13.47Z"/>
    <path class="cls-5" d="M348.91,216.29s-18.16,20.21-40.2,1.91c-22.04-18.3-16.69-61.96,20.19-54.58l20.01,52.67Z"/>
    <path class="cls-8" d="M338.59,200.35s-22.13,18.11-29.81-2.4c-8.99-24.04,9.73-26.86,16.07-27.58l13.74,29.98Z"/>
    <path class="cls-5" d="M534.04,88.94s49.21,55.55,26.38,109.1c-22.83,53.55-90,83.66-150.88,63.75-60.88-19.91-99.26-92.44-84.68-138.5,14.57-46.06,33.74-57.12,33.74-57.12,0,0-28.4-40.78-53.65-109.58h298.71s-12.94,71.7-69.61,132.35Z"/>
    <path class="cls-13" d="M393.49,176.22c1.29,1.39,5.86,2.03,5.02,4.07s-6.94.84-8.73-1.44-2.75-8.02-.6-7.54,2.75,3.23,4.31,4.9Z"/>
    <path class="cls-13" d="M477.71,218.21c-2.77,0-4.73-3.71-6.49-2.87s-.48,5.26,3.25,6.22,9.47-1.81,9.59-3.18-3.47-.17-6.34-.17Z"/>
    <ellipse class="cls-13" cx="491.66" cy="180.11" rx="10.08" ry="6.58" transform="translate(89.85 515.84) rotate(-60)"/>
    <ellipse class="cls-7" cx="493.72" cy="177.72" rx="1.4" ry="1.02" transform="translate(115.56 541.5) rotate(-63.69)"/>
    <ellipse class="cls-8" cx="463.88" cy="132.36" rx="35.3" ry="43.34" transform="translate(211.03 543.18) rotate(-74.31)"/>
    <ellipse class="cls-13" cx="407.93" cy="144.79" rx="8.83" ry="5.47" transform="translate(56.72 397.81) rotate(-55.31)"/>
    <ellipse class="cls-7" cx="409.54" cy="144.34" rx="1.4" ry="1.01" transform="translate(108.62 457.4) rotate(-65.55)"/>
    <path class="cls-13" d="M443.45,144.87c3.76-9.87,12.16-12.09,20.42-8.94,8.26,3.15,13.26,10.48,9.49,20.35s-11.06,7.05-19.32,3.9c-8.26-3.15-14.36-5.44-10.59-15.31Z"/>
    <ellipse class="cls-7" cx="458.48" cy="156.06" rx="4.3" ry="10.57" transform="translate(149.31 528.84) rotate(-69.13)"/>
    <path class="cls-13" d="M463.46,136.73c2.34-4.08,4.2-8.45,5.3-13.03,0,0,.23.03.23.03-.17,4.84-1.98,9.57-4.71,13.56,0,0-.83-.56-.83-.56h0Z"/>
    <path class="cls-13" d="M481.93,130.43c-.13.01-4.86.1-4.77.11.01-4.22-.68-9.55-4.89-11.61-3.89-1.68-8.6-1.77-12.56-.25,0,0-.41.12-.41.12l-3.35-.95v-.1s3.49.06,3.49.06l-.4.12c2.07-1.24,4.55-1.49,6.91-1.62,8.91-.19,12.87,5.21,12.17,13.76,0,0-.46-.54-.46-.54l4.27.76v.14h-.01Z"/>
    <circle class="cls-15" cx="403.47" cy="116.11" r="13.97"/>
    <circle class="cls-15" cx="520.07" cy="162.93" r="13.97"/>
    <path class="cls-8" d="M567.71-46.15s-38.48,96.69-65.57,107.34c-17.27,6.79-76.21-.49-94.2-24.77s-57.34-93.78-57.34-93.78l224.88,1.98-7.77,9.23Z"/>
  </g>
  <g>
    <path class="cls-3" d="M691.34,622.51s47.11-54.1,70.29-46c23.19,8.1,18.77,24.66,16.93,33.49-1.84,8.83-22.08,63.67-22.08,63.67l-65.14-51.16Z"/>
    <path class="cls-7" d="M709.46,634.73s8.99-10.1,12.94-17.07c6.63-11.69,28.03-28.37,34.52-26.82s12.98,25.59,6.49,39.77c-6.49,14.18-11.42,37.02-11.42,37.02l-42.53-32.89Z"/>
    <path class="cls-3" d="M603.34,632.11s-25.38-42.08-59.23-48.01c-33.84-5.93-26.97,30.5-24.33,45.07s20.62,58.33,23.8,63.42l59.76-60.48Z"/>
    <path class="cls-7" d="M585.96,641.69s-16.03-38.83-38.22-40.68-19.73,8.01-17.88,20.34c1.85,12.33,10.48,54.89,17.26,65.05,0,0,15.41-20.66,38.83-44.7Z"/>
    <path class="cls-3" d="M743.54,915.48s-12.31-61.45-25.49-86.97-39.83-46.1-60.26-47.75-60.65,16.47-71.83,57.63c-11.17,41.16-17.3,77.1-17.3,77.1h174.88Z"/>
    <path class="cls-3" d="M833.22,743.05s-64.09-16.43-68.34-42.91c-4.25-26.48-22.37-77.23-76.29-85.67s-91.72,11.12-119.93,39.16-30.36,63.91-72.5,70.83l161.16,33.33,175.91-14.74Z"/>
    <path class="cls-6" d="M664.66,739.22s13.43-43.62,24.67-54.4c11.24-10.78,30.73-20.41,46.56-1.83,15.83,18.58,18.58,42.2,49.54,53.44,30.96,11.24,47.79,6.63,47.79,6.63,0,0-56.48,25.33-80.31,34.57-17.17,6.66-66.67,20.07-95.12,20.07s-66.23-8.09-94.65-21.47c-27.96-13.16-66.99-51.76-66.99-51.76,0,0,38.62-5.3,59.94-21.24,21.32-15.94,29.53-32.24,49.92-30.12,20.38,2.13,39.22,68.35,42.32,69.15s16.33-3.03,16.33-3.03Z"/>
    <ellipse class="cls-15" cx="733.29" cy="754.05" rx="23.9" ry="11.79"/>
    <ellipse class="cls-15" cx="568.66" cy="746" rx="23.9" ry="11.79"/>
    <ellipse class="cls-13" cx="657.31" cy="745.3" rx="11.62" ry="7.85"/>
    <ellipse class="cls-7" cx="657.79" cy="743.05" rx="6.35" ry="3.83"/>
    <path class="cls-13" d="M669.54,758.29l1.83.55.35.1c-1.95,4.93-7.25,9.02-12.74,8.18-2.88-.59-3.53-4-3.63-6.47-.1-2.56.2-5.09.71-7.57,0,0,.37.04.37.04-.29,5.88-2.59,13.99-9.66,14.27-3.18.17-6.38-.71-9.03-2.5-2.55-2.07-3.99-5.04-4.69-8.22,0,0,0-.59,0-.59.24.02,2.47.21,2.77.24,0,0,.02.19.02.19l-2.24.6.45-.55c.16,1.41.73,2.89,1.41,4.22,1.88,4.32,6.82,6.14,11.27,5.99,6.8-.22,8.94-8.04,9.33-13.68,0,0,.37.04.37.05-.53,3.49-1.81,12.12,2.7,13.22,4.98.66,9.34-3.18,11.55-7.33,0,0,.2.65.2.65,0,0-1.39-1.32-1.39-1.32l.05-.09h0Z"/>
    <path class="cls-13" d="M686.22,735.11c-.07-1.13.77-1.64,1.37-2.4,1.85-2.04,3.97-3.81,6.45-5.08,3.26-1.82,7.34-2.12,10.89-1.23,5.34,1.08,10.3,3.12,15.25,5.26,1.63.72,3.28,1.42,4.72,2.56-1.79-.31-3.43-1.04-5.09-1.66-3.31-1.27-6.67-2.41-10.07-3.37-4.89-1.45-10.26-2.72-14.95-.07-2.67,1.36-5.12,3.27-7.26,5.39-.31.28-.73.66-1.3.62h0Z"/>
    <path class="cls-13" d="M727.9,726.69c-2.17,2.52-4.65,4.99-8.03,5.82,0,0-.15-.99-.15-.99,3.14-.43,5.92-2.66,8.18-4.83h0Z"/>
    <path class="cls-13" d="M727.24,720.8c-3.46,3.96-7.25,7.88-12.32,9.76,0,0-.27-.96-.27-.96,4.92-1.46,9.02-5.18,12.6-8.8h0Z"/>
    <path class="cls-13" d="M718.05,721.18c-2.7,3.32-6.1,6.58-10.61,7.08,0,0-.03-1-.03-1,4.25-.15,7.82-3.11,10.64-6.08h0Z"/>
    <path class="cls-13" d="M624.56,733.52c-.61-.34-.65-.75-.8-1.17-1-2.79-2.99-5.36-5.7-6.59-3.05-1.55-6.65-.65-10.08.2-4.99,1.34-10.38,3.55-15.24,5.43,0,0-2.54.98-2.54.98-.85.31-1.73.65-2.74.46,1.24-1.06,3.39-1.78,4.84-2.48,4.98-2.25,9.98-4.39,15.28-5.85,4.52-1.36,9.76-1.99,13.54,1.49,1.78,1.61,2.99,3.75,3.59,6.06.11.45.31.91-.15,1.46h0Z"/>
    <path class="cls-13" d="M581.02,724.9c4.56,1.3,9.25,2.42,13.34,4.93,0,0-.61.8-.61.8-3.79-2.68-8.39-4.15-12.74-5.73h0Z"/>
    <path class="cls-13" d="M586.77,718.73c1.18,4.14,2.11,8.96,5.12,12.16,0,0-.65.76-.65.76-2.98-3.54-3.56-8.55-4.47-12.92h0Z"/>
    <path class="cls-13" d="M591.61,719.39c2,3.31,4.77,6.57,8.58,7.69,0,0-.29.96-.29.96-3.91-1.45-6.58-5.01-8.4-8.6,0,0,.1-.05.1-.05h0Z"/>
    <path class="cls-13" d="M586.77,728.83c1.47.84,3,1.36,4.12,2.71,0,0-.91.41-.91.41-.72-1.2-2.13-2.19-3.21-3.12h0Z"/>
    <path class="cls-7" d="M590.44,915.48s13.39-53.32,25.35-75.04c11.97-21.72,28.16-38.56,42-38.56s46.37,28.81,51.61,60.72c5.23,31.91,3.34,52.88,3.34,52.88h-122.3Z"/>
  </g>
  <g>
    <path class="cls-2" d="M1126.12,566.66s7.02,18.48,23.65,18.01,16.63-23.45,16.63-23.45v114.88s-77.09-52.22-80.57-58.76,40.28-50.68,40.28-50.68Z"/>
    <path class="cls-2" d="M1079.55,474.87s8.28-43.74,17.03-55.9,23.25-39.87,25.14-39.11,18.72,22.69,21.17,43.48c2.46,20.8-12.1,43.48-36.86,69l-26.48-17.47Z"/>
    <path class="cls-7" d="M1099.05,484.3s6.47-31.84,10.19-56.13c3.72-24.29,10.34-48.21,12.55-46s23.95,30.18,19.7,52.99c-4.25,22.82-32.21,53.36-36.26,55.57s-6.18-6.43-6.18-6.43Z"/>
    <path class="cls-2" d="M979.03,541.86s-12.93-5.36-43.06-1.59c-30.14,3.77-47,12.22-46.01,15.04s26.38,35.71,52.17,36.33c25.79.61,39.08-24.19,39.08-24.19l-2.19-25.59Z"/>
    <path class="cls-7" d="M976.92,555.31s-9.47-4.37-30.86-3.58-50.85,9.09-52.95,7.75,11.92,11.98,16.13,14.78,17.88,19.7,39.98,15.11c22.09-4.59,29.81-20.37,29.81-20.37l-2.1-13.69Z"/>
    <path class="cls-7" d="M1115.47,580.4l-29.63,33.49s65.68,54.19,80.57,58.84v-62.56s-34.19-14.42-50.93-29.77Z"/>
    <path class="cls-2" d="M1090.47,616.14c12.53-8.84,25.8-25.67,29.86-31.23,8.6-11.79,25.66-33.06,15.85-52.95-4.22-8.55-9.68-8.1-12.03-15.27-5.64-17.18-22.05-35.67-37.45-43-15.39-7.33-46.55-4.03-55.34-1.47s-24.92-8.06-24.92-8.06c0,0,13.19,12.09,19.06,12.09s-21.62,1.47-27.86-1.47,9.9,5.49,20.29,5.25-19.39,3.46-24.24,2.54c-4.85-.92,12.7,3.23,15.47,2.54s-14.77,5.77-22.16,6.69,11.31,2.31,13.16,1.39-18.01,17.08-21.24,25.62-5.31,23.78-4.16,30.24,2.9,23.1,12.47,31.16c10.51,8.86,16.39,23.08,17.08,27.93.69,4.85,3.46,23.78,27.24,24.47,21.8.63,47.15-8.18,58.93-16.49Z"/>
    <path class="cls-7" d="M1069.19,584.67l10.8-6.89s-4.93-10.94-10.8-38.27c-5.87-27.34-2.6-47.02,6.7-53.04,9.3-6.01,20.51-4.1,33.36,11.21,12.85,15.31,9.84,22.69,17.77,26.79s14.49,20.5,6.83,36.36-26.48,40.17-42.93,53.25c-15.02,11.95-51.73,19.95-65.94,16.4s-17.84-13.67-18.9-20.23-4.82-17.25-10.06-23.41c-6.27-7.37-16.08-13.98-13.07-25.19,3.01-11.21,20.78-9.54,32.53-2.17,11.75,7.37,34.45,26.55,40.46,33.77l13.25-8.58Z"/>
    <path class="cls-13" d="M1084.06,579.17c3.94,5.93,1.28,14.64-7.86,20.71-9.14,6.07-17.88,4.95-21.83-.99-3.94-5.93-1.59-14.43,7.55-20.5,9.14-6.07,18.19-5.15,22.14.78Z"/>
    <path class="cls-7" d="M1075.81,576.25c-.83-1.17-5.46.69-10.34,4.16-4.88,3.46-8.17,7.21-7.35,8.38s2.3-1.27,7.18-4.73c4.88-3.46,11.33-6.64,10.51-7.81Z"/>
    <ellipse class="cls-11" cx="1098.52" cy="529.61" rx="9.36" ry="11.51" transform="translate(-116.48 424.64) rotate(-20.8)"/>
    <ellipse class="cls-11" cx="1019.08" cy="591.64" rx="8.22" ry="11.51" transform="translate(-119.87 893.88) rotate(-45)"/>
    <circle class="cls-7" cx="1094.98" cy="528.92" r="1.61"/>
    <circle class="cls-7" cx="1015.47" cy="591.64" r="1.61"/>
    <path class="cls-11" d="M1103.59,514.65c.14,2.85.31,5.78-.96,8.47,0,0-2.21-1.59-2.21-1.59,1.72-1.8,2.46-4.5,3.17-6.88h0Z"/>
    <path class="cls-11" d="M1098.83,512.47c1.15,2.95,2.29,6.51.58,9.54,0,0-1.77-1.38-1.77-1.38,1.89-2.12,1.46-5.51,1.19-8.16h0Z"/>
    <path class="cls-11" d="M1094.15,512.45c1.63,2.68,3.58,5.39,3.39,8.75,0,0-2.41-.62-2.41-.62.76-2.54-.34-5.56-1.06-8.09,0,0,.09-.05.09-.05h0Z"/>
    <path class="cls-11" d="M1002.62,582.5c1.42,2.88,5.01,3.43,7.89,3.16,0,0,1.27-.16,1.27-.16l.08,2.65c-3.62-.31-8.29-1.67-9.25-5.65h0Z"/>
    <path class="cls-11" d="M1001.64,588.29c3.39,1.28,7.37,1.92,10.81.79,0,0,.48,1.92.48,1.92-4.03.63-7.94-.63-11.36-2.56,0,0,.07-.14.07-.14h0Z"/>
    <path class="cls-11" d="M1004.46,594.79c1.83-1.85,4.27-3.04,6.77-3.81,0,0,.34,2.58.34,2.58-2.38-.09-4.86.23-7.04,1.31,0,0-.07-.08-.07-.08h0Z"/>
    <ellipse class="cls-15" cx="1119.46" cy="544.39" rx="15.42" ry="10.87" transform="translate(43.89 1171.05) rotate(-56.16)"/>
    <ellipse class="cls-15" cx="1024.52" cy="615.18" rx="12.18" ry="10.87" transform="translate(-170.13 645.01) rotate(-32.41)"/>
    <path class="cls-13" d="M1051.13,602.19s.25,3.69.25,3.69c0,0-.18-.27-.18-.27,10.76,3.96,19.83,4.3,29.7-2.12,3.73-2.4,7.51-5.25,9.48-9.31,3-5.16,2.59-11.27,1.35-16.93-.02-.04.16.19.16.18,0,0-2.77-1.53-2.77-1.53l3,1.01s.12.04.12.04c.71,2.6,1.28,5.26,1.42,8,.29,4.06-1.09,8.1-3.17,11.55-3.94,5.46-9.93,9.15-16.16,11.46-7.61,2.91-16.05,1.12-23.36-1.82,0,0-.19-.09-.19-.09v-.18s.26-3.69.26-3.69h.09Z"/>
    <path class="cls-13" d="M1074.1,505.4c.75.37.73-2.11,2.62-4.4,2.18-2.65,7.21-6.18,13.23-6.13,3.17.02-.54-2.24-6.99-.84-3.17.69-6.55,3.01-8.01,5.46-1.09,1.84-2.33,5.16-.84,5.91Z"/>
    <path class="cls-13" d="M994.5,557.63c2.55-.87,7.9-.5,10,0s1.19-1.41-1.33-2.02-10.08-.6-13.41,2.82-3.53,6.05-2.02,4.94,1.71-4.03,6.75-5.75Z"/>
    <ellipse class="cls-7" cx="1029.12" cy="495.23" rx="4.25" ry="7.63" transform="translate(-90.06 722.8) rotate(-37.19)"/>
    <ellipse class="cls-7" cx="1011.55" cy="506.44" rx="2.48" ry="5.93" transform="translate(-100.4 714.46) rotate(-37.19)"/>
    <ellipse class="cls-7" cx="1030.9" cy="511.03" rx="3.88" ry="6.03" transform="translate(-99.24 727.09) rotate(-37.19)"/>
    <ellipse class="cls-7" cx="1037.28" cy="527.39" rx=".92" ry="4.43" transform="translate(-107.83 734.28) rotate(-37.19)"/>
    <circle class="cls-7" cx="1003.8" cy="514.24" r="1.53"/>
    <path class="cls-10" d="M1047.83,482.71s5.1,3.57,6.12,0-3.06-21.69,0-25.26,13.01-24.24,14.55-29.86,9.44-19.65,8.68-27.31c0,0,13.52-8.17,19.27-18.12,5.74-9.95,15.95-27.82,11.87-33.69s-12.25-3.57-14.55,9.7c-2.3,13.27-11.82,32.66-15.22,33.94s-6.47-5.1-5.19-8.93,4.59-26.03-6.12-45.93c-10.72-19.9-21.44-30.11-25.52-29.6s-6.63,9.19,0,15.57c6.63,6.38,20.42,32.15,22.97,38.28s2.81,18.63,0,15.82-15.82-12.25-17.1-15.31-13.53-27.05-19.9-27.56,8.68,11.74,7.15,13.01-21.18-10.21-24.5-11.23-6.89-.51-4.08,2.3c2.81,2.81,38.02,27.05,45.93,32.41,7.91,5.36,15.31,16.37,16.33,25.03,1.02,8.66-11.99,48.98-14.55,48.98s-3.83-19.14-3.06-23.22,2.81-23.22,0-30.62-8.17-11.99-8.42-4.08,2.04,15.06-1.53,13.27-9.44-10.21-10.46-7.66,11.99,15.57,13.01,19.65c1.02,4.08-.77,9.7.51,12.5s4.08,18.88,3.57,26.54-3.83,21.69-2.3,23.22.54,6.1,2.55,8.17Z"/>
    <path class="cls-10" d="M990.38,525.69c1.15-1.55,3.92-4.46-2.11-4.8-6.04-.33-20.53.65-27.77-2.41s-17.81-6.23-22.94-18.98-19.62-33.88-19.02-27.24c.6,6.64,14.49,26.87,12.38,29.89s-12.68-10.87-17.81-12.98-6.64.66-4.53,4.41c2.11,3.74,20.23,19.51,31.7,22.19,11.47,2.68,19.92,9.63,14.49,9.93s-30.49,2.03-40.75,1.62-27.47-1.1-25.66-10.42c1.81-9.32,4.57-27.43-.13-28.03s-5.91,11.11-5,16.57.3,10.6-1.51,7.28-7.25-7.49-6.64-19.14c.6-11.65-.3-18.9-6.64-19.8-6.34-.91-8.75,4.16-5.74,10.53s12.38,29.41,18.11,32.38c5.74,2.97,9.66,7.5,6.94,8.4s-14.49-5.4-16.6-10.85-22.04-40.47-30.49-41.98c-8.45-1.51-9.06,4.83-6.34,9.96,2.72,5.13,20.53,30.49,30.19,35.92,9.66,5.43,27.77,13.58,37.73,13.28,9.96-.3,16,1.21,12.38,2.72-3.62,1.51-39.55,4.23-47.39,3.02s-23.55-3.32-18.41,2.11,27.17,15.09,36.53,11.77c9.36-3.32,5.13-4.53,13.89-6.94s12.38-8.75,21.74-10.26c9.36-1.51,38.64-7.78,45.58-6.45,6.94,1.32,18.72,5.25,23.85-1.7Z"/>
  </g>
  <g>
    <path class="cls-4" d="M-7.93,456.68s44.51-46.07,58.64-62.73c17.73-20.9,40.09-49.89,55.76-58.25,15.66-8.36,41.34,9.39,67.29,2.26,25.94-7.13,37.65-21.88,37.65-21.88,0,0,25.04,18.22,40.39,0,15.35-18.22-2.02-29.42-11.31-30.69,0,0,10.4-29.52,5.25-57.65-6.79-37.13-31.49-84.28-66.93-101.33-31.84-15.32-56.92-11.55-56.92-11.55,0,0,3.09-21.66-12.91-23.02-16.69-1.41-23.51,8.67-23.44,19.98.04,7.13,4.7,11.99,8.37,13.04,0,0-19.1,6.81-39.68,25.63-15.4,14.08-14.56,43.85-18.59,50.16-4.03,6.31-26.61,24.91-43.57,27.08v228.95Z"/>
    <path class="cls-7" d="M76.1,272.33c12.57,15.99,52.88,62.29,77.78,65.33,24.9,3.05,54.59-18.02,53.25-31.03-1.26-12.23-13.13-41.15-41.71-39.88-28.58,1.28-2.16-17.6-18.97-38.61-16.81-21.01-33.77-13.32-38-22.13s12.77-22.14-3.33-48.19c-16.1-26.05-48.08-12.09-54.42,5.58s-8.92,65.26,25.4,108.91Z"/>
    <ellipse class="cls-13" cx="185.4" cy="263.05" rx="13.78" ry="9.26" transform="translate(-134.21 225.38) rotate(-48.1)"/>
    <circle class="cls-7" cx="187.69" cy="258.05" r="2.29"/>
    <ellipse class="cls-13" cx="120.74" cy="171.92" rx="13.78" ry="9.26" transform="translate(-87.86 146.98) rotate(-48.1)"/>
    <circle class="cls-7" cx="183.26" cy="263.05" r="1"/>
    <circle class="cls-7" cx="124.75" cy="167.63" r="1.72"/>
    <path class="cls-13" d="M117.56,236.23s4.86.68,5.47-2.52-1.12-6.72-2.73-6.08-3.05,2.08-3.05,2.08c0,0-4.71-11.04.88-14.49,5.59-3.46,18.8,4.25,22.46,9.3,3.66,5.05,9.18,16.09,8.95,23.96s-5.42,10.45-7.71,9.05-6.05-3.38-6.05-3.38c0,0,1.03.37.96-1.62s-2.35-4.19-5.37-3.46-1.99,1.77-1.99,1.77c0,0-5.96-3.31-7.87-6.62s-3.95-7.97-3.95-7.97Z"/>
    <circle class="cls-7" cx="121.89" cy="173.93" r="1.14"/>
    <path class="cls-7" d="M130.22,223.69c-3.58-2.5-13.52-3.88-9.48-5.83s14.37,2.79,17.44,7.25c3.07,4.46,3.35,8.37,0,5.58s-5.03-4.96-7.96-7Z"/>
    <circle class="cls-7" cx="141.83" cy="236.23" r="1.24"/>
    <circle class="cls-13" cx="119.55" cy="252.29" r=".57"/>
    <circle class="cls-13" cx="124.76" cy="254.75" r=".57"/>
    <circle class="cls-13" cx="120" cy="257.2" r=".45"/>
    <circle class="cls-13" cx="129.66" cy="258.18" r=".53"/>
    <circle class="cls-13" cx="125.71" cy="259.78" r=".38"/>
    <ellipse class="cls-13" cx="121.49" cy="262.81" rx=".05" ry=".66"/>
    <circle class="cls-13" cx="132.63" cy="263.29" r=".47"/>
    <circle class="cls-13" cx="130.05" cy="265.57" r=".39"/>
    <circle class="cls-13" cx="123.13" cy="270.38" r=".55"/>
    <circle class="cls-13" cx="132.63" cy="269.07" r=".47"/>
    <circle class="cls-13" cx="136.85" cy="268.55" r=".52"/>
    <circle class="cls-13" cx="142.8" cy="266.16" r=".59"/>
    <circle class="cls-13" cx="100.23" cy="250.32" r=".4"/>
    <circle class="cls-13" cx="92.83" cy="250.32" r=".4"/>
    <circle class="cls-13" cx="101.96" cy="259.92" r=".52"/>
    <ellipse class="cls-13" cx="106.94" cy="264.52" rx=".47" ry=".76"/>
    <circle class="cls-13" cx="108.98" cy="244.18" r=".52"/>
    <circle class="cls-13" cx="115.59" cy="241.03" r=".59"/>
    <circle class="cls-13" cx="112.04" cy="239.94" r=".73"/>
    <circle class="cls-13" cx="107.93" cy="236.64" r=".52"/>
    <circle class="cls-13" cx="104.07" cy="240.48" r=".55"/>
    <circle class="cls-13" cx="105.13" cy="232.51" r=".51"/>
    <ellipse class="cls-13" cx="112.4" cy="231.81" rx=".37" ry=".19"/>
    <ellipse class="cls-13" cx="112.14" cy="226.03" rx=".11" ry=".38"/>
    <circle class="cls-13" cx="106.05" cy="228.15" r=".41"/>
    <circle class="cls-13" cx="99.54" cy="229.63" r=".28"/>
    <circle class="cls-13" cx="101.04" cy="235.39" r=".4"/>
    <circle class="cls-13" cx="97.67" cy="238.19" r=".31"/>
    <circle class="cls-13" cx="94.27" cy="228.15" r=".41"/>
    <circle class="cls-13" cx="101.5" cy="224.02" r=".46"/>
    <circle class="cls-13" cx="106.8" cy="223.23" r=".33"/>
    <path class="cls-13" d="M121.73,244.77c-3.62,1.5-7.36,3.4-10.05,6.28,0,0,.11-.21.11-.21-1.67,6.25,1.22,12.44,4.19,17.82,1.54,2.58,3.48,5.36,6.37,6.4,2.93.98,6.15,1.3,9.16.83,0,0,.56-.1.56-.1.03.38.17,2.77.2,3.19,0,0-.23.05-.23.05l-.92-2.55s.62.39.58.39c-3.28.5-6.57.14-9.66-.9-3.18-1.22-5.12-4.13-6.74-6.92-3.05-5.69-5.78-11.96-4.47-18.55,2.85-3.19,6.6-5.17,10.46-6.85,0,0,.44,1.13.44,1.13h0Z"/>
    <path class="cls-13" d="M111.34,251.11c-3.4.07-6.62-1.19-9.31-3.16-2.7-1.87-5.26-3.98-7.43-6.51-4.54-4.92-6.2-12.84-2.59-18.81.02-.04-.07.38-.06.37,0,0-.43-3.84-.43-3.84,0,0,.2-.04.2-.04l1.21,3.67.05.16c-3.09,5.67-1.68,13.01,2.4,17.86,1.99,2.52,4.38,4.75,7,6.64,2.52,1.98,5.69,3.23,8.89,2.89,0,0,.07.76.07.76h0Z"/>
    <path class="cls-13" d="M149.75,262.79c4.8,3.88,9.37,8.11,13.08,13.05-3.87-4.79-8.58-8.84-13.48-12.53,0,0,.4-.53.4-.53h0Z"/>
    <path class="cls-13" d="M156.42,276.97c9.58,10.39,18.82,21.09,27.61,32.16,8.6,11.13,17.49,22.4,23.11,35.39,0,0-.02,0-.02,0-2.73-6.53-6.61-12.48-10.61-18.28-8.07-11.59-17.1-22.48-26.36-33.13-4.65-5.31-9.37-10.57-14.2-15.7l.47-.44h0Z"/>
    <path class="cls-13" d="M154.16,278.78c15.49,19.25,30.54,38.91,43.76,59.8,4.35,6.98,8.55,14.13,11.52,21.82-6.3-15.24-16.15-28.7-25.6-42.12-9.66-13.33-19.78-26.34-30.23-39.05l.55-.45h0Z"/>
    <path class="cls-13" d="M149.92,272.12c8.41,15.06,16.42,30.34,23.93,45.87,7.31,15.57,14.88,31.26,18.95,48.04-1.97-8.4-5.16-16.45-8.51-24.38-6.75-15.86-14.55-31.25-22.64-46.47-4.06-7.6-8.2-15.16-12.48-22.64,0,0,.74-.42.74-.42h0Z"/>
    <path class="cls-13" d="M146.67,275.79c4.89,19.96,9.54,39.98,13.32,60.18,1.21,6.74,2.38,13.5,2.84,20.34-1.16-13.65-4.28-27.05-7.1-40.44-2.96-13.37-6.13-26.7-9.48-39.97l.42-.1h0Z"/>
    <path class="cls-13" d="M154.97,301.42c6.33,16.79,12.42,33.69,17.45,50.92,1.58,5.76,3.22,11.55,3.74,17.52-1.42-11.89-5.7-23.23-9.36-34.56-3.89-11.31-8.02-22.54-12.35-33.68l.52-.2h0Z"/>
    <path class="cls-13" d="M142.54,273.48c4.97,13.55,9.73,27.17,14.19,40.9,3.79,12.03,7.78,24.09,10.04,36.52.38,1.77.45,3.6.63,5.4,0,0-.42,0-.42,0-.18-1.78-.25-3.57-.64-5.34-3.86-19.45-10.76-38.16-17.12-56.89-2.39-6.8-4.84-13.59-7.35-20.34l.67-.25h0Z"/>
    <path class="cls-13" d="M137.74,273.51c6.36,27.81,11.66,62.14,5.65,90.21,4.56-22.36,1.97-45.5-1.72-67.79-1.31-7.46-2.81-14.9-4.66-22.23,0,0,.73-.19.73-.19h0Z"/>
    <path class="cls-13" d="M143.89,285.35c.6,13.22,1.34,26.58-.5,39.72,1.51-13.16.43-26.48-.5-39.65,0,0,1-.08,1-.08h0Z"/>
    <path class="cls-13" d="M155.03,286.89c7.92,9.31,15.23,19.12,21.85,29.4,6.52,10.29,12.48,21.11,15.93,32.85,0,0-.02,0-.02,0-5.51-17.5-15.96-32.95-26.88-47.51-3.7-4.84-7.52-9.6-11.54-14.16l.66-.58h0Z"/>
    <path class="cls-13" d="M106.16,217.89c-19.7-11.84-51.53-29.57-74.4-30.56,3.39.01,6.76.48,10.08,1.14,16.6,3.54,32.11,10.88,47.16,18.55,6.01,3.13,11.94,6.4,17.77,9.9l-.6.97h0Z"/>
    <path class="cls-13" d="M97.26,206.18c-13.34-8.43-26.85-16.59-40.57-24.4-13.75-7.69-27.57-15.49-42.34-21.08,14.8,5.53,28.65,13.27,42.44,20.91,6.88,3.88,13.7,7.84,20.48,11.89,6.78,4.05,13.52,8.15,20.2,12.36,0,0-.21.32-.21.32h0Z"/>
    <path class="cls-13" d="M103.42,206.28c-12.72-30.43-32.35-64.14-59.88-83.21,3.61,2.4,7.06,5.03,10.37,7.84,16.39,14.3,28.94,32.47,39.43,51.4,4.17,7.62,8.04,15.4,11.39,23.45,0,0-1.31.51-1.31.51h0Z"/>
    <path class="cls-1" d="M22.8,134.85s63.88,51.06,79.16,72.97c0,0-60.21-39.94-79.16-47.11"/>
    <path class="cls-13" d="M28.43,128.44c26.11,21.03,54.25,47.88,69.8,77.84,2.24,4.49,4.21,9.14,5.67,13.96,0,0-.76.22-.76.22-1.42-4.78-3.33-9.4-5.53-13.88-6.68-13.45-15.85-25.51-25.69-36.8-13.24-15.02-27.88-28.82-43.49-41.35h0Z"/>
    <path class="cls-13" d="M50.71,206.02c14.73,2.79,39.58,7.83,50.99,17.32,0,0-.4.43-.4.43-11.24-9.52-35.95-14.82-50.59-17.76h0Z"/>
    <path class="cls-15" d="M109.69,121.63s9.39-10.85,4.21-17.65c-5.18-6.8-13.93-2.27-14.57,2.43s2.64,18.46,2.64,18.46l7.73-3.24Z"/>
    <path class="cls-15" d="M225.46,294.93c4.81-1.4,20.03,0,22.84,3.81,2.8,3.81,1.29,13.25-4.81,14.82-5.41,1.39-17.63.2-21.44-6.41-3.81-6.61,3.41-12.22,3.41-12.22Z"/>
    <path class="cls-7" d="M-7.93,269.55s18.87-15.73,51.47-15.36c32.6.37,41.1,36.01,32.56,51.04-8.53,15.03-73.13,120.01-84.04,125.72v-161.4Z"/>
  </g>
  <g>
    <path class="cls-7" d="M742.19-30.82s32.53,153.9,40.3,159.1,215.1-67.77,215.1-67.77l-7.55-108.12-247.85,16.79Z"/>
    <path class="cls-4" d="M844.72,298.34c1.71.5,5.99-4.67,8.54-8.79s6.05-6.49,16.94-7.99c10.88-1.5,49.66-11.12,80.01-21.37,49.36-16.67,70.09-38.72,80.3-38.18,10.21.54,36.55,3.23,33.33-2.69-3.23-5.91-10.21-18.44-18.28-22.66-8.06-4.22-16.66-8.12-16.13-17.73.54-9.61,15.59-94.03-19.35-112.56s-105.89-5.09-145.67,9.96c-39.78,15.05-91.05,49.07-94.07,82.12-2.59,28.36,11.83,71.07,49.45,87.2,37.63,16.13,10.24,28.55,10.24,28.55,0,0,17.14-2.75,17.16,3.16s-9.81,18.81-2.48,20.96Z"/>
    <path class="cls-7" d="M924.01,196.51c18.53-6.19,34.7.47,48.81,2.62,15.83,2.41,47.6-6.7,52.07-27.78,3.38-15.95,6.09-89.98-29.77-102.72-35.85-12.74-183.66,31.21-208.5,69.55-24.85,38.34,9.63,89.22,38.81,96.52,19.69,4.93,51.6,8.09,68.85-11.03,13.29-14.73,12.98-21.57,29.72-27.16Z"/>
    <circle class="cls-12" cx="960.77" cy="137.05" r="26.15"/>
    <circle class="cls-12" cx="856.19" cy="172.98" r="26.15"/>
    <ellipse class="cls-13" cx="959.54" cy="140.41" rx="13.33" ry="12.13"/>
    <ellipse class="cls-13" cx="857.46" cy="171.35" rx="12.74" ry="12.88"/>
    <circle class="cls-7" cx="972.88" cy="145.5" r="3.84"/>
    <circle class="cls-7" cx="971.15" cy="134.92" r="1.19"/>
    <ellipse class="cls-7" cx="974.69" cy="138.18" rx="1.87" ry="1.81"/>
    <circle class="cls-7" cx="977.01" cy="140.12" r=".84"/>
    <ellipse class="cls-7" cx="849.35" cy="186.83" rx="3.92" ry="3.49"/>
    <circle class="cls-7" cx="847.2" cy="177.17" r="1.77"/>
    <circle class="cls-7" cx="857.68" cy="182.74" r="1.49"/>
    <circle class="cls-7" cx="850.81" cy="182.39" r="3.02"/>
    <path class="cls-12" d="M981.92,150.09c3.84-1.89,8.55-1.27,11.87,1.33.47.35.89.76,1.34,1.13-.47-.34-.92-.72-1.41-1.03-3.28-2.23-7.84-2.57-11.29-.57,0,0-.51-.86-.51-.86h0Z"/>
    <path class="cls-12" d="M982.03,147.93c6.97-1.59,16.15-2.23,20.98,4.09,0,0-.1.07-.1.07-4.94-5.98-13.88-5.01-20.6-3.2,0,0-.28-.96-.28-.96h0Z"/>
    <path class="cls-12" d="M980.15,150.59c5.25-4.62,12.7-6.18,19.42-4.58,0,0-.01.06-.01.06-6.58-1.27-13.84.55-18.7,5.23,0,0-.71-.7-.71-.7h0Z"/>
    <path class="cls-12" d="M847.83,195.3c-7.56.54-15.27,5.19-16.66,13.11.37-1.89.82-3.82,1.87-5.49,1.92-3.46,5.31-5.9,8.95-7.35,1.85-.73,3.73-1.26,5.75-1.53,0,0,.09,1.26.09,1.26h0Z"/>
    <path class="cls-12" d="M839.35,189.57c-.05,2.64-.21,5.26-.51,7.87-.4,2.55-.57,5.38-2.17,7.52,0,0-.06-.06-.06-.06.74-1.06.96-2.38,1.17-3.65.49-3.85.38-7.79.15-11.65,0,0,1.42-.04,1.42-.04h0Z"/>
    <path class="cls-12" d="M849.01,197.39c-7.24.51-18.23,1.72-22.53,8.3-.6,1.02-.95,2.18-1.03,3.38-.04-1.15.32-2.41.86-3.47,3.11-5.38,9.79-7.16,15.45-8.54,2.37-.51,4.74-.89,7.18-1.12,0,0,.08,1.45.08,1.45h0Z"/>
    <path class="cls-9" d="M887.06,149.87s7.52-21.89,7.29-25.65c0,0,20.45,12.27,22.09,15.3,0,0-1.14,17-10.54,19.82-9.4,2.82-18.83-9.48-18.83-9.48Z"/>
    <path class="cls-12" d="M887.06,149.63c2.02-6.36,3.99-12.74,5.63-19.21.49-2.11,1.1-4.24,1.16-6.41,0,0,.03-.88.03-.88,0,0,.73.42.73.42,7.06,4.59,14.35,8.95,20.73,14.46,0,0,.6.59.6.59l.51.68c-1.41-1.71-3.38-2.96-5.19-4.25-5.56-3.79-11.36-7.23-17.17-10.62,0,0,.76-.46.76-.46-.11,2.28-.84,4.48-1.43,6.66-1.88,6.42-4.1,12.73-6.35,19.02h0Z"/>
    <ellipse class="cls-15" cx="972.34" cy="91.14" rx="23.18" ry="16.48" transform="translate(32.57 356.83) rotate(-21.14)"/>
    <ellipse class="cls-15" cx="812.21" cy="153.06" rx="21.34" ry="16.05" transform="translate(32.28 426.61) rotate(-30)"/>
    <path class="cls-4" d="M988.65,59.18s-16.32,2.55-22.46-5.09-8.43-63.64-6.65-78.92c1.78-15.27,48.24-18.46,48.24-18.46,0,0,27.42,112.34-4.83,105.01-5.37-1.22-5.32-2.86-14.31-2.55Z"/>
    <path class="cls-4" d="M782.49,128.28s16.55-14.37,10.82-27.1c-5.73-12.73-44.55-97.37-46.46-117.74-1.91-20.37-12.73,14.81-10.82,29.68,1.91,14.87,18.46,118.7,46.46,115.15Z"/>
    <path class="cls-9" d="M848.97,286.3s9.87-7.9,33.37-15.49c23.5-7.59,64.1-12.53,87.62-25.05,23.52-12.52,53.74-31.95,71.45-32.38,17.7-.43-18.13-8.64-35.4-2.16-17.27,6.48-51.38,0-59.8-2.81-8.42-2.8-20.94-4.96-24.83,4.54-3.89,9.5-27.63,36.7-46.2,41.45-18.57,4.75-32.64,37.94-26.22,31.91Z"/>
    <ellipse class="cls-9" cx="847.45" cy="53.97" rx="3.27" ry="6.54" transform="translate(86.55 430.96) rotate(-30)"/>
    <ellipse class="cls-9" cx="870.35" cy="47.08" rx="3.44" ry="6.89" transform="translate(20.88 242.34) rotate(-16.04)"/>
    <ellipse class="cls-9" cx="935.48" cy="34.17" rx="3.03" ry="6.02"/>
    <ellipse class="cls-9" cx="929.93" cy="15.92" rx="2.09" ry="4.99"/>
    <ellipse class="cls-9" cx="878.95" cy="-2.67" rx="1.72" ry="4.99"/>
    <path class="cls-9" d="M847.45.85c0,3.29-1.51-1.62-3.27-1.62s-3.1,4.91-3.1,1.62,1.43-5.95,3.18-5.95,3.18,2.67,3.18,5.95Z"/>
    <path class="cls-9" d="M812.21,48.63c0,3.71-1.76,1.89-3.49,1.89s-2.75,1.81-2.75-1.89,1.4-6.71,3.12-6.71,3.12,3.01,3.12,6.71Z"/>
    <path class="cls-9" d="M833.26,37.44c0,3.23-2.02,2.75-4.52,2.75s-4.52.48-4.52-2.75,2.02-5.85,4.52-5.85,4.52,2.62,4.52,5.85Z"/>
    <path class="cls-9" d="M907.47,50.96c-.63-4.98-.88-10.65-4.07-14.7,0,0,.69-.72.69-.72,3.13,2.86,3.83,7.39,3.88,11.41-.02,1.35-.1,2.69-.38,4.01h-.12Z"/>
    <path class="cls-9" d="M840.67,83.3c.26-1.85-.82-3.6-1.65-5.23,1.92.99,3.99,3.6,2.48,5.79,0,0-.83-.55-.83-.55h0Z"/>
    <path class="cls-9" d="M795.96,60.51c-1.07-2.63-2.79-4.86-3.42-7.69,2.06,1.49,4.68,5.12,3.42,7.69h0Z"/>
    <path class="cls-9" d="M847.45,31.59c1.2-2.72,2.81-5.1,3.51-7.93.19-.9.25-1.84-.24-2.74,3.05,2.77-.77,8.66-3.27,10.67h0Z"/>
    <path class="cls-9" d="M866.91,6.8c.37-2.23,1.74-4.64,0-6.54,2.6,1.13,1.63,4.94,0,6.54h0Z"/>
    <path class="cls-9" d="M890.86,21c-1.29-2.31-1.03-5.27-.96-7.86,0,0,.16-.03.16-.03.59,1.24,1,2.5,1.36,3.78.33,1.3.78,2.56.43,3.94,0,0-.98.18-.98.18h0Z"/>
    <path class="cls-9" d="M940.45,5.03c-.55-1.12,0-1.8.17-2.66.59-2.46,1.18-5.07-.04-7.48,2.14,1.9,2,5.24,1.49,7.82-.24.87-.18,1.88-1.36,2.42l-.26-.1h0Z"/>
    <path class="cls-9" d="M797.35,24.01c-1.34-1.46-2.18-3.22-2.78-5.08-.53-1.85-1.01-3.93-.3-5.81,1.04,3.67,2.77,7.03,3.08,10.89h0Z"/>
  </g>
</svg>