<svg width="52" height="16" viewBox="0 0 52 16" fill="none" xmlns="http://www.w3.org/2000/svg">
<path d="M1 7C0.447715 7 -5.02136e-08 7.44772 0 8C5.02136e-08 8.55228 0.447715 9 1 9L1 7ZM51.7071 8.7071C52.0976 8.31658 52.0976 7.68341 51.7071 7.29289L45.3431 0.928928C44.9526 0.538404 44.3195 0.538404 43.9289 0.928928C43.5384 1.31945 43.5384 1.95262 43.9289 2.34314L49.5858 8L43.9289 13.6569C43.5384 14.0474 43.5384 14.6805 43.9289 15.0711C44.3195 15.4616 44.9526 15.4616 45.3431 15.0711L51.7071 8.7071ZM1 9L51 9L51 7L1 7L1 9Z" fill="#3A3B61"/>
</svg>
