<svg width="53" height="16" viewBox="0 0 53 16" fill="none" xmlns="http://www.w3.org/2000/svg">
<path d="M1.13354 7C0.58126 7 0.133545 7.44772 0.133545 8C0.133545 8.55228 0.58126 9 1.13355 9L1.13354 7ZM52.4278 8.7071C52.8183 8.31658 52.8183 7.68341 52.4278 7.29289L46.0638 0.928928C45.6733 0.538404 45.0402 0.538404 44.6496 0.928928C44.2591 1.31945 44.2591 1.95262 44.6496 2.34314L50.3065 8L44.6496 13.6569C44.2591 14.0474 44.2591 14.6805 44.6496 15.0711C45.0402 15.4616 45.6733 15.4616 46.0638 15.0711L52.4278 8.7071ZM1.13355 9L51.7207 9L51.7207 7L1.13354 7L1.13355 9Z" fill="#FFFAEE"/>
</svg>
