<?xml version="1.0" encoding="UTF-8"?>
<svg id="Layer_5" xmlns="http://www.w3.org/2000/svg" viewBox="0 0 523.21 608.7">
  <defs>
    <style>
      .cls-1 {
        fill: #748596;
      }

      .cls-2 {
        fill: #fffaee;
      }

      .cls-3 {
        fill: #ebe6db;
      }

      .cls-4 {
        fill: #b87858;
      }

      .cls-5 {
        fill: #9ebfe0;
      }

      .cls-6 {
        fill: #3a3b61;
      }

      .cls-7 {
        fill: #cc8562;
      }

      .cls-8 {
        fill: #4db3ae;
      }

      .cls-9 {
        fill: #add1f5;
      }

      .cls-10 {
        fill: #2e2f4c;
      }

      .cls-11 {
        fill: #657382;
      }

      .cls-12 {
        fill: #e5c7ce;
      }

      .cls-13 {
        fill: #7098a1;
      }
    </style>
  </defs>
  <g>
    <path class="cls-7" d="M394.95,532.23c7.51,7.39,37.06,9.9,43.57-6.13,6.51-16.03-1.5-50.58-7.26-60.35-5.76-9.77-19.49-28.51-36.96-10.24l-26.48,28.35,20.24,24.11c6.19-3.66,14.4-11.1,14.4-11.1l-7.99,9.2c-8.14,9.12.48,26.15.48,26.15Z"/>
    <path class="cls-10" d="M397.06,530.69c8.01,5.99,23.08,6.66,32.2,2.32,7.76-3.5,9.36-11.22,9.84-19.03.61-12.08-1.45-24.28-4.71-35.9-1.15-3.85-2.43-7.76-4.26-11.15-8.77-15.61-21.74-25.87-35.86-8.88-8.24,9.15-16.4,18.37-24.42,27.71,0,0,.1-3.69.1-3.69,7.11,7.74,13.13,16.39,19.36,24.85,0,0-2.08-.36-2.08-.36,5.3-2.68,10.3-6.29,15.19-9.74,0,0,.24-.24.24-.24l-.15.33c-1.82,3.86-4.22,7.26-6.74,10.58-3.17,4.26-2.75,9.77-1.66,14.83.67,2.97,1.66,5.94,2.81,8.77l.03.06v.02s-.04-.08-.04-.08c-.19-.28-.15-.16.15-.4h0ZM394.07,534.91c-.25-.41-1.06-1.41-1.23-1.82-1.62-3.06-2.77-6.32-3.51-9.72-1.35-6.03-1.04-13.53,3.54-18.34,2.94-3.05,5.94-5.81,9.55-8.2,0,0,.09.09.09.09-2.05,2.27-4.21,4.43-6.44,6.53-2.54,2.35-5.27,4.64-8.2,6.65,0,0-1.05-1.08-1.05-1.08-7.85-8.21-15.94-16.27-22.69-25.44,9.38-9.14,18.55-18.49,27.67-27.88,15.91-17.59,31.03-7.65,41.05,9.71,2.08,3.84,3.37,7.79,4.58,11.78,3.41,12.01,5.61,24.44,5.15,36.98-.37,8.99-2.66,18.07-11.5,22.39-10.23,5.29-27.49,5.07-37-1.65h0Z"/>
  </g>
  <path class="cls-7" d="M222.04,339.01l-10.27,3.83-26.15-46.5s9.81-4.24,10.8-4.88,22.06,10.65,25.62,47.56Z"/>
  <path class="cls-7" d="M249.52,271.62l-2.54-18.58,84.07-28.32s3.37,17.94,4.05,19.82c.69,1.88-24.93,33.54-85.58,27.08Z"/>
  <path class="cls-8" d="M262.05,529.52c-4.7-2.37-8.1-4.34-9.16-4.96l9.16,4.96Z"/>
  <path class="cls-8" d="M262.05,529.52c-4.7-2.37-8.1-4.34-9.16-4.96l9.16,4.96Z"/>
  <path class="cls-7" d="M238.96,401.98c-8.36-.62-7.94,3.35-5.46,6.76s10.52,4.13,10.52,4.13"/>
  <g>
    <path class="cls-8" d="M384.96,340.2c-.51-1.01-.8-1.55-.8-1.55l4.18-3.49c6.94-25.79,1.48-74.39-14.88-94.23-16.37-19.84-49.6-20.34-49.6-20.34l-14.11,28.58c-8.51,12.93-20.56,19.74-38.31,19.74-11.85,0-19.23-13.71-19.23-13.71l-26.45-.57s-17.25,16.85-19.21,23.25c-1.95,6.4-10.03,9.16-10.03,9.16,0,0,24.29,13.79,26.01,49.99,0,0,8.42-3.1,10.93-6.2l26.46,15.95-52.62,113.25s-24.28,33.71-3.22,55.15c21.07,21.43,53.95,14.01,53.95,14.01,9.16,4.64,23.2,10.86,34.26,11.83,17.97,1.58,60.18,2.21,91.87-23.32,0,0,12.16-26.74-3.92-48.68,9.38-10.95,18.51-23.12,23.95-34.23,13.47-27.51-14.11-84.48-19.23-94.59ZM248.82,524.2l9.16,4.96c-4.7-2.37-8.1-4.34-9.16-4.96Z"/>
    <path class="cls-13" d="M227.63,255.78c-5.17,5.46-10.3,11.13-14.81,17.12-1.49,2.08-3.2,4.33-3.99,6.65-1.52,5.54-6.34,9.27-11.39,11.41,0,0,.5-5.36.5-5.36,17.45,11.24,26.68,32.15,27.5,52.42,0,0-3.97-2.63-3.97-2.63,2.9-.64,5.94-1.49,8.66-2.72.89-.41,1.76-.88,2.41-1.43l1.77,1.43c-2.79,3.77-6.84,5.95-10.8,8.26,0,0-3.77,1.41-3.77,1.41-.21-5.99-.72-12.14-2.18-17.93-3.13-12.89-10.4-25.03-21.24-32.83-.44-.31-.96-.65-1.3-.85l.5-5.36c1.48-.45,3.07-1.24,4.38-2.09,1.71-1.12,3.09-2.42,3.98-4.13.58-1.4,1.28-3,2.09-4.08,3.41-4.85,7.58-8.92,11.72-13.03,2.75-2.68,5.54-5.28,8.41-7.84l1.52,1.59h0Z"/>
    <path class="cls-13" d="M384.8,339.41c14.16,24.07,33.58,67.6,23.75,95.29-2.26,5.56-5.81,11.26-9.12,16.22-5.06,7.49-10.83,14.56-16.83,21.31-10.72,11.86-22.22,22.97-34.71,32.96,0,0-1.58-1.75-1.58-1.75,10.83-11.52,21.45-23.25,31.44-35.36,8.57-10.56,16.86-21.41,23.04-33.52,9.3-19.41-1.82-52.83-8.65-72.4-2.66-7.42-5.59-14.77-8.7-22.03l1.35-.71h0Z"/>
    <path class="cls-13" d="M209.66,462.88c-9.14,14.56-17.15,36.17-4.08,50.69,12.65,14.26,33.86,18.22,52.26,16.04,0,0,.32,1.41.32,1.41-9.7,2.45-19.91,2.83-29.92.88-10.73-2.07-21.12-7.48-28.38-15.78-6.69-7.68-8.82-18.69-7.08-28.47,1.71-10.34,6.08-19.72,12.09-28.21,0,0,4.79,3.45,4.79,3.45h0Z"/>
    <path class="cls-13" d="M248.78,524.54c13.33,6.23,27,12.67,41.65,14.83,18.31,1.69,37.01.17,54.78-4.55,1.32-.41,4.93-1.51,6.31-1.94,2.31-.91,5.96-2.1,8.18-3.18,8.04-3.32,15.67-7.95,22.59-13.19,0,0-.84,1.08-.83,1.07,6.64-12.59,7.88-28.72,1.22-41.57-.68-1.33-1.52-2.79-2.36-4.02-.55-.98-.85-.79-2.48-.11,0,0,4.76-3.49,4.76-3.49-.87.99-1.11,1.49-1.1,1.81.35.73.94,1.33,1.33,2.05,8.96,14.12,8.78,32.18,4,47.77,0,0-.27.61-.27.61l-.57.46c-11.43,9.35-24.99,15.78-39.15,19.64-17.04,4.54-34.93,5.67-52.45,4.15-10.81-.79-21.12-5.12-30.64-9.92-5.4-2.79-10.63-5.84-15.65-9.28,0,0,.69-1.16.69-1.16h0Z"/>
    <path class="cls-13" d="M253.01,255.87c4.96,5.81,10.61,11.33,18.2,11.55,6.3.02,12.67-1,18.52-3.34,7.97-3.13,14.57-8.65,19.85-15.48,0,0,2.27,1.5,2.27,1.5-2.96,5.32-7.07,10.13-12.08,13.86-7.52,5.63-16.96,8.42-26.29,8.66-6.66.67-13.28-2.84-17.33-7.85-2.04-2.42-3.67-5.05-4.81-7.99l1.68-.9h0Z"/>
  </g>
  <g id="dress">
    <path class="cls-1" d="M325.13,340s-56.72,16.21-82.73-1.87c-26.01-18.08-8.81-51.23-6.85-59.16,1.97-7.93,3.89-22.28,3.89-22.28l15.52-1.62s-7.24,32.52-3.45,32.87,54.13.3,55.17-7.09c1.03-7.39,2.47-27.79,13.1-54.04l5.8-5.56,16.1,2.61s-31.95,56.18-7.1,87.2l1.32,19.29-10.79,9.66Z"/>
    <path class="cls-1" d="M250.73,344.32s8.24,10.64,6.69,12.7c-1.54,2.06-41.71,76.32-51.24,105.61,0,0,23.01,2.32,31.38,7.44,8.37,5.11,27.43,11.62,42.77,10.23s29.75.46,42.3,4.18c12.55,3.72,28.82,0,28.82,0,0,0,23.24-35.8,25.1-48.81,1.86-13.02,4.32-50.75-5.97-70.24l-45.45-25.42"/>
    <path class="cls-11" d="M255.73,253.76c-.24,6.09-.74,12.12-1.1,18.08-.16,4.16-.68,8.38-.03,12.35.03.13.14.25-.04-.18-.09-.16-.33-.69-1.12-1.2-.41-.26-.92-.46-1.46-.52-.14-.01-.07,0-.02-.01h.08s2.08-.06,2.08-.06c11.75-.51,23.82-.92,35.49-2.09,4.11-.46,8.35-.94,12.11-2.19.5-.18.94-.39,1.1-.49.1-.05.05-.03-.06.14-.15.13-.3.6-.38.84-.02.1-.05.22-.05.33.5-2.87.94-5.98,1.54-9.01,2.81-15.08,8.03-29.84,15.49-43.12,0,0,.89.36.89.36-3.05,11.74-5.68,23.39-7.29,35.12-.7,5.09-1.44,12.6-1.89,17.8-.08.57-.24,1.22-.47,1.72-4.22,10.55-46.02,9.81-56.61,9.25-.92-.04-1.93-.13-2.95-.25-1.56-.03-3.49-1.76-3.82-2.77-.94-2.02-.77-3.5-.74-5.27.28-4.01,1.15-7.94,2.08-11.71,1.52-5.96,3.34-11.77,5.66-17.47l1.53.34h0Z"/>
    <path class="cls-11" d="M342.47,224.32c-8.72,23.29-18.69,49.6-12.42,74.52.97,3.46,2.32,6.84,3.98,10.28l-1.12.9c-3.01-2.54-5.52-5.75-7.47-9.29-11.06-21.26-2.41-48.4,8.91-67.79,1.99-3.32,4.1-6.54,6.57-9.56l1.55.94h0Z"/>
    <path class="cls-11" d="M239.66,256.72c-.03,7.19-.49,14.49-1.58,21.65-1.6,6.98-3.83,13.57-4.75,20.56-5.18,33.64,21.14,42.05,49.48,42.04,13.86.09,27.97-1.36,42.05-3.36l.53,1.84c-13.54,5.33-27.73,8.57-42.27,9.81-11.06.81-22.76.44-33.5-3.38-21.42-7.61-30.05-27.05-24.35-48.55,1.64-7.01,4.85-13.81,7.66-20.31,1.65-4.71,3.25-10.33,4.72-15.21,0,0,1.59-5.15,1.59-5.15l.43.06h0Z"/>
    <path class="cls-11" d="M251.25,342.43c2.81,3.65,6.04,7.16,7.49,11.67.07.45.19.93-.05,1.68l-1.05,1.99c-12.27,24.55-23.9,49.56-34.55,74.84-4.12,9.93-8.23,20.17-11.25,30.37,0,0-5.06-7.76-5.06-7.76,9.84,1.2,19.3,2.51,28.79,5.88,3.14,1.09,5.76,2.93,8.78,4.36,10.18,4.69,21.9,7.77,33.2,7.55,12.85-1.15,25.87-.7,38.48,2.15,3.1.65,6.17,1.55,9.23,2.36,5.2,1.32,10.99,1.37,16.46.89,2.78-.24,5.71-.66,8.4-1.22,0,0-3.66,2.56-3.66,2.56,8.65-12.69,17.53-25.84,23.98-39.75.65-1.28,1.14-2.88,1.67-4.21.93-3.24,1.3-6.61,1.74-9.99,1.77-15.38,2.49-31.2-.05-46.54-.89-5.07-2.15-10.11-4.33-14.73l2.23-1.18c2.69,4.76,4.4,9.93,5.72,15.14,3.8,15.67,4.26,31.87,3.62,47.92-.21,3.44-.3,6.93-.98,10.37-.19,1.22-.78,3.08-1.12,4.28-5.64,16.05-14.07,30.52-22.49,45.17,0,0-1.15,1.95-1.15,1.95l-2.51.61c-10.1,1.99-20.33,2.73-30.51.25-2.92-.78-5.84-1.64-8.79-2.26-10.04-2.2-20.4-2.95-30.66-2.2-1.2.11-3.65.25-4.86.32-13.5.25-26.5-3.09-38.77-8.71-2.6-1.16-5.1-2.96-7.84-3.96-10.43-3.75-22.44-4.54-33.4-6.34,4.71-12.82,10.47-25.2,16.72-37.19,12.76-24.57,26.34-48.57,40.64-72.25.22-.47.64-.94.91-1.41,0,0,.16-.24.16-.24.01-.03-.04.05-.03.08,0-1.49-1.07-3.26-1.81-4.73-1.3-2.36-2.8-4.67-4.36-6.91l1.05-.82h0Z"/>
  </g>
  <path class="cls-7" d="M142.69,271.53s-.75,9.4,15.51,6.19c16.26-3.21,35.84,14.98,35.84,14.98,0,0,12.63-11.34,2.35-25.47s-35.52-23.33-52.22-11.34-1.5,15.64-1.5,15.64"/>
  <path class="cls-10" d="M145.61,271.76c.06,3.61,4.63,4.23,8.05,4.1,2.4-.04,5.01-.66,7.41-.69,7.91-.07,15.37,3.44,21.8,7.5,4.25,2.75,8.19,5.82,11.86,9.3h-1.34c10.31-11.9,4.33-23.87-7.31-31.76-12.05-8.3-29.94-11.5-41.92-1.5-1.67,1.34-3.22,2.82-4.3,4.36-.67,1.03-1.13,1.93-.93,2.92.34,1.22,1.96,1.93,3.22,2.38.4.14.94.27,1.23.31l-2.77.79c7.33-6.07,17.45-9.32,26.81-6.98,1.32.24,3.13.94,4.38,1.44,1.26.44,2.85,1.47,4.05,2.06,0,0-.4.76-.4.76-10.39-4.52-21.14-2.18-29.34,5.46-.88.78-1.61,1.7-2.32,2.53-3.55-.67-6.84-2.19-8.93-5.38-3.35-5.64,2.48-11.22,6.56-14.2,13.61-10.75,33.57-7.9,47.03,1.62,6.71,4.78,13.23,11.87,13.66,20.55.2,6.17-2.77,12.11-7.39,16.09l-.61.6-.73-.61c-7.35-5.98-16.02-11.4-25.3-13.38-2.85-.56-5.66-.75-8.44-.26-1.76.32-3.87.82-5.65.95-6.24.89-14.27-1.61-14.21-9.44,0,0,5.84.47,5.84.47h0Z"/>
  <g id="head">
    <path class="cls-7" d="M270.3,103.34s3.51-32.04,38.3-28.73c35.16,3.35,33.98,37.69,31.51,45.41s-10.19,19.46-20.7,24.09"/>
    <path class="cls-7" d="M201.84,116.24s-15.78-16.31-36.31-6.03c-20.85,10.45-27.37,56.07,14.39,61.38"/>
    <path class="cls-7" d="M272.91,94.16s-26.79-4-52.07,9.14c-25.28,13.13-44.11,39.65-41.39,64.19,2.73,24.53,4.46,29.24,1.98,44.36s22.8,53.28,85.75,37.92c62.95-15.37,74-53.97,74.77-67.27.63-10.94-1.51-32.38-10.43-47.75"/>
    <path class="cls-4" d="M289.15,115.33s0-13.28,12.97-15.75c12.97-2.47,19.46,10.19,16.68,18.84-2.78,8.65-11.74,13.28-11.74,13.28,0,0-5.56-14.21-17.92-16.37Z"/>
    <path class="cls-10" d="M269.81,103.53c-.45-13.46,8.75-26.83,21.94-30.35,12.52-3.41,27.92-1.5,38.31,6.59,10.74,8.31,14.56,22.99,12.95,35.97-.67,6.52-4.33,12.51-8.33,17.53-4.04,4.94-9.08,9.26-15.06,11.54l-.4-.91c9.47-4.95,18.98-17.81,19.74-28.56,1-14.48-5.33-30.13-19.81-35.12-13.39-4.69-30.02-3.42-39.61,7.91-3.77,4.32-6.68,9.69-8.73,15.52l-.99-.11h0Z"/>
    <path class="cls-10" d="M288.76,115.65c-.21-.33-.19-1.09-.25-1.49-.27-4.61,1.47-9.34,4.81-12.59,5.99-5.55,16.41-6.22,22.47-.41,3.71,3.47,5.61,8.42,5.36,13.41-.46,8.19-7.27,14.68-14.4,17.82-2.3-5.85-6.46-11.3-11.94-14.48-1.89-1.09-3.98-1.67-6.05-2.26h0ZM289.53,115.01c6.35.96,11.46,5.72,14.93,10.88,1.18,1.78,2.23,3.63,3.07,5.63l-.7-.26c4.68-3.28,8.77-7.76,10.31-12.93,2.27-7.3-2.89-16.52-10.87-16.86-5.12-.25-10.34,1.9-13.32,6.26-1.47,2.08-2.51,4.6-3.18,7.09-.03.06-.07.34-.1.36,0-.07-.07-.15-.15-.17h0Z"/>
    <path class="cls-10" d="M201.48,116.84c-4.3-2.75-8.95-4.73-13.57-5.88-11.28-2.68-24.16,1.07-30.33,11.26-6.4,9.86-7.83,23.42-1.9,33.83,4.98,8.64,14.65,13.35,24.31,15.3,0,0-.13.99-.13.99-25.37-.89-39.3-22.08-31.18-45.92,2.76-7.99,8.23-15.46,16.05-19.14,7.62-3.82,16.93-4.33,24.72-1.03,5.12,2.18,9.59,5.51,12.74,9.89l-.72.7h0Z"/>
    <path class="cls-4" d="M188.62,131.51s-4.4-3.91-11.57-2.77c-7.17,1.14-11.35,9.75-8.86,17.02,2.34,6.81,11.53,9.25,11.53,9.25"/>
    <path class="cls-10" d="M188.28,132.85c-6.33-2.84-15.55-2.02-17.99,5.46-1.24,3.22-1.2,7.14.62,10.13,1.86,3.05,5.34,5.38,8.94,7.05l-.26.97c-9.95-1.55-16.55-9.47-13.31-19.57,1.48-4.54,5.39-8.63,10.35-9.23,4.57-.57,9.48.93,12.32,4.44l-.66.75h0Z"/>
    <path class="cls-10" d="M272.91,94.41c-.71.97-1.21.56-1.79.58-8.52-.6-17.16-.01-25.53,1.65-22.2,4.17-42.47,17.73-54.73,36.69-4.17,6.54-7.38,13.88-8.96,21.48-1.08,5.52-1.22,10.95-.57,16.7.77,11.52,2.9,23.08,1.68,34.66-.22,1.98-.5,4.07-.78,6.05-.73,9.27,5.94,17.44,12.55,23.17,24.92,21.27,60.26,17.14,89.1,6.76,26.73-9.34,53.9-30.45,56.4-60.52.32-6.78-.25-13.61-1.33-20.32-1.37-8.32-3.72-16.73-7.64-24.23-.27-.49-.45-1.03-.22-1.83l.86-.5c.78.22,1.15.69,1.42,1.21l.85,1.55,1.53,3.18c.7,1.6,2.01,4.89,2.57,6.55,3.01,8.88,4.67,18.14,5.26,27.49.28,4.71.29,9.56-.66,14.21-5.77,28.63-30.95,48.61-57.2,58.21-17.64,6.57-36.48,10.64-55.42,8.85-19-1.71-38.68-10.88-46.81-29.15-1.96-4.37-3.39-9.11-2.94-13.96.77-4.64,1.34-9.1,1.32-13.68-.18-11.41-3.59-24.73-4.37-36.12-.33-23.56,15.9-44.33,34.9-56.64,13.74-9.02,30.34-13.19,46.66-13.51,4.08-.08,8.15.06,12.21.52.57.13,1.21-.14,1.64.97h0Z"/>
    <path class="cls-12" d="M270.3,217.92c0,14.73-17.68,28.11-32.45,26.66-15.81-1.55-29.25-11.97-29.21-27.67.05-18.2,16.62-26.88,29.21-25.65,17.33,1.69,32.45,11.94,32.45,26.66Z"/>
    <path class="cls-6" d="M206.84,158.65s-.07-2.84-4.17-2.67-10.69,1.64-14.98,9.32c-4.29,7.69-.34,7.51,1.72,4.49,2.06-3.03,5.54-6.05,10.41-7.31,4.87-1.27,6.9-1.06,7.02-3.83Z"/>
    <path class="cls-6" d="M252.72,149.43c-2.7,1.24-5.63-.22-4.9-2.55.02-.06.04-.12.06-.19,1.44-4.15,15.45-6.73,20.47-3.39,6.55,4.35,7.89,7.14-1.93,4.29-3.48-1.01-8.54-.53-13.7,1.84Z"/>
    <path class="cls-6" d="M239.4,208.47c.7,5.76-7.01,10.83-11.81,10.83s-10.33-3.25-10.33-8.69,5.57-7.74,10.6-8.17,10.89.62,11.55,6.03Z"/>
    <path class="cls-1" d="M235.42,207.8c1.03,2.82-3.94,8.26-7.51,8.26s-7.75-2.94-7.75-5.19,2.69-4.81,6.21-5.4,8-.53,9.05,2.33Z"/>
    <path class="cls-9" d="M231.35,206.81c.73,1.55-2.15,3.07-4.33,3.37-2.03.29-4.41-.33-4.41-1.62,0-.77,1.83-2.2,3.84-2.54s4.36-.35,4.89.79Z"/>
    <path class="cls-6" d="M233.69,230.16c7.59.61,15.26-4.07,17.95-6.83,2.53-2.59,3.93-5.95,5.41-6.36,1.36-.38,2.89.75-1.96,7.24-4.87,6.52-14.11,9.54-19.54,9.54s-13.35-2.49-13.51-4.97,2.89.68,11.64,1.38Z"/>
    <path class="cls-12" d="M301.59,196.19c.67,5.51-5.71,10.86-11.94,11.85s-11.7-1.76-12.61-7.23c-1.01-6.11,6.44-12.16,12.61-12.86,6.6-.74,11.19,2.07,11.94,8.25Z"/>
    <path class="cls-12" d="M198.57,213.75c.6,4.92-5.04,10.96-10.65,10.57-2.94-.2-4.78-3.55-5.59-8.43-.9-5.45.08-8.88,5.59-9.5,5.89-.66,9.99,1.84,10.65,7.36Z"/>
    <path class="cls-10" d="M273.5,178.08c.49,8.61-4.21,12.81-8.36,13.05s-9.33-4.92-9.81-13.46c-.43-7.65,4.25-11.37,8.4-11.6s9.38,5.1,9.77,12.02Z"/>
    <path class="cls-10" d="M213.24,192.15c.46,8.11-3.97,12.06-7.87,12.29s-8.79-4.64-9.24-12.68c-.41-7.2,4.01-10.71,7.91-10.93s8.84,4.8,9.2,11.32Z"/>
    <ellipse class="cls-2" cx="267.03" cy="175.16" rx="2.91" ry="3.92" transform="translate(-23.68 42.96) rotate(-8.81)"/>
    <ellipse class="cls-2" cx="207.11" cy="189.86" rx="2.76" ry="3.72" transform="translate(-26.63 33.96) rotate(-8.81)"/>
  </g>
  <path class="cls-7" d="M195.33,431.52s10.33,2.07,19.74-1.86l-10.47-33.9c-6.66-5.83-18.55-10.52-18.55-10.52,0,0-28.17-20.87-57.81-.84,0,0-21.37-1.3-24.29,20.08s6.83,31.21,6.83,31.21h0l-3.83-6.03s-3.14,2.39-7.44,18.52c-4.3,16.13-1.23,14.59-.46,33.64.77,19.05-17.36,9.83-17.66,33.02s21.66,25.96,26.64,26.27,13.29-3.38,12.83-11.21c-.46-7.83-9.77-8.97-9.77-8.97,32.51,2.2,33.17-28.71,33.17-28.71l6.83.4s5.56,15.15,3.1,30.67c-2.46,15.51,11.83,17.51,18.89,19.05s25.04.77,26.88-9.98c1.84-10.75-11.21-14.9-11.21-14.9,14.13-22.43-.92-53.69-.92-53.69l-8.8,13.96s14.57-18.23,16.29-37.5c1.72-19.27-6.49-39.36-6.49-39.36"/>
  <path class="cls-10" d="M128.22,384.89c-8.02,1.48-15.39,4.74-19.31,11.78-5.33,10.32-4.46,29.03,2.24,38.66,0,0-.85.27-.85.27.44-7.3,4.43-14.18,10.12-18.74,5.67-4.61,13.3-6.8,20.49-5.78,0,0-.43.66-.43.66-1.7-3.89-3.45-7.78-5.77-11.35,0,0,.16-.14.16-.14,1.65,1.44,2.93,3.27,3.99,5.16,1.13,2.05,2.07,4.21,2.71,6.47-14.6,4.3-24.73,10.09-30.66,24.8-6.56-6.46-9.4-15.71-9.6-24.77-.27-8.94,1.68-19.21,9.67-24.54,5.05-3.48,11.4-4.68,17.31-3.48,0,0-.06,1-.06,1h0Z"/>
  <path class="cls-10" d="M111.51,433.89c6.66,6.02,14.16,12.42,23.29,13.35,5.33.24,10.85-.78,15.99-2.67,3.61-1.28,6.91-3.24,10.42-4.84,1.72-.84,3.74-.93,5.24-2.16,1.53-1.09,2.29-2.9,3.81-4.33,2.24-1.64,4.85-3,6.62-5.17,1.71-1.86,1.31-4.27-1.3-4.86-1.68-.45-3.62-.51-5.56-.68l-.03-.22c2.63-1.11,7.08-2.3,7.37-5.44.19-2.56-2.1-3.23-4.3-3.45-1.97-.22-4.04-.23-6.11-.41,0,0-.01-.11-.01-.11,1.51-.34,3.02-.8,4.38-1.46.86-.47,1.92-.99,2.08-1.93-.41-3.08-4.53-3.64-7.14-3.53-4.31.45-8.37,2.96-11.68,5.69-1.11.96-2.15,2.13-2.8,3.34l.05.27c-.41.04-3.96.43-4.45.47-3.85.41-7.41,1.37-11.17,2.41,0,0-.19-.29-.19-.29,3.66-4.17,10.31-6.03,15.41-3.49,0,0-.61.34-.61.34.49-1.7,1.47-3,2.52-4.27,4.32-4.56,11.47-9.27,17.88-6.29,2.24,1.05,5.03,4.64,2.66,6.87-2.01,1.52-4.54,1.73-6.91,1.98,0,0-.01-.11-.01-.11,2.01-.54,4.05-.93,6.19-.99,1.64-.03,3.65.16,4.96,1.46,1.38,1.41,1.63,3.72.77,5.43-1.82,3.05-5.67,3.75-8.84,3.73,0,0-.03-.23-.03-.22,3.14-1.14,8.73-2.04,9.99,2.29.61,1.69-.33,3.88-1.5,4.92-2.1,2.24-4.98,3.14-7.59,4.5-2.19,1.78-3.72,4.65-6.65,5.51-4.6,1.55-7.98,5.05-12.34,7.4-4.26,2.5-9.21,4.28-14.24,4.68-11.51.93-21.5-7.8-26.96-17.12,0,0,.8-.6.8-.6h0Z"/>
  <path class="cls-10" d="M138.79,411.86c1.79-.19,3.35,1.27,3.74,2.96,0,0-.98.2-.98.2-.12-1.48-1.19-2.8-2.75-2.89,0,0-.01-.26-.01-.26h0Z"/>
  <path class="cls-10" d="M143.01,389.72c7.09,6.33,18.93,9.7,27.7,5.16,2.88-1.51,5.41-3.89,7.33-6.68l.91.41c-4.56,11.73-17.95,13.91-28.41,8.75-3.3-1.65-6.29-3.94-8.32-7.05l.8-.6h0Z"/>
  <path class="cls-10" d="M186.24,384.77c5.3,1.26,10.23,3.76,14.64,6.93,1.46,1.09,2.85,2.29,4.05,3.68l-.66.75c-5.98-3.82-12.32-6.74-18.4-10.43,0,0,.37-.93.37-.93h0Z"/>
  <path class="cls-10" d="M195.43,431.03c2.89-.44,6.84-.69,9.75-.96,2.94-.24,6.72-.72,9.7-.87,0,0,.39.92.39.92-2.72,2.31-6.28,3.39-9.77,3.66-3.51.24-7.06-.15-10.25-1.76,0,0,.2-.98.2-.98h0Z"/>
  <path class="cls-10" d="M188.85,400.85c6.24,12.27,9.7,26.33,8.67,40.17-1,10.54-5.45,20.46-11.56,28.97-2.03,2.8-4.21,5.48-6.74,7.85l-.34-.27c1.62-3.01,3.19-6.01,4.68-9.03,4.28-8.9,8.23-18.16,9.45-27.99,1.4-13.24-.97-26.73-4.16-39.71h0Z"/>
  <path class="cls-10" d="M174.95,482.08c-8.05,7.94-19.57,11.73-30.75,11.63,0,0,.16-2.98.16-2.98,10.73.98,22.04-1.85,30.4-8.84,0,0,.2.2.2.2h0Z"/>
  <path class="cls-10" d="M145.41,484.35c2.49,20.66-11.18,43.25-34.32,36.77,0,0,.05-.4.05-.4,1.84-.11,3.7.22,5.47.97,8.92,3.8,7.21,15.67-.83,19.51-3.46,1.97-7.62,2.24-11.48,1.5-5.56-.87-10.94-2.81-15.45-6.36-6.16-4.66-9.3-12.44-9.29-20.04-.05-3.73.37-7.5,1.79-11,1.39-3.52,4.2-6.49,7.38-8.38,2.91-1.86,6.14-3.37,7.93-6.38,1.74-2.95,1.8-6.49,1.44-9.86-.38-5.31-1.49-10.39-2.43-15.64-1.04-5.4-.1-11.31,1.21-16.46.87-3.48,1.88-6.92,3.36-10.24,1.59-3.35,3.25-6.88,6.44-9.08,0,0,.61.8.61.8-1.12,2.54-2.13,6.99-2.9,9.75-1.61,6.53-3.96,13.31-4.89,19.91-.41,3.2-.07,6.63.13,10.21.19,3.04.28,7.57.31,10.67.06,3.53-.17,7.38-2.09,10.66-1.89,3.18-5.22,5.07-8,7.24-2.73,2.1-4.69,4.75-5.55,7.88-2.4,9.17-1.05,20.74,7.08,26.77,5.1,3.81,11.9,6.01,18.3,5.95,6.16-.53,11.58-5.85,8.85-12.11-1.19-2.62-4.18-4.57-7.43-5.85l.05-.4c15.92-.46,24.79-8.18,30.13-22.79,1.62-4.34,2.85-8.89,3.88-13.59h.27Z"/>
  <path class="cls-10" d="M188.3,463.54c9.42,15.6,12.88,39.03.9,54.18,0,0-.27-.74-.27-.74,2.47.42,4.81,1.34,6.98,2.72,7.8,4.75,8.71,15.77.95,21.06-4.4,3.05-9.53,4.03-14.67,4.33-4.96.35-9.94-.54-14.73-1.9-12.47-3.32-17.14-10.34-14.39-23.08,1.02-9.19-.02-18.7-2.24-27.83l.95-.32c1.73,4.5,2.9,9.17,3.67,13.94.8,4.79,1.01,9.66.69,14.52-.44,4.24-1.23,9.07,1.37,12.69,3.19,4.5,9.17,5.78,14.38,6.8,7.22,1.5,16.07,1.2,22.45-2.74,3.44-2.19,4.47-6.42,3.25-10.07-1.38-4.02-5.26-6.98-8.95-9.16,0,0-.54-.1-.55-.1l.27-.64c5.83-12.47,5.18-26.65,2.41-39.84-.93-4.46-2.06-8.93-3.36-13.37l.9-.43h0Z"/>
  <g>
    <path class="cls-7" d="M122.78,284.24s-5.13-14.43-24.2-15.46-29.34,19.26-26.81,31.32c2.41,11.45,11.22,19.75,23.12,22.62"/>
    <path class="cls-7" d="M91.2,321.4s1.32,26.78,10.6,40.76c10.5,15.82,27.33,30.91,64.04,27.83s48.33-34.1,49.11-43.29c.78-9.19-4.2-18.53-9.66-22.11s.7-10.63-5.76-22.58c-2.12-3.93-9.84-18.81-24.51-25.09s-36.39-10.93-56.83.37"/>
    <path class="cls-10" d="M98.99,310.75c-.14-.04-.24.2-.21.06l-.02-.18c-.25-5.52,3.28-10.73,7.77-13.68,1.54-1.01,3.26-1.76,5.1-2.12,0,0-.03.1-.03.09-2.62-3.35-5.98-5.93-9.57-6.37-3.45-.47-7.1.56-9.13,3.47-1.88,2.7-3.08,6.78-1.61,9.96,1.34,3.05,4.09,5.71,6.75,7.81.47.34.53.57.95.96h0ZM99.29,311.38c-5.44-1.42-11.12-5.54-12.35-11.34-1.31-9.57,6.07-17.7,15.86-14.9,4.53,1.28,8.08,5.4,8.9,9.81-1.99,2.82-4.29,5.33-6.34,8.04-1.77,2.3-4.36,5.96-6.07,8.38h0Z"/>
    <path class="cls-10" d="M122.81,283.76c-4.78-7.84-13.12-12.29-22.04-12.86-4.25-.34-8.37.19-12.13,2.09-10.71,5.55-17.56,20.09-12.51,31.56,3.18,8.36,10.63,14.23,18.79,17.71-15.08-.9-28.45-15.2-26.18-30.66,1.69-12.73,11.8-24.63,25.04-25.76,12.08-1.2,25.95,5.68,29.04,17.92h0Z"/>
    <path class="cls-10" d="M92.64,321.44c.15,13.14,2.18,27.41,9.53,38.51,11.96,15.98,31.4,26.48,51.29,27.85,23.08,1.69,47.23-10.64,56.43-32.35,2.76-6,3.67-12.05,2.04-18.46-1.07-4.43-3.2-8.94-6.94-11.71-3.94-2.23-3.33-7.14-3.54-10.87-.34-8.34-5.42-15.48-10.29-21.87-6.26-7.96-14.34-13.38-23.84-16.34-9.4-3.22-19.47-4.88-29.39-3.85-6.63.71-13.1,2.58-19.1,5.55,0,0-1.21-2.18-1.21-2.18,12.05-7.5,27.13-9.45,40.99-6.88,14.98,2.81,27.36,8.09,36.24,20.88,3.99,5.89,8.08,12.11,9.15,19.26.56,3.44-.02,7.14.07,10.47.07,1.59.56,2.78,1.73,3.58l1.09.76c6.76,5.47,11.17,14.15,10.4,23.02-1.06,7.42-4.28,13.82-8.35,19.88-16.2,24.24-50.16,31.34-76.31,20.39-13.04-5.26-24.85-13.83-33.07-25.33-4.03-5.97-6.28-12.77-7.75-19.58-1.43-6.86-2.11-13.76-2.04-20.8l2.87.08h0Z"/>
    <path class="cls-6" d="M127.4,314.64s3.32-5.6,9.55-5.81,2.28-4.79-3.11-4.47-7.89,5.1-8.51,7.59c-.62,2.49-2.13,6.84,2.08,2.7Z"/>
    <ellipse class="cls-1" cx="176.82" cy="343.7" rx="10.46" ry="7.29" transform="translate(-26.71 15.11) rotate(-4.55)"/>
    <path class="cls-6" d="M181.98,299.23c-2.9.21-5.66,2.84-6.72.72-1.06-2.12,2.4-5.58,6.64-5.39s9.23,4.02,9.71,6.05c.48,2.03-5.44-1.69-9.63-1.38Z"/>
    <path class="cls-9" d="M181.53,340.69c.14,1.12-1.7,3.6-4.3,3.91s-4.98-1.65-5.12-2.77,1.86-3.41,4.47-3.72,4.82,1.46,4.96,2.58Z"/>
    <ellipse class="cls-6" cx="186.97" cy="323.43" rx="7.08" ry="9.32" transform="translate(-25.07 15.85) rotate(-4.55)"/>
    <ellipse class="cls-2" cx="189.73" cy="321.83" rx="2.31" ry="2.88"/>
    <ellipse class="cls-6" cx="142.9" cy="334.39" rx="7.08" ry="9.32" transform="translate(-26.08 12.39) rotate(-4.55)"/>
    <ellipse class="cls-2" cx="145.65" cy="332.8" rx="2.44" ry="3.05"/>
    <path class="cls-6" d="M169.03,374.7c7.61.17,17.27-12.07,16.9-16.9-.37-4.83-2.87-.84-5.39,0-5.86,1.96-13.57,1.49-18.57-1.3-4.47-2.49-8.54,0-7.8,4.09.74,4.09,6.31,13.93,14.86,14.11Z"/>
  </g>
  <g>
    <path class="cls-3" d="M201.86,370.22s8.07-11.26,6.04-15.76c-2.04-4.51-8.4-11.06.01-14.59,8.4-3.53,9.8,7.04,10.59,11.06,1.14,5.81,15.38,9.52,15.38,9.52"/>
    <g>
      <path class="cls-9" d="M204.35,388.35s-10.43-12.81-2.49-18.13c1.66-1.11,30.11-10.93,32.02-9.78,1.91,1.15,7.77,11.35,4.39,16.11"/>
      <path class="cls-5" d="M203.96,388.67c-3.92-4.91-9.19-13.85-2.8-18.88.32-.27.74-.47,1.12-.63,4.52-1.87,9.16-3.43,13.79-5,4.28-1.41,8.59-2.76,12.97-3.87,1.62-.34,3.05-.85,4.78-.71.36.07.59.24.83.45,3.46,3.59,7.24,12.25,4.02,16.82,0,0-.82-.58-.82-.58,2.48-3.98-1.32-12.14-4.38-15.1-5.5.63-11.39,2.93-16.88,4.58-4.81,1.68-9.98,3.08-14.54,5.27-5.65,4.31-.43,12.57,2.67,17.01,0,0-.78.63-.78.63h0Z"/>
    </g>
    <g>
      <path class="cls-2" d="M238.26,376.56s-32.81,10.09-33.92,11.8-3.44,6.8,3.04,23.66c6.48,16.87,14.14,33.59,19.03,33.2,4.89-.38,34.56-9.33,34.4-16.29-.16-6.96-17.99-53.87-22.55-52.37Z"/>
      <path class="cls-3" d="M238.55,377.47c-7.87,2.31-15.73,4.62-23.51,7.18-3.43,1.2-7.03,2.19-10.22,3.94-4.75,7.69,5.05,27.41,8.38,35.4,1.92,4.02,8.93,19.96,13.33,19.89,6.75-1.26,30.02-8.66,32.51-14.72-.12-2.75-1.15-5.44-1.89-8.14-3.71-11.58-7.82-23.21-12.92-34.28-1.58-3.16-3.24-7.02-5.68-9.26h0ZM237.97,375.64c4.86-1.98,16.45,28.09,18.33,32.68,1.5,3.84,2.89,7.72,4.12,11.68.82,3.1,2.31,6.51,2.03,9.79-1.69,8.08-27.93,15.59-35.64,16.72-6.45.79-12.93-16.77-15.25-21.82-3.13-8.47-13-29.01-7.39-36.89,3.29-1.87,6.98-2.86,10.48-4.23,7.73-2.75,15.51-5.38,23.3-7.93h0Z"/>
    </g>
  </g>
  <g>
    <path class="cls-7" d="M234.71,402.17c-1.84-.25-1.55-1.46-2.77-3.8s1.33-7.12,8.45-9.97c7.12-2.85,17.38-9.42,17.38-9.42-18.5,2.96-19.78-6.25-8.17-9.11s35.34-.67,35.34-.67c12.12-4.71,46.61-34.33,49.64-36.68,3.03-2.36,1.51-11.61,1.51-11.61l25.15,2.07,25.31,10.86s-10.97,36.67-41.17,48.26c-30.2,11.59-46.98,16.17-46.98,16.17,0,0-10.52,18.49-31.87,19.94s-26.71-4.2-22.51-5.34c0,0-9.71-1.07-10.81-2.93-1.1-1.86-1.03-6.01,1.5-7.77Z"/>
    <path class="cls-10" d="M387.63,335.44c-6.13,19.16-17.99,37.38-36.11,47.1-8.21,3.93-16.9,6.66-25.44,9.75-9.11,3.12-18.23,6.11-27.6,8.56,0,0,.88-.69.87-.67-5.9,9.76-15.46,17.24-26.6,19.91-7.35,1.55-14.89,1.43-22.35.56-1.87-.29-3.74-.66-5.62-1.38-1.19-.48-2.78-1.21-3.51-2.64-.68-1.25.06-2.92,1.27-3.5,3.54-1.77,7.54-.29,11.22-1.29,3.43-.67,6.78-2.08,10.04-3.67l.32.53c-2.97,2.16-6.21,4.06-9.87,5.14-1.82.54-3.77.82-5.64.89-1.85.08-3.61.11-4.65.77-.24.14-.22.28-.15.05.03-.1-.01-.18,0-.17,1.75,1.56,4.61,1.9,7,2.29,6.95.73,14.28.65,21.17-.8,10.34-2.45,19.55-9.66,25.13-18.6,9.3-2.88,18.56-6.14,27.73-9.46,6.95-2.71,18.27-6.43,24.85-9.76,17.07-9.11,28.57-26.61,35.18-44.42,0,0,2.75.82,2.75.82h0Z"/>
    <path class="cls-10" d="M243.73,416.07c-4.3-.71-8.95-1.56-11.87-5.17-2.78-3.76-2.51-8.35,2.78-9.02,3.04-.36,5.93.44,8.95-.06,5.82-.68,11.51-2.38,17.03-4.36,0,0,.21.46.21.46-6.76,3.2-13.96,6.29-21.56,6.52-1.78,0-4.66-.23-5.89,1.05-.28.41-.18.83-.02,1.36.8,2.34,2.71,3.66,5.39,4.52,1.72.58,3.62,1.02,5.41,1.31l-.42,3.39h0Z"/>
    <path class="cls-10" d="M337.22,321.87c1.35,4.15,2.3,10.43-1.49,13.75-.24.19-1.04.84-1.29,1.05-5.92,4.91-11.94,9.84-18,14.56-4.89,3.78-9.86,7.48-14.95,11.05-5.25,3.55-10.31,7.11-16.32,9.46,0,0-.35.13-.35.13l-.3-.04c-10.1-.78-20.49-1.27-30.54-.13-2.38.33-4.95.77-7.16,1.66-1.42.6-3.03,1.33-3.67,2.59-.06.25-.07.27.07.5.51.63,1.64,1.04,2.52,1.26,5.08,1.21,10.99.19,16.17-.3,0,0-4.13,3.12-4.13,3.12-5.18,4.19-10.46,7.96-16.63,10.71-3.4,1.34-7.64,3.94-8.18,7.6.17.64.46,1.45.79,2.09.36.62.71,1.36,1.54,1.32l-1.78,2.26c-.44-1.04-1.12-1.58-1.66-2.29-.57-.72-1.12-1.32-1.64-2.09-.7-1.16-.72-2.48-.48-3.52,1.33-4.6,6.09-7.39,9.94-8.91,2.79-1.17,5.59-2.68,8.3-4.32,2.71-1.64,5.42-3.36,8.05-5.13l1.02,2.57c-4.74.35-12.71,1.27-16.18-2.68-1.36-1.7-.37-4.15,1.11-5.28,3.34-2.71,7.53-3.39,11.61-4,10.43-1.18,20.76-.68,31.17.12,0,0-.65.09-.65.09,5.32-2.54,10.27-6.42,15.07-9.95,10.99-8.32,21.59-17.29,32.2-26.12,0,0,.91-.75.91-.75l.49-.39c.07-.07.06-.04.1-.1,1.47-2.54,1.15-6.4,1.5-9.41,0,0,2.83-.46,2.83-.46h0Z"/>
  </g>
  <path class="cls-13" d="M323.9,219.75c19.06,1.49,39.81,7.34,52.11,22.99,16.41,22.38,21.56,67.6,15.13,94.3,0,0-1.12,4.49-1.12,4.49-16.41-15.1-38.95-20.14-60.72-17.39,0,0,0-3.33,0-3.33.79-10.42,1.49-20.9,1.71-31.36,0-3.34.18-7.01-.46-10.22,0,0,1.41-.49,1.41-.49,1.11,3.57,1.25,7,1.64,10.62.89,10.53,1.28,21.05,1.59,31.62l-3.23-3.02c20.44-1.97,42.29,2.87,58.34,16.15,0,0-4.85,1.4-4.85,1.4,3.23-11.92,3.61-24.75,2.94-37.13-1.4-18.51-4.53-38.06-14.99-53.71-7.31-10.16-19.17-16.15-31.01-19.69-6.05-1.77-12.32-3.03-18.58-3.57l.08-1.67h0Z"/>
</svg>