<?xml version="1.0" encoding="UTF-8"?>
<svg id="Layer_7" xmlns="http://www.w3.org/2000/svg" viewBox="0 0 558.56 608.7">
  <defs>
    <style>
      .cls-1 {
        fill: none;
        stroke-width: 5.49px;
      }

      .cls-1, .cls-2 {
        stroke: #2e2f4c;
        stroke-miterlimit: 10;
      }

      .cls-3 {
        fill: #748596;
      }

      .cls-4, .cls-2 {
        fill: #fffaee;
      }

      .cls-5 {
        fill: #b87858;
      }

      .cls-2 {
        stroke-width: 7.65px;
      }

      .cls-6 {
        fill: #3a3b61;
      }

      .cls-7 {
        fill: #cc8562;
      }

      .cls-8 {
        fill: #add1f5;
      }

      .cls-9 {
        fill: #2e2f4c;
      }

      .cls-10 {
        fill: #e5c7ce;
      }

      .cls-11 {
        fill: #e3ca93;
      }

      .cls-12 {
        fill: #f9d8e0;
      }
    </style>
  </defs>
  <g>
    <path class="cls-7" d="M229.51,538.68l-16.36,20.85s8.54,5.95,12.14,13.98c4.22,9.43-2.25,32.04-32.19,29.03-34.13-3.44-50.18-39.8-51.72-49.34-1.54-9.56,16.62-33.51,16.62-33.51l71.51,19Z"/>
    <path class="cls-7" d="M363.99,526.26l4.6,23.86c18.21-2.09,27.21,6.7,29.09,14.86,1.7,7.35-4.93,21.64-24.69,29.09-21.06,7.94-48.76,5.02-57.97,1.26s-22.18-55.04-22.18-55.04l71.15-14.02Z"/>
    <path class="cls-9" d="M158.85,519.1c-5.32,7.72-16.02,22.88-15.85,32.04,1.24,6.25,4.36,12.19,7.6,17.67,9.4,15.71,25.28,28.77,44.09,29.65,7.01.46,14.47-.55,20.17-4.66,6.23-4.35,10.02-13.12,7.25-20.36-2.41-5.1-6.57-9.4-10.79-13.09,0,0-2.27-1.8-2.27-1.8l1.68-2.15,16.36-20.85,4.32,3.39-16.36,20.85-.59-3.95c5.73,3.73,10.65,8.72,13.54,15.01,2.39,5.81,1.41,12.61-1.23,18.03-5.76,12.13-20.02,16.41-32.47,15.12-20.49-1.27-37.68-15.69-47.45-32.97-3.41-6.13-6.62-12.48-7.7-19.51-.23-5.33,2.35-10.07,4.63-14.62,3.74-6.92,8.13-13.29,12.85-19.5l2.23,1.69h0Z"/>
    <path class="cls-9" d="M293.64,538.58c3.39,11.69,7.02,23.36,11.47,34.68,2.24,5.5,4.49,11.12,7.84,15.96.44.6,1.17,1.47,1.7,1.94,0,0,.42.34.42.34.18.16.35.17.52.31.08.06.85.27.98.33,11.24,3.34,23.67,3.32,35.33,2.27,14.9-1.65,31.48-6.71,39.8-20.03,3.96-6.63,3.5-12.57-2.35-17.76-5.52-4.82-13.45-5.82-20.75-5.58,0,0-2.3.08-2.3.08l-.3-1.99-3.6-24.05,2.65-.51,5.61,23.66-2.6-1.91c4.2-.77,8.62-1.01,13.05-.26,9.28,1.36,18.36,8.21,19.74,17.92.56,5.09-1.21,9.57-3.65,13.71-9.62,14.98-27.94,20.69-44.76,22.2-12.6.89-25.26.45-37.39-3.51-.45-.18-1.26-.44-1.68-.72-1.76-.92-2.83-2.44-3.95-3.95-3.48-5.34-5.69-11.26-7.81-17.15-4.04-11.63-7.29-23.48-10.09-35.46,0,0,2.14-.54,2.14-.54h0Z"/>
    <path class="cls-9" d="M209.67,572.78c7.05,6.91,7.69,17.97,5.43,27.11,0,0-6.1-2.24-6.1-2.24,1.4-2.84,2.63-5.83,3.19-8.98,1.05-5.34.48-11.2-2.52-15.9h0Z"/>
    <path class="cls-9" d="M191.35,572.71c7.51,8.77,5.91,20.46-.15,29.56,0,0-4.33-3.38-4.33-3.38.74-.88,1.53-1.75,2.26-2.66,3.57-4.68,5.62-10.57,4.56-16.49-.39-2.39-1.2-4.77-2.51-6.89l.17-.14h0Z"/>
    <path class="cls-9" d="M358.29,567.63c12.59,3.85,16.07,16.18,11.74,27.77,0,0-5.06-2.13-5.06-2.13.37-.99,1.13-2.37,1.51-3.39,3.84-9.18.46-17.66-8.19-22.26h0Z"/>
    <path class="cls-9" d="M374.95,561.16c5.39,1.71,9.35,6.53,11.32,11.75,1.53,4.12,1.96,8.8,1.89,13.18,0,0-5.45-.65-5.45-.65l.59-3.32c1.11-7.75-1.03-16.78-8.4-20.79,0,0,.06-.17.06-.17h0Z"/>
  </g>
  <polygon class="cls-7" points="225.77 293.39 247.58 327.14 298.73 347.99 341.7 327.14 336.09 286.07 225.77 293.39"/>
  <path class="cls-6" d="M204.63,339.76c0,39.11-19.08,84.41-19.08,84.41-34.81-23.85-71.06-10.49-71.06-10.49,0,0,2.38-34.81,22.89-77.74,20.51-42.92,58.59-54.15,58.59-54.15l55.73,38.24s25.8,13.88,41.3,15.07c0,0,19.51-7.83,27.93-16.28,0,0,24.93-68.22,32.03-32.93,0,0,19.88,13.03,31.79,29.46l-14.91,49.17-9.79-43.34c20.76,80.15,31.25,190.64,31.25,190.64-137.62,55.35-255.55-2.77-261.18-6.18-5.64-3.41,12.57-45,12.57-45l13.49-41.6,48.45-79.3Z"/>
  <path class="cls-7" d="M156.95,460.98l-3.52-16.06s-.87,10.81,3.52,16.06c2.09,2.49,5.36,3.73,10.47,1.98,15.9-5.46,3.8-29.04,3.8-29.04l4.41,14.93c13.9-1.53,6.46-27.92,6.46-27.92,0,0-22.52-15.23-57.89-8.93,0,0-13.49,39.1,11.9,43.84l-1.66-14.71s-6.84,24.9,22.51,19.85"/>
  <polygon class="cls-11" points="326.92 298.41 314.65 349.62 351.49 319 341.8 290.4 326.92 298.41"/>
  <path class="cls-11" d="M190.16,286.07s25.83,26.74,34.89,41.1l44.56,19.51-33.57-49.15-39.91-16.14-5.97,4.67Z"/>
  <path class="cls-10" d="M287.39,381.75s-5.57,124.46-17.78,149.58c0,0,34.96,1.94,54.21-3.77,0,0-13.46-72.1-10.38-172.47l-18.32,39.13-7.74-12.47Z"/>
  <g>
    <path class="cls-7" d="M364.6,281.12c-57.77,38.94-138.04,23.95-184.82-10.09-40.7-29.62-15.25-91.15-13.17-95.97-36.99-14.11-25.69-67.23,6.58-76.19,34.04-9.46,42.87,20.8,42.87,20.8,0,0,38.9-46.87,127.26-15.76h3.82c43.56,31.73,38.32,81.28,41.69,92.11,1.94,6.22,24.49,52.27-24.23,85.1Z"/>
    <g>
      <path class="cls-6" d="M413.66,62.57l-68.88,40.07c-33.29,4.83-52.13,15.89-52.13,15.89-23.93-8.19-51.14-3.84-64.88-4.62-13.68-.77-21.41.48-21.41.48-13.37.64-15.69-6.01-17.4-5.92h-.27s-62.6-33.31-62.6-33.31L277.67,5.89l135.99,56.68Z"/>
      <path class="cls-9" d="M292.2,114.07c-.49.02-1.13.2-1.5.44,0,0,.05-.02.05-.02l.11-.05.44-.19c17-7.33,35.05-11.14,52.85-15.91,0,0-3.53,5.56-3.53,5.55l-11.71-39.45,1.72,2.27c-6.75-3.78-14.06-6.8-21.45-9.14-7.48-2.31-15.17-3.89-22.9-4.47-15.86-.95-31.74,1.78-47.29,4.88-10.97,2.43-36.23,8.44-43.09,16.83-1.36,3.47-1.65,7.28-2.1,11-1.08,12.06-1.09,24.31-.1,36.39,0,0-5.95-4.23-5.95-4.23,8.59-2.91,17.24-5,26.12-6.71,24.79-4.64,50.88-5.5,75.33,1.49,1.06.3,2.01.77,3,1.32h0ZM293.1,122.97c-2.58-.48-5.36-1.36-7.92-2.05-22.67-6.17-46.71-5.17-69.65-.91-10.4,1.93-20.88,4.78-30.79,8.43,0,0,.07-6.33.07-6.33,1.44-12.37,2.22-24.58,3.84-36.9.51-3.66,1.02-7.4,2.13-10.98.5-1.89,1.95-3.74,3.28-4.84,5.8-4.79,12.92-7.52,19.76-10.28,7.73-3,15.6-5.52,23.56-7.75,30.91-8.49,56.29-11.47,86.37,2.3,4.38,2.01,8.53,4.26,12.59,6.92,0,0,.46,1.48.46,1.48,0,0,12.16,39.32,12.16,39.32,0,0,.91,5.5.91,5.5l-4.44.05c-8.96.16-17.91,1.96-26.45,4.58-8.19,2.59-16.26,5.77-23.47,10.46-.69.53-1.55.87-2.39,1h0Z"/>
      <polygon class="cls-9" points="344.54 102.2 412.22 60.1 412.56 65.21 276.05 9.78 279.42 9.73 126.97 77.07 127.03 73.27 170.12 96.38 169.68 97.28 125.16 77.05 121.08 75.19 125.22 73.24 275.92 2.05 277.58 1.26 279.29 2 414.76 59.93 420.22 62.26 415.1 65.04 345.04 103.06 344.54 102.2 344.54 102.2"/>
    </g>
    <path class="cls-7" d="M347.14,103.91c7.26-17.15,26.83-20.17,36.11-16.54,10.08,3.95,25.45,16.94,25.41,38.93-.05,25.44-24.58,35.29-24.58,35.29"/>
    <path class="cls-7" d="M173.19,177.04c-2.34-.53-4.54-1.19-6.58-1.98"/>
    <path class="cls-7" d="M166.74,174.76s-.05.1-.13.3"/>
    <path class="cls-9" d="M215.73,119.76c-4.67-12-15.71-21.89-28.9-21.85-12.63-.23-24.99,5.68-32.05,16.31-12.63,18.39-11.48,45.14,9.41,56.92,2.78,1.64,5.78,2.97,8.9,4.17l-.21.93c-6.88-.61-13.71-3.01-19.27-7.31-17.97-13.66-16.86-41.63-3.79-58.31,6.37-8.57,16.08-14.72,26.71-16.24,10.32-1.93,21.86.25,29.54,7.74,5.02,4.72,8.55,10.85,10.32,17.46,0,0-.67.19-.67.19h0Z"/>
    <g>
      <path class="cls-5" d="M363.21,115.67s7.11-9.85,17.26-3.94c7.99,4.65,11.23,14.17,8.87,21.57-2.36,7.4-9.76,9.45-9.76,9.45l-16.37-27.08Z"/>
      <path class="cls-9" d="M362.9,115.45c11.59-17.13,33.13,1.25,27.86,17.65-1.48,5.06-6.04,8.95-11.14,9.83,0,0-.1-.35-.1-.35,4.18-2.07,7.67-5.64,8.71-10.18,2.71-10.39-7.62-24.84-18.97-20.45-2.1.85-4.11,2.25-5.76,3.94l-.61-.44h0Z"/>
    </g>
    <path class="cls-9" d="M168.82,174.5c-10.95,27.06-16.75,63.25,4.64,86.65,3.44,3.75,7.46,6.73,11.71,9.59,46.88,30.9,110.87,40.26,162.35,15.6,17.87-8.77,35.57-21.98,42.19-41.41,4.95-14.41,3.43-30.27-.8-44.74-.75-2.56-1.89-5.11-2.18-7.81-.93-7.86-1.31-15.67-2.59-23.44-3.05-20.4-11.58-40.39-26.54-54.84-3.66-3.61-7.65-6.88-11.88-9.79l2.44-3.36c12.71,9.72,23.13,22.49,29.64,37.13,2.17,4.85,3.96,9.86,5.42,14.95,3.8,12.7,4.55,25.93,6.19,38.9.26,2.17,1.74,5.09,2.55,7.14,14.85,33.44,2.42,65.45-28,84.43-54.74,34.9-128.83,25.8-181.48-8.8-25.5-15.79-31.4-43.44-26.89-71.42,1.71-10.63,4.49-20.84,8.66-30.83,0,0,4.56,2.04,4.56,2.04h0Z"/>
    <path class="cls-9" d="M383.35,159c21.69-11.16,29.02-34,16.61-55.05-5.36-8.47-15.04-17.19-25.63-16.99-10.92-.08-21.69,5.97-26.47,16.07,0,0-1.84-.78-1.84-.78,5.03-14.65,22.83-23.13,37.59-18.47,2.98,1.08,5.65,2.57,8.19,4.28,21,14.02,26.58,45.78,7.61,63.82-4.37,4.22-9.32,7.54-15.01,9.76,0,0-1.06-2.64-1.06-2.64h0Z"/>
    <path class="cls-9" d="M351.14,151.35c7.14,1.83,9.21,7.2,11.55,5.36,2.34-1.84-3.85-10.38-8.2-12.39s-16.07-6.19-16.57,2.85c-.5,9.04,7.37,2.68,13.23,4.19Z"/>
    <path class="cls-9" d="M248.02,155.87c6.86-3.35,15.23-.33,14.73-4.69s-5.36-6.86-12.22-4.86-18.42,10.88-16.74,15.9c1.67,5.02,8.63-3.63,14.23-6.36Z"/>
    <ellipse class="cls-9" cx="348.48" cy="199.03" rx="12.83" ry="16.81"/>
    <ellipse class="cls-4" cx="352.31" cy="194.57" rx="3.55" ry="4.23"/>
    <ellipse class="cls-9" cx="257.05" cy="203.85" rx="12.83" ry="16.81"/>
    <ellipse class="cls-4" cx="260.89" cy="199.39" rx="3.58" ry="4.27"/>
    <ellipse class="cls-10" cx="373.28" cy="223.35" rx="13.88" ry="10.63" transform="translate(-32.03 65.39) rotate(-9.6)"/>
    <ellipse class="cls-10" cx="229.74" cy="231.29" rx="10.63" ry="13.88" transform="translate(-14.38 447.36) rotate(-86.7)"/>
    <ellipse class="cls-10" cx="307.66" cy="242.01" rx="42.89" ry="39.38"/>
    <path class="cls-9" d="M334.21,224.94c0,5.92-7.94,12.48-17.74,12.48s-17.74-6.55-17.74-12.48,7.94-10.73,17.74-10.73,17.74,4.8,17.74,10.73Z"/>
    <path class="cls-3" d="M330.13,224.19c0,4.23-5.67,8.91-12.66,8.91s-12.66-4.68-12.66-8.91,5.67-7.66,12.66-7.66,12.66,3.43,12.66,7.66Z"/>
    <path class="cls-8" d="M327.71,224.76c.89-.83-2.36-4.62-6.02-4.87s-7.13-.41-8.02.42,2.13,3.07,5.66,3.5c3.04.37,7.49,1.78,8.38.95Z"/>
    <path class="cls-9" d="M328.8,250.39c3.95-3.95,7.53-3.09,4.64,2.88-2.9,5.97-12.27,10.23-24.21,9.72s-22.5-5.45-27.79-10.23c-5.28-4.77-2.56-11.25,4.43-6.14,6.99,5.11,10.83,8.87,22.08,9.39s18.73-3.5,20.84-5.62Z"/>
    <path class="cls-7" d="M172.99,176.91c-36.99-14.11-32.27-69.21,0-78.17,34.04-9.46,42.87,21.24,42.87,21.24,0,0-44.95,61.76-42.87,56.94Z"/>
    <g>
      <path class="cls-5" d="M199.14,133.91s-12.33,8.94-16.34,22.82c0,0-27.53-10.11-12.95-28.68,13.07-16.65,24.98,0,29.3,5.86Z"/>
      <path class="cls-9" d="M199.37,133.94c-4.46,5.15-9.37,10.91-12.84,16.73-1.31,2.06-2.37,4.29-3.61,6.49,0,0-.22-.14-.22-.14-11.19-2.81-23.6-12.78-17.51-25.46.32-.71.8-1.61,1.22-2.27,2.28-3.6,5.06-6.76,9.06-8.87,10.4-5.34,19.72,5.01,23.91,13.51h0ZM198.91,133.87c-.5-.3-1.15-1.11-1.58-1.53-8.45-9.14-17.21-14.76-26.1-2.57-9.39,11.92,1.32,20.86,11.68,26.66,0,0-.42.21-.42.21,1.17-9.4,7.66-17.77,15.69-22.5,0,0,.41-.21.41-.21l.21-.1c.09-.06.03.03.12.05h0Z"/>
    </g>
    <path class="cls-11" d="M141.94,142.7c.8,5.38,2.5,58.97-6.25,61.21-7.39,1.89-6.53-6.09-6.53-6.09-1.46,9.1-11.81,6.26-15.11,4.03-3.19-2.17,1.06-11.41,1.33-11.98l-4.57,8.42c-7.56-.86-9.41-6.21-9.41-6.21l24.72-52.48c-2.62-2.7-4.16-6.44-3.97-10.49.32-6.95,5.62-12.5,12.28-13.36l5.55-32.12c6.6-6.71,12.22,2.08,12.22,2.08l-7.68,32.57c3.75,2.71,6.1,7.18,5.87,12.15-.26,5.54-3.68,10.19-8.44,12.28Z"/>
  </g>
  <path class="cls-9" d="M197.94,284.59c-23.09,8.77-42.54,26.59-54.3,48.22-7.18,13.3-12.76,27.46-17.56,41.78-4.13,12.81-7.54,26-9.42,39.32,0,0-1.33-.99-1.33-.99,2.82-1.68,5.78-2.88,8.87-3.89,21.43-6.8,47.4-2.34,63.39,14.04.01,0-2.27.67-2.27.67,3.2-15.94,8.54-31.14,12.45-46.86,3.11-12.19,5.47-24.43,7.05-36.96,0,0,1.97,0,1.97,0,.77,7.31.7,14.72.1,22.07-1.03,10.99-3.06,21.87-6.01,32.5-2.92,10.66-6.77,21-12.75,30.44,0,0-1.15,1.79-1.15,1.79l-1.12-1.12c-16.65-7-33.63-11.66-51.72-11.65-5.95-.09-12.03.2-18.13.82,0,0-1.41.58-1.42.58,0,0,.09-1.58.09-1.58,1.8-29.97,14.49-72.65,32-97.12,10.19-14.21,24.02-25.83,39.77-33.42,3.26-1.5,6.45-2.89,9.93-3.92,0,0,1.55,5.27,1.55,5.27h0Z"/>
  <path class="cls-9" d="M192.9,287.29c.17-.71-.23-1.79-.91-2.24,0,0,.01,0,.01,0l.02.02.09.06c11.02,7.93,20.56,17.8,28.75,28.61,2.78,3.63,5.31,7.45,7.77,11.33l-1.83-1.67s43.97,22.09,43.97,22.09l-3.57,3.8c-7.42-13.29-15.33-26.51-24.39-38.74-3.03-4.02-6.18-8-9.7-11.32l.9.56-37.16-14.18,2.27-.14c-2.03,1.14-3.86,1.27-6.21,1.81h0ZM187.42,286.97c2.96-2.55,6.64-5.18,10.23-6.92,0,0,1.16.44,1.16.44l37.16,14.18.51.2c7.83,7.52,13.69,16.3,19.6,25.2,5.65,8.69,10.91,17.53,15.94,26.61,0,0,4.05,7.37,4.05,7.37,0,0-7.63-3.57-7.63-3.57,0,0-45.15-19.56-45.15-19.56l-1.03-.45s-.8-1.22-.8-1.23c-8.28-14.89-19.05-28.6-32.28-39.4,0,0-.31-.24-.31-.24l-.08-.06c-.82-.52-1.41-1.74-1.38-2.58h0Z"/>
  <path class="cls-9" d="M328.41,300.41c.24-.17.41-.43.46-.7-.04.2-.19.93-.23,1.15-2.91,14.28-6.03,29.88-9.52,44.01-.54,2.18-1.13,4.35-1.87,6.63l-4.35-3.01,35.21-30.86-1.26,3.86c-1.03-4.81-2.15-9.67-3.36-14.45-1.19-4.44-2.2-9.02-4.12-13.16,0,0,3.2.76,3.2.76-4.67,2.02-9.35,3.92-14.15,5.77h0ZM324.14,296.96c5.98-2.83,12.13-5.61,18.25-8.23,0,0,1.19,1.62,1.19,1.62,3.06,4.46,4.4,9.84,6.22,14.84,1.77,5.58,3.71,11.14,5.02,16.86-6.52,5.21-39.47,31.49-45.45,36.27,0,0,2.69-8.64,2.69-8.64,1.29-4,2.3-8.41,3.28-12.58,2.57-11.16,5.31-24.45,7.59-35.7.11-.5.38-1.95.49-2.44.12-.67.35-1.44.72-2h0Z"/>
  <path class="cls-1" d="M269.61,347.99s17.96,29.6,25.52,46.23c0,0,15.07-31.1,19.52-43.62"/>
  <path class="cls-9" d="M125.79,412.75c-1.01.67-1.05,1.82-1.32,2.81-.74,3.04-1.14,6.19-1.36,9.3-.31,7.56-.67,16.28,3.71,22.45,2.12,2.97,5.26,4.66,8.79,5.7,0,0-1.01,5.4-1.01,5.4-4.93-.55-9.94-2.96-13.07-6.99-8.28-10.74-5.21-25.26-1.46-37.06.3-1.09.87-2.02.54-3.39l5.19,1.79h0Z"/>
  <path class="cls-9" d="M133.54,441.01c.11,5.59,1.03,12.21,5.78,15.26,4.62,2.84,10.72,2.2,16.16,1.86,0,0,.93,5.41.93,5.41-8.18,2.22-19.78,1.34-23.86-7.56-2.14-4.82-1.5-10.57.79-15.03,0,0,.21.06.21.06h0Z"/>
  <path class="cls-9" d="M152.5,444.79c.94,5.49,2.15,16.23,9.06,16.51,3.89-.04,8.45-2.18,9.96-6.07,2.45-6.89.22-14.44-1.51-21.34,0,0,.42-.22.42-.22,6.11,8.37,10.58,23.77-.45,30.2-10.21,5.43-18.22-.07-18.46-11.23-.06-2.68.15-5.32.83-7.86h.16Z"/>
  <path class="cls-9" d="M183.72,420.04c1,10.24,4.4,27.87-8.8,31.4,0,0-.6-5.46-.6-5.46,2.04.3,3.94-.54,5.17-2.42,3.53-6.21,1.46-15.71-1.05-22.03,0,0,5.29-1.49,5.29-1.49h0Z"/>
  <path class="cls-9" d="M146.4,461.92c-3.37,9.15-6.68,18.41-9.29,27.79-1.14,4.25-2.48,8.94-2.41,13.1.03.21.05.43.08.46,0,.05.06-.03-.21-.49-.16-.23-.47-.62-.87-.84-.07-.04,0,0,0,0,3.21,1.57,6.63,2.96,10.04,4.35,54.35,20.82,114,27.17,171.64,19.7,25.82-3.23,51.04-9.16,76.08-16.53,0,0-1.71,2.81-1.71,2.81-4.42-48.04-10.59-96.01-19.2-143.5-2.97-15.82-6.25-31.58-10.06-47.21l1.49-.39c16.27,62.49,25.78,126.5,33.24,190.58,0,0,.22,2.05.22,2.05,0,0-1.93.76-1.94.76-5.86,2.9-12.1,5.91-18.23,8.29-26.31,10.77-54.73,16.98-83.09,18.93-54.38,3.46-114.72-6.51-163.19-32.01-4.36-2.72-3.34-8.65-2.48-12.54,1.63-6.95,4.09-13.11,6.61-19.32,2.54-6.18,5.29-12.2,8.23-18.19l5.03,2.2h0Z"/>
  <g>
    <g>
      <path class="cls-4" d="M448.44,269.7s-26.83,2.2-41.89-13.23c-15.07-15.43,18.37-16.9,33.44-9.55,15.07,7.35,27.56,13.6,20.95,26.83s-27.19,44.83-39.32,74.23c-12.13,29.4-28.66,102.89-28.66,102.89,0,0-10.29,7.72-27.93,2.57s-25.36-19.84-25.36-19.84c0,0,25.72-53.28,33.07-76.8,7.35-23.52,28.91-95.8,30.01-107.62"/>
      <path class="cls-9" d="M448.5,270.48c-14.13,4.21-29.69,2.59-42.15-6.16-5.04-3.66-12.52-11.16-8.95-19.02,6.44-13.57,35.02-8.65,45.44-2.34,11.21,6.37,28.87,15.06,21.8,30.84-1.49,3.16-3.24,6.25-4.95,9.27-10.05,17.47-19.77,35.27-28.06,53.53-2.75,6.05-5.42,12.16-7.65,18.28-10.92,31.62-18.48,64.45-26.47,97.01,0,0-.28,1.62-.28,1.62l-1.48,1.11c-12.34,8.98-29.72,7.03-42.42-.17-8.3-4.83-15.08-12.15-19.08-20.89,13.26-25.82,26.43-52,35.52-79.61,9.83-32.97,19.78-66.18,26.88-99.84,0,0,.5-2.87.5-2.87l.3-2.55,10.57.99c-.29,1.94-.88,4.66-1.37,6.59-6.48,24.89-18.67,63.16-26.24,88.18-2.13,6.92-5.14,16.74-7.7,23.44-8.53,22.15-19.28,45.93-28.73,67.81,0,0-.07-4.32-.07-4.32.02.02.1.14.17.24,9.28,13.52,27.5,21.88,43.5,16.58.84-.3,1.83-.75,2.54-1.07,0,0-1.76,2.72-1.76,2.72,4.35-19.88,9.21-39.57,14.55-59.2,5.15-18.02,10.19-36.31,18.35-53.3,9.42-19.97,21.71-38.44,32.57-57.57,1.42-2.53,2.81-5.06,4.1-7.64,1.22-2.57,1.89-5.48.59-8.02-2.59-4.8-9.06-7.64-14.18-10.02-5.65-2.64-11.36-4.85-17.72-5.26-4.47-.41-9.03-.41-13.36.34-1.77.36-3.5.74-4.67,1.61.02,0-.05,0,.02-.04.05-.04.08-.08.1-.14.19-.22.29-.8.3-1.03,0-.06-.03-.15-.03-.17.33.95,2.07,2.99,3.26,4.02,4.69,4.52,10.48,7.61,17.14,10.13,5.91,2.27,12.33,3.88,19,5.38l.13,1.57h0Z"/>
    </g>
    <g>
      <path class="cls-11" d="M380.72,331.39s-5.42,4.6-7.95,9.49c-2.85,5.49-5.31,16.45,16.17,23,19.58,5.97,28.5,6.67,31,0s4.02-12.17,5.67-18.17c0,0-4.17,4.83-18,2.83-13.83-2-25.43-10.48-26.88-17.16Z"/>
      <path class="cls-9" d="M379.66,333.52c.51.2,1.3.28,2,.06.67-.16,1.36-.81,1.14-.62l-.06.06-.12.11c-1.27,1.19-2.58,2.55-3.69,3.88-11.77,13.81,2.06,20.2,14.73,23.6,3.88,1.12,7.78,2.16,11.59,2.8,3.76.64,7.6.96,10.01-.22,1.41-.62,2.45-1.95,3.36-3.22,3.67-4.81,4.14-11.12,6.84-16.49,0,0,.25.12.25.12-.31,1.23-1.04,2.3-1.89,3.25-4.4,4.63-11.39,5.55-17.41,4.95-11.13-1.14-25.76-7.87-28.77-19.67,0-.04-.04-.15.03.02.09.22.24.45.45.66.41.44,1.04.7,1.54.71h0ZM381.78,327.28c.89.39,1.97,1.52,2.31,2.57.11.3.05.15.13.28,1.85,2.71,4.5,4.64,7.32,6.43,6.54,4.11,14.36,6.64,22.01,7.66,3.97.52,8.13.87,11.94-.77,0,0,.27-.64.27-.65l-.02.76c-.12,4.3.47,8.36-.33,12.69-2.44,12.08-9.56,15.88-21.23,14.01-4.33-.67-8.42-1.72-12.46-2.87-6.1-1.71-12.94-3.87-18.12-8.2-11.43-9.68-5.37-22.6,4.32-30.73.15-.14.42-.36.57-.49-.2.17.51-.5,1.21-.69.73-.25,1.54-.19,2.08,0h0Z"/>
    </g>
  </g>
  <path class="cls-7" d="M403.83,391.48s-30.93-1.87-25.15-16.08c5.78-14.22,29.55-8.86,42.4,1.2,0,0-9.71,4.4,1.36-18.13,0,0,23.06,14.22,11.14,48.03-11.91,33.82-40.82,23.3-46.47,20.02s-10.65-10.22-8.29-20.26l18.99,6.24s-22.26-1.95-24.06-13.85c-1.56-10.28,5.82-15.44,5.82-15.44l24.26,8.26Z"/>
  <path class="cls-1" d="M354.15,286.07s19.88,13.03,31.79,29.46"/>
  <path class="cls-9" d="M397.79,412.84c-8.76-.31-20.02-2.01-25.08-10.1-3.64-6.89-1.74-16.37,4.47-21.19.26-.19.45-.34.83-.59l3.15,4.5c-3.48,3.35-5.44,8.16-4.92,13.02,1.22,8.37,14.33,12.01,21.62,13.68,0,0-.06.67-.06.67h0Z"/>
  <path class="cls-9" d="M403.81,391.93c-8.32,0-19.25-.94-25.46-7.14-4.73-4.86-1.84-12.91,3.02-16.51,11.57-8.51,30.8-1.01,39.91,8.08,0,0-.37.48-.37.48-8.74-4.94-18.48-8.41-28.41-7.87-3.13.23-6.15,1.08-8.42,2.8-2.12,1.58-3.87,4.49-4.01,7.04-.15,2.4,1.96,4.65,4.69,6.25,5.72,3.22,12.6,4.73,19.11,5.97,0,0-.05.91-.05.91h0Z"/>
  <path class="cls-9" d="M268.1,535.35c5.1-18.93,7.72-38.57,10.05-58.05,3.58-32.63,5.6-65.49,6.58-98.29,0,0,5.49.17,5.49.17-1.86,39.55-4.83,79.06-10.9,118.2-2.12,13.04-4.5,26.06-8.21,38.83l-3.02-.87h0Z"/>
  <path class="cls-9" d="M314.69,355.1c.04,29.42.77,58.88,2.36,88.26,1.7,29.23,3.78,58.73,9.47,87.43,0,0-5.38,1.08-5.38,1.08-7.59-43.8-8.35-88.26-9.07-132.56-.12-14.75-.12-29.48.14-44.24l2.48.03h0Z"/>
  <path class="cls-9" d="M254.2,317.78c9.46,5.29,19.37,10.21,29.67,13.66,3.43,1.11,6.92,2.08,10.43,2.49l-.61.09c9.33-4.57,19.12-9.56,26.43-17.01,0,0,3.99,3.98,3.99,3.98-2.22,2.02-4.57,3.62-6.96,5.1-7.12,4.31-14.68,7.57-22.46,10.44,0,0-.31.11-.31.11l-.3-.02c-11.31-.89-21.91-5.11-32.29-9.36-3.44-1.47-6.8-2.97-10.21-4.64l2.6-4.84h0Z"/>
  <g>
    <path class="cls-7" d="M359.96,384.4s-8.2-3.6-4.36-16.1c4.08-13.31,16.32-9.83,16.32-9.83l-11.95,25.93Z"/>
    <path class="cls-9" d="M360.63,386.18c-.37.2-1.29.1-1.52-.07,0,0-.06-.03-.06-.03l-.1-.05c-9.13-4.75-7.72-17.84-2.2-24.91,4.45-5.55,11.65-6.26,18.04-3.98-4.5,9.78-9.37,19.6-14.15,29.03h0ZM359.28,382.62c3.55-8.55,7.01-16.79,10.77-25.01l1.3,2.83c-.53-.1-1.34-.2-2.02-.22-5-.36-9.49,2.71-11.08,7.46-1.95,4.83-2.55,11.69,2.36,14.91.02.02.1.06.13.08-.21-.15-1.1-.25-1.45-.04h0Z"/>
  </g>
  <path class="cls-1" d="M422.45,358.47s23.06,14.22,11.14,48.03c-11.91,33.82-40.82,23.3-46.47,20.02-5.65-3.28-10.65-10.22-8.29-20.26"/>
  <g>
    <rect class="cls-2" x="214.21" y="356.47" width="57.13" height="27.91" rx="5.39" ry="5.39"/>
    <g>
      <path class="cls-12" d="M222.73,376.53v-12.22h1.9l2.5,5.88v-5.88h2.23v12.22h-1.83l-2.5-6.33v6.33h-2.31Z"/>
      <path class="cls-12" d="M230.6,376.53l2.31-12.22h3.08l2.28,12.22h-2.49l-.41-2.58h-1.79l-.42,2.58h-2.55ZM233.81,372.34h1.3l-.65-4.77-.65,4.77Z"/>
      <path class="cls-12" d="M239.5,376.53v-12.22h1.9l2.5,5.88v-5.88h2.23v12.22h-1.83l-2.5-6.33v6.33h-2.31Z"/>
      <path class="cls-12" d="M247.96,376.53v-12.22h1.9l2.5,5.88v-5.88h2.23v12.22h-1.83l-2.5-6.33v6.33h-2.31Z"/>
      <path class="cls-12" d="M257.96,376.53v-4.99l-2.32-7.22h2.55l1.16,3.86,1.04-3.86h2.44l-2.28,7.22v4.99h-2.59Z"/>
    </g>
  </g>
</svg>