<?xml version="1.0" encoding="UTF-8"?>
<svg id="Layer_8" xmlns="http://www.w3.org/2000/svg" viewBox="0 0 558.56 608.7">
  <defs>
    <style>
      .cls-1 {
        fill: #748596;
      }

      .cls-2, .cls-3 {
        fill: #fffaee;
      }

      .cls-4 {
        fill: none;
      }

      .cls-4, .cls-5, .cls-6 {
        stroke: #2e2f4c;
      }

      .cls-4, .cls-5, .cls-6, .cls-3 {
        stroke-miterlimit: 10;
      }

      .cls-7 {
        fill: #b87858;
      }

      .cls-8 {
        fill: #9ebfe0;
      }

      .cls-9, .cls-5 {
        fill: #7facb6;
      }

      .cls-10 {
        fill: #cc8562;
      }

      .cls-11 {
        fill: #add1f5;
      }

      .cls-6 {
        fill: #7098a1;
      }

      .cls-12 {
        fill: #2e2f4c;
      }

      .cls-13 {
        fill: #e5c7ce;
      }

      .cls-3 {
        stroke: #add1f5;
        stroke-width: 4.06px;
      }
    </style>
  </defs>
  <path class="cls-10" d="M340.86,546.3c-34.17,1.36-46.07-26.29-46.07-26.29h-52.54s-22.92,53.35-28.13,56.21c-5.21,2.86-18.49,8.85-52.09-3.39-33.6-12.24-36.98-22.92-33.86-36.46,3.13-13.54,20.57-14.84,35.16-9.64l-7.95-2.12,7.69-21.58,47.92-237.13,137.71-4.09s33.4,8.74,51.34,43.65c17.94,34.9,13.82,90.42-11.31,102.06,0,0-3.75,31.37-20.63,27.71l19.05,96.34s5.61,9.24,0,19.8c-5.61,10.56-23.15,37.82-51.82,36.31-25.09-1.32-41.32-16.68-16.39-44.74"/>
  <g>
    <path class="cls-5" d="M148.27,265.67h-20.65s-.74-9.36-7.72-13.96c-6.98-4.6-23.62-1.34-25.55-6.09-1.93-4.75-1.19-14.7,4.16-15.45s43.82-2.67,51.54,2.82c6.6,4.7,10.81,11.89,12.55,18.79.43,1.7-.79,3.36-2.53,3.5-4.25.33-11.28,2.14-11.8,10.39Z"/>
    <path class="cls-4" d="M111.35,249.22s2.9-7.46,1.49-19.88"/>
    <path class="cls-6" d="M106.34,248.79s-1.69,14.09-8.75,22.37c-7.06,8.29,5.33,10.37,9.61,7.21,4.52-3.34,16.46-17.4,17.88-20.87,0,0-2.42-5.16-7.14-6.8s-11.6-1.9-11.6-1.9Z"/>
    <g>
      <path class="cls-11" d="M148.6,284.52s4.77,9.21,7.08,20.68c2.31,11.46,9.33,72.91,6.99,94.23-2.12,19.3-10.47,19.82-17.73,19.82s-50.81.14-51.9-12.93c-1.09-13.07,7.24-55.02,26.38-90.56,0,0-5.47-12.68-5.22-20.13.25-7.46,11.96-11.24,11.96-11.24l22.44.14Z"/>
      <path class="cls-12" d="M148.72,284.32c4.77,8.15,7.7,17.34,9.09,26.66,2.42,15.38,4.28,30.82,5.73,46.32.56,6.2,1.05,12.41,1.4,18.65.34,6.24.59,12.48.41,18.82-.29,6.58-.9,13.15-4.16,19.2-3.86,7.14-11.11,8.2-18.46,7.81-6.26-.09-12.53-.37-18.8-.95-9.46-1.1-19.39-1.96-27.89-7.02-2.24-1.41-4.58-3.92-4.92-6.84-.39-4.09.07-8.16.53-12.13,2.06-15.54,6.24-30.73,11.36-45.49,4.18-11.78,9.1-23.31,15.05-34.33,0,0-.06,1.34-.06,1.34-2.36-6.12-4.35-12.28-4.78-18.89-.04-.83-.02-1.74.09-2.57,1.14-6.05,7.56-9.07,12.82-10.69,7.5-.08,15.09-.03,22.59.1h0ZM148.48,284.72c-7.39.02-15.08.01-22.26-.19-4.56,2.07-10.31,5.16-11.03,10.6-.07,3.84,1.06,7.56,2.25,11.25,1.1,3.2,2.33,6.38,3.7,9.44-5.95,11.08-10.9,22.7-14.96,34.63-5.65,17.43-10.8,35.5-11.25,53.88-.01.68.06,1.47.13,2.07.33,1.77,1.61,2.92,3.24,3.96,7.74,4.3,17.23,4.94,26.05,5.78,6.11.45,12.27.6,18.43.57,5.79.07,11.07.13,14.03-5.28,2.78-4.9,3.49-11.15,3.87-16.86.32-6.07.24-12.26.05-18.43-.2-6.17-.53-12.36-.94-18.54-1.04-15.45-2.33-30.91-4.26-46.28-1-9.17-3.68-18.13-7.02-26.6h0Z"/>
    </g>
    <path class="cls-6" d="M141.7,284.73c7.55-.13,9.23.1,9.51-4.95.24-4.22,2.13-14.11-3.98-14.11,0,0-20.63-.33-22.17,0s-2.72,1.23-3,4.8c-.17,2.14-.68,6.65-.31,10.4.22,2.28,2.39,3.44,4.85,3.52,4.55.15,12.28.38,15.11.34Z"/>
  </g>
  <g>
    <path class="cls-10" d="M117.57,355.91c-19.77,2.88-19.23,8.23-19.23,8.23h0s-9.79-13.42-9.54-23.78c.25-10.37,10.12-27.9,23.95-32.09,13.82-4.2,22.22,6.78,18.02,16.72l4.18,15.31-13.33,7.97-4.05,7.66Z"/>
    <path class="cls-10" d="M210.97,264.28l-25.32,105.24c-12.81,8.79-21.05,9.52-21.05,9.52l-2.24-33.74-4.83-15.14c-13.61-1.72-16.36-25.9-1.85-24.77,2.85.22,5.14.96,6.97,2.07l.02-.37c13.3-24.89,48.3-42.8,48.3-42.8Z"/>
    <path class="cls-12" d="M212.01,266.14c-9.24,5.26-18.22,11.37-26.51,18.09-7.13,5.97-13.95,12.45-19.09,20.21-.71,1.11-1.59,2.09-3.31,2.7l-.88-.47c-.32-1.73.19-3.09.88-4.31,9.45-15.47,24.13-27.09,39.5-36.31,2.38-1.43,4.77-2.75,7.32-4,0,0,2.09,4.09,2.09,4.09h0Z"/>
    <path class="cls-12" d="M162.83,343.57c-.23-.08-.58-.08-.86.05-.35.19-.33.22-.3.19,0,0,.03-.02.03-.02l.06-.05.12-.1c5.21-4.32,8.89-10.84,8.63-17.72,0-6.25-1.6-13.69-7.3-16.71-6.01-2.93-12.44-3.04-14.36,4.68-1.67,6.4,1.75,15,9.03,15.8,1.88,4.67,3.53,9.12,4.95,13.88h0ZM162.13,346.06c-1.91-5.12-3.63-10.54-5.07-15.74,0,0,.41.34.41.34-8.18-.66-12.62-9.78-11.39-17.3,1.95-14.06,20.96-13.33,25.91-1.6,2.35,5.49,1.93,11.53,1.04,17.12-1.11,6.45-4.95,12.07-9.44,16.67,0,0-.13.13-.13.13l-.07.07-.04.03s.03.02-.33.21c-.29.14-.65.15-.89.08h0Z"/>
    <path class="cls-12" d="M110.2,324.62c7.56-3.16,18.66-4.25,23.88,3.54,1.71,2.61,2.59,5.74,2.27,8.85-.67,6.28-6.28,11.74-12.66,11.69-1.54-.02-2.99-.68-4.37-1.28-3.73-1.66-7.39-3.44-10.91-5.52,0,0,.27-.63.27-.63,4.71,1.22,9.55,3.06,14.26,4.21,2.47.17,4.94-1.2,6.69-2.93,5.44-5.04,3.13-14.42-3.84-16.78-4.78-1.71-10.33-1.3-15.36-.42,0,0-.24-.73-.24-.73h0Z"/>
    <path class="cls-12" d="M122.16,346.78c1.9,7.25-2.9,12.72-10.2,12.88-3.66.39-7.77-1.2-10.7,1.72-1.41,1.23-2.07,3.32-2.62,5.03-1.55-2.29-3.08-4.7-4.35-7.11-3.89-7.3-7.55-15.78-5.24-24.19,3.61-14.05,14.34-29.77,30.37-29.72,7.12.02,13.91,6.13,13.7,13.42-.02,2.3-.7,4.53-1.88,6.37l-.92-.39c2.89-14.42-11.05-19-21.97-12.65-9.82,5.52-18.99,17.61-19.02,29.25.62,8.15,5.13,15.68,9.84,22.15,0,0-1.82.4-1.82.4.55-3.22,2.59-6.1,5.66-7.38,2.81-1.24,5.76-.75,8.61-1.09,6.06-.5,7.99-3.32,9.55-8.71,0,0,1,.02,1,.02h0Z"/>
    <path class="cls-12" d="M164.55,378.35c6.15-2.85,14.32-7.64,20.81-9.43,0,0,.57.82.57.82-1.22,1.66-2.7,3.03-4.3,4.24-4.88,3.48-10.86,6.06-16.99,5.37,0,0-.09-1-.09-1h0Z"/>
  </g>
  <g>
    <g>
      <path class="cls-9" d="M185.71,369.57s-62.26,108.93-39.69,122.74c62.61,38.31,197.99,33.67,201.49,5.5,5.7-45.85-18.21-123.48-18.21-123.48"/>
      <path class="cls-12" d="M186.14,369.82c-11.61,24.19-45.4,90.84-40.81,114.82.63,2.56,1.58,3.84,3.45,4.81,1.5.92,3.13,1.78,4.66,2.62,27.98,14.37,59.62,20.06,90.8,22.83,28.63,1.92,58.69,2.49,86.11-6.48,5.31-2.11,12.76-5.1,14-11.08,2.47-21.6-.13-43.81-3.43-65.25-3.11-19.36-7.25-38.59-12.1-57.61,0,0,.96-.29.96-.29,11.12,33.95,19.91,69.23,21.54,105.08-.06,3.5.13,7.81-.11,11.29,0,0-.53,7.56-.53,7.56-.38,3.18-1.97,6.05-4.15,8.3-10.7,10.27-29.24,13.13-43.22,15.31-39.56,4.78-80.17,1.88-118.57-8.83-13.21-3.85-26.34-8.85-38.31-15.84,0,0-1.64-.98-1.64-.98-2.17-1.2-4.18-3.17-5.24-5.32-5.75-11.65,1.23-30.84,5.26-42.32,6.95-18.62,15.85-36.28,25.4-53.65,4.79-8.63,9.76-17.14,15.05-25.47l.87.5h0Z"/>
    </g>
    <g>
      <path class="cls-9" d="M347.51,265.76s-33.94,39.36-18.21,108.57c0,0-52.36,21.71-143.6-4.76,0,0-22.43-32.04,25.29-103.67l16.72,6.6s-8.3,13.76-11.24,29.04c0,0,36.27,8.62,84.08,6.27,0,0,4.99-21.58,15.62-34.31l31.34-7.75Z"/>
      <path class="cls-12" d="M347.93,265.5c.05.11.07.36-.02.55-.12.22-.11.18-.14.22,0,0-.11.19-.11.19,0,0-.22.38-.22.38,0,0-.43.77-.43.77-10.68,19.85-16.15,42.23-17.37,64.63-.92,13.99-.16,27.96.14,41.96,0,0,.09.35.09.35,0,0-.39.23-.39.23-5.43,3.05-11.29,5.16-17.24,6.9-23.83,6.81-49.25,7.22-73.66,3.75-18.28-2.59-36.22-7.72-53.02-15.39-2.03-1.66-3.29-3.99-4.55-6.22-3.02-6.06-4.24-12.86-4.44-19.59.01-12.64,3.38-25.11,8.22-36.72,6.24-15.22,15.35-29.27,25.79-41.9,0,0,.26-.32.26-.32,0,0,.34.13.34.13,0,0,16.72,6.6,16.72,6.6,0,0,.55.22.55.22-4.8,9.28-8.21,19.4-9.71,29.72,0,.01-1.73-2.68-1.73-2.68,20.03,1.37,42.42,3.51,62.47,4.73,6.96.55,13.93.86,20.97,1.6,0,0-2.02,1.69-2.02,1.69,2.61-11.87,7.26-23.45,14.82-33.03.56-.61,1.28-1.1,2.53-1.1,0,0,.01,0,.01,0,0,0,.08-.12.08-.12l.18-.04c9.3-2.4,22.43-5.3,31.89-7.52h0ZM347.08,266.02c-8.72,2.21-23.02,6.27-30.53,7.82.29,1.25.03,2.01-.38,2.65-1.32,1.87-2.43,3.88-3.53,5.9-4.48,8.63-7.64,18.01-10.38,27.31-14.58,2.84-29.51,3.26-44.3,2.3-15.08-1.09-30.08-3.46-44.26-9.07,2.71-10.93,7.44-21.29,13.58-30.69,0,0,.24.72.24.72,0,0-16.72-6.6-16.72-6.6,0,0,.6-.19.6-.19-1.99,4.23-4.06,8.38-6.21,12.46-1.78,3.56-4.1,8.85-5.88,12.48-1.81,4.11-3.55,8.5-5.29,12.63,0,0-2.27,6.41-2.27,6.41-3.85,10.48-6.32,21.67-7.21,32.62-.76,8.82-.76,17.89,1.57,26.49,0,0-.28-.2-.27-.19,9.19.88,18.04,2.45,27.12,3.53,28.09,3.87,56.46,6.32,84.83,4.85,10.46-.57,21.04-1.55,31.31-3.6,0,0-.3.6-.3.57-2.94-6.63-5-13.65-6.26-20.79-5.24-29.77,2.3-64.53,23.24-86.95.38-.39.75-.74,1.15-1.1.03-.01.08-.11,0,.05-.05.13.03.32.12.38h0Z"/>
    </g>
  </g>
  <path class="cls-10" d="M394.94,145.96c17.98-4.26,28.83-25.05,28.86-41.63.03-21.29-19.02-41.96-45.74-41.96-26.71,0-33.84,30.87-33.84,30.87"/>
  <path class="cls-10" d="M171.89,133.5s-29.91-16.18-26.12-41.82c3.8-25.63,25.16-37.98,41.77-37.03,16.61.95,27.53,16.61,27.53,16.61"/>
  <path class="cls-10" d="M349.14,79.44s-50.64-26.77-92.41-20.12c-41.77,6.65-61.12,22.31-78.5,53.17-17.39,30.86,1.13,40.35-7.42,54.12-8.54,13.77-29.17,48.42-.34,74.05,28.83,25.63,81.04,51.27,153.68,31.33,72.63-19.94,78.33-78.33,81.18-94.47,2.85-16.14,0-36.26,0-36.26"/>
  <path class="cls-12" d="M343.25,92.5c2.63-15.34,13.16-30.89,29.35-33.62,9.11-1.47,18.69.02,27.11,3.68,10.8,4.66,19.72,13.5,24.44,24.28.58,1.59,1.56,3.95,1.91,5.61,2.06,7.07,1.76,14.74-.07,21.82-3.97,14.74-15.02,29.46-30.93,31.73,0,0-.26-1.09-.26-1.09,3.32-1.27,6.37-2.98,9.06-5.1,10.47-8.51,16.19-22.37,16.2-35.69-.21-9.81-4.69-19.07-11.6-25.99-9-8.95-22.19-13.64-34.84-12.55-6.93.81-13.16,4.42-17.88,9.61-4.58,4.96-8.12,11.22-10.55,17.75,0,0-1.95-.45-1.95-.45h0Z"/>
  <path class="cls-12" d="M171.01,134.62c-14.39-7.08-27.91-19.84-29.55-36.71-.68-10.16,2.43-20.27,8.12-28.74,9.43-13.94,27.82-22.7,44.57-18.06,6.54,1.91,12.27,5.72,16.99,10.43,2.36,2.39,4.36,4.75,6.2,7.64,0,0-4.51,3.14-4.51,3.14-.84-.96-1.89-2.07-2.92-3.03-6.86-6.58-15.9-11.77-25.65-10.88-10.78.86-21.05,7.07-27.25,15.93-4.56,6.57-7.57,14.91-7.45,23.03.69,14.36,12.01,25.93,23.21,33.99,0,0-1.76,3.26-1.76,3.26h0Z"/>
  <g>
    <path class="cls-7" d="M194.53,87.05s-8.04-4.7-13.12-4.38-11.44,4.61-13.21,14.93c-1.77,10.32,8.23,16.62,8.23,16.62l18.1-27.17Z"/>
    <path class="cls-12" d="M175.69,115.4c-5.54-3.13-9.9-8.85-9.99-15.43-.01-8.94,5.96-19.3,15.84-19.56,5.14.16,9.57,2.65,13.75,5.35,0,0-1.51,2.58-1.51,2.58-5.34-2.16-11.93-5.57-17.13-1.4-4.45,3.4-7.05,10.39-6.09,15.92.76,3.8,3.44,7.47,6.61,10.19l-1.48,2.35h0Z"/>
  </g>
  <path class="cls-12" d="M407.48,140.45c3.04,13.93,3.47,28.41.73,42.44-2.23,13.94-6.32,28-13.33,40.63-21.45,39.69-66.55,53.63-108.84,56.67-35.03,2.27-70.89-6.49-100.04-26.27-14.38-9.89-30.49-21.85-32.86-40.54-2.17-17.61,6.17-34.29,15.14-48.78,3.93-6.03,2.03-13.42,1.47-20.4-.72-7.09-.39-14.57,1.4-21.58,14.67-58.42,89.14-75.7,141.1-63.05,13.79,3.57,27.33,9.01,38.69,17.81,0,0-3.6,4.15-3.6,4.15-16.01-12.54-36.33-18.91-56.42-20.88-45.26-4.17-103.45,13.74-114.66,63.18-1.52,6.51-1.73,13.12-.97,19.83.35,3.38.92,6.8,1.12,10.53.34,4.81-.73,9.99-3.49,14.07-13.86,21.38-23.2,50.9-1.66,70.68,36.19,32.74,87.55,44.22,134.89,34.35,19.97-3.76,39.99-10.85,56.06-23.29,24.29-18.4,35.24-43.99,39.34-73.54,2.03-11.64,1.93-23.58,1.59-35.39,0,0,4.35-.62,4.35-.62h0Z"/>
  <g>
    <path class="cls-7" d="M363.58,105.68s5.1-21.89,22.49-15,13.56,33.29-2.07,35.69l-20.43-20.69Z"/>
    <path class="cls-12" d="M363.27,106.31l-.17-.49c-.06-.27.07-.63.1-.9,1.94-10.58,9.82-20.29,21.64-16.9,15.41,3.69,18.97,23.95,8.6,34.69-2.55,2.67-6.04,4.13-9.58,4.66,0,0-.51-.37-.51-.37-7.77-5.84-14.06-13.09-20.08-20.69h0ZM363.86,105.29c.65.31,1.01.42,1.68.97,7.27,5.54,13.87,11.97,19.14,19.47,0,0-.8-.27-.8-.27,3.01-.62,5.66-2.28,7.62-4.54,5.75-6.72,5.68-18.32-.56-24.39-3.83-3.83-10.24-6.5-15.56-4.55-4.1,1.47-7.26,5.55-9.34,9.46-.71,1.33-1.36,2.81-1.9,4.23-.06.17.01-.04-.06-.13,0,0-.21-.23-.21-.23h0Z"/>
  </g>
  <path class="cls-12" d="M203.25,132.66c8.44-3.41,14.22-.66,14.98-2.46s-2.28-7.39-5.59-7.21-10.24,1.14-14.32,6.35c-4.08,5.21-4.17,10.81-.66,8.15,3.51-2.65,2.91-3.75,5.59-4.84Z"/>
  <path class="cls-12" d="M305.86,132.55c-6.07-1.28-12.11.88-9.46-4.24s14.23-3.27,18.21,0c3.98,3.27,9.99,15.38,4.77,13.35s-5.57-7.42-13.52-9.1Z"/>
  <path class="cls-13" d="M288.2,215.92c1.49,19.01-13.68,38.63-35.48,38.63s-45.22-8.64-46.32-37.84c-.72-19.06,17.58-36.27,39.38-36.27,21.8,0,40.85,15.39,42.42,35.48Z"/>
  <path class="cls-12" d="M257.29,199.63c0,6.05-9.15,13.47-18.99,13.47s-17.79-7.54-16.63-13.47c1.19-6.08,8.33-10.38,18.17-10.38s17.45,4.33,17.45,10.38Z"/>
  <path class="cls-1" d="M248.9,199.75c0,3.42-4.74,7.82-10.59,7.82-5.85,0-10.59-4.4-10.59-7.82s4.74-6.19,10.59-6.19c5.85,0,10.59,2.77,10.59,6.19Z"/>
  <ellipse class="cls-11" cx="238.31" cy="198.53" rx="7.74" ry="3.58"/>
  <path class="cls-12" d="M244.48,236.86c9.33.51,19.79-4.59,22.98-7.27,3.48-2.93,6.93-7.21,4-8.36-1.51-.59-5.76,4.98-9.2,7.16s-12.63,5.91-22.82,3.64c-6.35-1.41-12-4.82-14.72-7.26-1.6-1.44-4.49-4.68-5.45-1.72s3.82,6.66,5.78,8.02c2.07,1.43,10.83,5.32,19.43,5.79Z"/>
  <ellipse class="cls-12" cx="300.55" cy="181.38" rx="13.7" ry="17.15"/>
  <ellipse class="cls-2" cx="304.61" cy="177.1" rx="4.06" ry="4.99"/>
  <ellipse class="cls-12" cx="208.35" cy="177.1" rx="16.46" ry="13.21" transform="translate(18.05 373.46) rotate(-86.26)"/>
  <ellipse class="cls-2" cx="212.41" cy="173" rx="4.06" ry="4.99"/>
  <path class="cls-13" d="M341.4,213.1c0,6.62-6.08,11.99-13.58,11.99-7.5,0-13.58-5.37-13.58-11.99s6.08-11.99,13.58-11.99c7.5,0,13.58,5.37,13.58,11.99Z"/>
  <path class="cls-13" d="M196.07,202.78c0,6.62-6.08,11.99-13.58,11.99-7.5,0-13.58-5.37-13.58-11.99s6.08-11.99,13.58-11.99c7.5,0,13.58,5.37,13.58,11.99Z"/>
  <path class="cls-12" d="M338.83,323.48c2.57,5.59,5.58,11.11,8.98,16.22,3.24,4.81,7.08,9.74,11.74,12.96,0,0-4.75,5.98-4.75,5.98-7.35-7.05-11.37-16.18-14.95-25.41-1.11-2.99-2.13-5.98-3.01-9.06l1.99-.7h0Z"/>
  <path class="cls-12" d="M299.25,517.38c5.08,12.28,16.04,21.81,28.86,25.41,4.4,1.24,9.02,1.9,13.68,2.01l.03.76c-9.52.96-19.41-.39-28.09-4.73-8.92-4.43-16.68-11.64-21.5-20.43,0,0,7.02-3.02,7.02-3.02h0Z"/>
  <path class="cls-12" d="M391.37,528.47c2.25,5.19,2.78,11.09,1.53,16.58-1.19,5.08-4.13,9.46-6.9,13.8-9.24,13.77-22.2,26.45-39.05,29.88-6.75,1.38-13.64,1.01-20.42-.15-3.38-.61-6.79-1.52-10.09-3.05-11.96-5.28-16.1-17.2-10.68-29.06,2.77-6.29,7.27-11.73,12.32-16.25,0,0,3.62,3.21,3.62,3.21-5.64,8.58-14.41,20.74-7.85,30.39,6.84,8.78,21.48,10.96,32.02,9.23,18.44-3.34,32.25-18.96,40.4-35.07,2.21-4.91,1.84-10.87-1.22-15.29-.08-.1-.21-.28-.22-.25,0,0,6.53-3.96,6.53-3.96h0Z"/>
  <path class="cls-12" d="M325.68,558.69c-5.46,3.71-7.64,10.7-6.12,16.92.35,1.78,1.28,4.17,2,5.84,0,0-7.32,2.18-7.32,2.18-1.27-7.41-.38-16,5.29-21.4,1.75-1.72,3.8-3.05,6.03-3.82,0,0,.13.29.13.29h0Z"/>
  <path class="cls-12" d="M342.9,561.36c-3.31,4.01-4.72,9.36-4.15,14.43.14.74.25,1.56.41,2.29.13.48.5,1.76.63,2.22.63,1.71,1.4,3.31,2.26,4.89,0,0-7.08,2.87-7.08,2.87-.44-1.82-.89-3.81-1.06-5.68-.66-5.59.52-11.62,3.69-16.28,1.35-2.03,2.98-3.81,4.93-5.2,0,0,.38.46.38.46h0Z"/>
  <path class="cls-3" d="M173.62,123.75c-.3,1.2,1.05,2.12,2.06,1.41,10.76-7.63,51.35-33.84,97.75-31.11,49.01,2.88,119.29,59.05,132.38,69.85.87.72,2.17.1,2.17-1.02,0-3.63-.13-10.32-.92-17.34-.1-.89-1.03-1.42-1.85-1.07-2.06.89-5.57,2.34-7.52,2.81-.46.11-.95-.03-1.28-.37l-51.26-53.12c-.39-.41-.49-1.02-.23-1.53l5.8-11.39c.29-.58.14-1.28-.38-1.67-7.38-5.53-60.36-41.99-133.05-7.54-31.85,15.1-41.29,42.45-43.69,52.06Z"/>
  <g>
    <path class="cls-8" d="M443.39,495s-.76,10.6-10.6,12.87c-9.84,2.27-13.62,2.65-16.46,6.43,0,0,.94,14.39-10.79,15.9-11.55,1.49-15.16.86-22.19,2.57l-.14.08c-12.11,3.03-18.92,3.03-24.6,0-1.52-.82-2.8-8.19-3.86-18.56-2.18-.13-6.33-.75-9.77-3.39-4.92-3.79-.38-38.99,0-51.86.38-12.86,5.68-23.46,5.68-23.46l34.82-19.69,3.79-16.28s19.3,2.27,29.52,23.85c10.22,21.57,11.35,58.28,24.6,71.53Z"/>
    <path class="cls-11" d="M389.32,399.13c14.79,2.34,26.69,13.92,32.09,27.54,5.53,13.45,8.01,27.98,11.89,41.83,2.56,8.71,5.28,18.44,11.64,24.96,0,0,.76.81.76.81l-.12.91c-.85,6.67-5.82,13.03-12.6,14.05-2.95.54-5.92,1-8.8,1.61-2.82.59-5.6,1.46-7.45,3.79,0,0-.49.59-.49.59-4.25-7.93-7.81-16.19-10.84-24.7-2.36-6.75-4.35-13.76-5.28-20.91-.11-1.01-.51-3.71-.64-4.75-2.05-12.65-4.84-25.26-8.64-37.5-1.42-3.81-2.52-8.18-5.58-10.99-.03-.01.48,0,.47-.01,0,0-34.82,19.68-34.82,19.68,0,0,.2-.21.2-.21-2.71,6.77-4.4,14.01-4.72,21.21,0,0-.13,5.53-.13,5.53-.11,3.75-.7,12.76-.91,16.63-.43,9.11-1.32,18.26-.15,27.2.18,1.07.44,2.15.95,2.9,2.7,2.17,6.29,3.43,10.1,4.55,0,0,.06,1,.06,1-4.52,1.28-9.59.33-13.12-2.95-2.28-3.11-2.07-7.06-2.35-10.61-.3-12.79,1.52-26.2,2.56-38.88.37-9.38,2.47-18.86,6.9-27.16.46-.28,34.72-19.61,35.17-19.88,2.32.94,3.84,2.95,5.22,4.89,3.67,5.59,6.03,11.87,8.05,18.19,3.32,10.46,5.29,21.3,6.38,32.22,1.97,14.91,6.98,29.18,11.68,43.46,0,0-.88-.09-.85-.1,3.62-5.16,10.94-5.55,16.44-7.42,5.27-1.33,8.57-6.5,8.82-11.74,0,0,.64,1.71.64,1.71-7.02-7.66-9.42-17.58-11.96-27.17-2.32-9.43-4.04-18.91-6.38-28.2-2.36-9.24-5.18-18.54-10.95-26.06-5.65-7.49-14.06-13.24-23.34-15,0,0,.12-.99.12-.99h0Z"/>
    <path class="cls-11" d="M359.11,437.5c-.2,17.21-.63,43.46-.58,60.45.04,7.52.13,15.03.56,22.51.28,3.4.37,7.34,1.48,10.37-.06-.16-.37-.41-.6-.51,0,0,.09.04.09.04,2.57,1.32,5.25,1.87,8.26,2.02,4.08.2,8.52-.24,12.66-.79.28-.05,1.11-.16,1.39-.2,0,0,.23-.03.23-.03.04.01.07-.06.13.03,0,0,.06.1.06.1.14.33.17.47.31.86,0,0-.38.51-.38.51-1.34-7.09-2.14-14.21-2.88-21.33-1.88-19.55-2.39-39.22-3.08-58.84-.09-1.76-.15-3.59-.44-5.22,0,0,.93-.36.93-.36,2.44,6.89,3.06,14.13,4.09,21.3,2.44,21.35,4,42.92,2.38,64.39,0,0-.1,1.08-.1,1.08,0,0-.28-.57-.28-.57.04.36.14.72.12,1.02-.01.11-.07.06-.1.09,0,0-.23.08-.23.08-7.97,2.75-17.25,5.26-25.26,1.16-2.82-1.04-3.29-4.83-3.63-7.15-.64-5.22-.68-10.26-.73-15.45.09-20.24,1.39-40.42,3.15-60.57.44-5.03.89-10.05,1.45-15.08,0,0,1,.06,1,.06h0Z"/>
    <path class="cls-11" d="M416.83,514.27c.47,6.56-2.08,14.45-9.02,16.49-7.99,1.97-16.52,1.46-24.39,3.7,0,0-.8-3.2-.8-3.2,3.69-.86,7.52-1.14,11.17-1.29,3.66-.16,7.28-.38,10.91-.74,1.77-.14,3.35-.48,4.88-1.31,4.69-2.6,6.23-8.46,6.25-13.57,0,0,1-.07,1-.07h0Z"/>
    <path class="cls-11" d="M387.3,407.99c4.62,1.44,8.78,3.86,12.68,6.62,2.82,2.16,5.99,4.34,7.73,7.51,2.89,5.13,3.67,11.16,4.13,16.77.3,4.51.28,9.01-.05,13.49,0,0-.28-.01-.28-.01-.39-8.67-1.39-17.91-5.09-25.74-1.42-3.01-3.44-4.94-6.13-6.56-4.36-2.83-9.19-5.26-14.27-6.36,0,0,1.28-5.72,1.28-5.72h0Z"/>
  </g>
  <path class="cls-10" d="M395.14,305.16c17.94,34.9,19.75,87.57-5.38,99.21,0,0-10.36,41.54-27.44,29.29"/>
  <path class="cls-10" d="M371.75,413.74s-.43,16.81-12.95,19.06c-11.1,1.99-14.44-4.24-14.44-4.24l10.03-17.96s-8.53,22.6-19.56,17.32c-10.13-4.85-4.14-21.04,1.9-30.33l-8.06,17.8s-13.24-4.94-9.33-17.8c3.91-12.87,19.92-18.73,19.92-18.73,0,0,5.62-21.02,27.62-30.91"/>
  <path class="cls-12" d="M350.01,259.35c13.32,2.92,25.42,9.92,35.59,18.87,13.14,11.74,22.23,27.77,26.38,44.8,5.95,24.32,5.76,58.4-11.78,78.03-2.74,2.91-6.08,5.33-9.81,6.86l.91-1.08c-2.62,9.83-10.87,33.52-24.02,30.27-2.54-.54-4.5-1.64-7.17-.33,0,0,4.45-6.21,4.45-6.21-.76,2.54.87,3.94,3.09,4.16,11.16-.43,17.57-19.61,20.45-28.72,0,0,.13-.68.13-.68,0,0,.77-.41.77-.41,6.28-3.36,10.52-9.42,13.39-15.83,5.72-13.28,6.81-28.33,5.85-42.69-1.55-23.5-10.34-46.6-27.33-63.22-3.81-3.83-8.05-7.38-12.46-10.51-5.93-4.17-12.42-7.91-19.14-10.6,0,0,.71-2.72.71-2.72h0Z"/>
  <path class="cls-12" d="M371.7,415.78c.63,7.02-1.39,15.32-7.71,19.44-6.47,3.87-16.59,4.09-21.4-2.54-.19-.34-.34-.48-.53-.9,0,0,4.46-2.38,4.46-2.38-.05-.1.03.01.05.03.34.36.72.7,1.13,1,2.83,2.07,6.53,2.34,10.03,2.03,8.42-.41,12.28-9.42,13.98-16.69h0Z"/>
  <path class="cls-12" d="M354.5,412.7c-1.42,7.82-5.56,17.83-13.82,20.53-7.05,2.05-14.03-4.32-14.06-11.3-.23-8.6,4.2-16.5,9.74-22.5,0,0,.58.38.58.38-2.6,7.12-6.85,17.43-4,24.49,6.85,10.84,16.83-5.79,21.19-11.74,0,0,.37.14.37.14h0Z"/>
  <path class="cls-12" d="M330.04,417.36c-7.58-.48-15.24-6.36-14.64-14.61.73-9.69,8.51-17.26,16.87-21.2,2.04-.95,4.05-1.74,6.31-2.29,0,0-1.08,1.18-1.08,1.18,2.94-14.6,14.85-26.9,28.98-31.17,0,0,.63,1.4.63,1.4-12.49,7.97-20.66,18.37-26.76,31.72,0,0-.58.12-.58.12-3.4,2.02-6.82,4.34-9.68,6.96-4.58,4.15-10.32,11.61-7.46,17.98,1.48,3.02,5.02,5.24,8.09,6.77,0,0-.69,3.13-.69,3.13h0Z"/>
  <g>
    <g>
      <path class="cls-2" d="M293.25,58.51s11.07-13.41,31.86-11.23c20.79,2.18,28.29,8.95,31.91,10.15,0,0-12.57,16.68-18.86,20.79-6.29,4.11-21.28,13.01-44.24,5.66l-.67-25.37Z"/>
      <path class="cls-11" d="M292.78,58.35c7.3-9.64,20.04-14.02,31.88-13.07,10.16.84,20.6,3.29,29.03,9.29,1.41.91,2.6,2.02,4.08,2.64-4.88,7.32-10.06,14.59-16.5,20.68-12.98,10.89-32.14,13.89-47.48,6.47,0,0-.34-.13-.35-.13,0,0,0-.33,0-.33l-.64-25.55h0ZM293.72,58.67s.7,25.2.7,25.2l-.35-.46c11.96,2.16,24.23,2.47,35.43-2.49,5.59-2.34,10.39-5.58,14.61-10.14,4.3-4.37,8.4-9.02,12.52-13.65,0,0,.25.79.24.77-5.5-1.67-10.5-4.29-16.09-5.61-6.04-1.61-12.27-2.83-18.52-3.26-.51-.06-1.54-.1-2.05-.07-9.63-.21-19.3,3.45-26.48,9.72h0Z"/>
    </g>
    <g>
      <path class="cls-2" d="M273.43,55.07s-3.55-11.82-20.5-12.44c-16.95-.62-29.77,10.45-37.84,10.81,0,0-.21,11.46,12.41,18.31,12.61,6.86,21.8,9.82,37.99,8.34l7.95-25.02Z"/>
      <path class="cls-11" d="M272.93,55.07s-.04.03-.05.04c-.02,0-.05-.06-.07-.08l-.15-.2c-.19-.23-.74-.91-.95-1.14-3.7-4.12-8.91-6.63-14.32-7.47,0,0-1.8-.29-1.8-.29-.62-.05-2.17-.17-2.77-.23-7.46-.24-14.44,1.58-21.62,4.17-5.16,1.65-10.47,4.33-16.08,4.06,0,0,.48-.49.48-.49,1.05,7.49,6.42,13.68,13.13,16.87,6.76,3.52,13.9,6.41,21.38,7.64,5.09.9,10.15,1.15,15.34,1.63,0,0-.43.35-.43.35l7.92-24.87h0ZM273.93,55.07l-7.97,25.17s-.09.27-.09.27l-.34.07c-10.36,2.99-21.9,1.44-31.5-3.31-4.87-2.43-9.82-4.8-13.61-8.82-3.83-4.13-6.23-9.71-5.81-15.38,5.34-1.41,9.84-4.82,14.8-7.29,7.21-3.79,15.34-6.5,23.62-6.23,3.34.12,6.69.68,9.85,2.02,5.56,2.28,10.49,7.32,11.04,13.49h0Z"/>
    </g>
    <g>
      <path class="cls-2" d="M298.27,71.75c0,10.11-7.77,18.31-17.35,18.31-9.58,0-17.35-8.2-17.35-18.31s7.77-18.31,17.35-18.31c9.58,0,17.35,8.2,17.35,18.31Z"/>
      <path class="cls-11" d="M299.27,71.75c.37,17.32-19.66,27.02-31.83,13.75-6.82-7.47-6.54-19.91.52-27.02,11.73-12.12,31.03-2.97,31.31,13.27h0ZM297.27,71.75c.45-12.04-11.44-21.68-22.9-16.3-13.07,6.23-12.78,25.9.39,31.74,10.7,4.7,22.41-4.01,22.51-15.44h0Z"/>
    </g>
    <path class="cls-11" d="M297.87,70.89c3.45-9.04,15.01-12.73,23.93-11.75,1.33.21,2.64.47,3.95.91l.08,1c-2.3,1.3-4.64,2.14-7.02,3.05-3.87,1.44-9.38,3.33-13.3,4.76-2.19.82-4.44,1.65-6.84,2.64l-.79-.61h0Z"/>
    <path class="cls-11" d="M263.75,68.62c-5.45-3.11-10.93-6.56-16.78-8.85,0,0,.14-.99.14-.99,1.69.05,3.29.32,4.9.58,4.8.85,9.51,1.92,14.27,3.06,0,0-2.53,6.19-2.53,6.19h0Z"/>
  </g>
  <path class="cls-12" d="M243.66,519.09c-6.27,16.78-12.74,33.31-20.78,49.39-1.45,2.69-2.9,5.69-5.03,8.09-.41.46-.94.85-1.47,1.18-13.62,7.73-30.69,4.67-44.98.78-8.71-2.5-17.46-5.67-25.64-9.58-12.41-6.16-23.81-14.88-21.61-30.41,1.16-15.02,13.78-21.04,27.31-18.53,4.64.85,9.09,2.56,13,5.15,0,0-.34.94-.34.94-9.96-.79-26.83-1.89-30.53,9.34-2.18,7.73-1.09,13.98,5.55,19.41,5.44,4.52,12.54,7.87,19.15,10.73,3.82,1.59,8.28,3.25,12.2,4.61,13.83,4.23,29.45,8.86,43.07,2.38,0,0,.09-.04.09-.04.02-.01,0,0,0,0-.03-.02-.07.07-.02.03,0,0,.09-.09.09-.09,0,0,.18-.18.18-.18,1.66-1.88,2.93-4.11,4.31-6.37,4.38-7.57,8.5-15.47,12.52-23.38,4.05-7.91,8.02-15.87,12.02-23.82,0,0,.92.39.92.39h0Z"/>
  <path class="cls-12" d="M165.45,502.43c-.36,7.71-3.2,15.32-7.66,21.59,0,0-2.9-1.04-2.9-1.04.12-3.94,1.11-7.64,2.37-11.31,1.32-3.66,2.89-7.15,5.35-10.25,0,0,2.85,1.02,2.85,1.02h0Z"/>
  <path class="cls-12" d="M153.73,534.96c-6.55,2.5-11.68,8.43-12.48,15.42-.03.62-.14,2.13-.16,2.74,0,0,.06.92.06.92.03,1.79.43,3.74.75,5.48,0,0-6.23.92-6.23.92-.02-1.49-.09-2.96-.04-4.43.07-.75.26-2.61.34-3.33,1.29-7.89,6.08-14.39,13.51-17.42,1.3-.55,2.61-.97,4.02-1.26,0,0,.24.97.24.97h0Z"/>
  <path class="cls-12" d="M167.66,543.24c-3.76,3.04-6.94,7.14-8.62,11.62-1.67,4.25-1.51,8.79-.02,12.96,0,0-7.56,1.75-7.56,1.75-.27-2.97-.37-5.96.37-8.84,1.78-8.24,8.04-14.71,15.34-18.36,0,0,.5.86.5.86h0Z"/>
</svg>