<?xml version="1.0" encoding="UTF-8"?>
<svg id="Layer_9" xmlns="http://www.w3.org/2000/svg" viewBox="0 0 558.56 608.7">
  <defs>
    <style>
      .cls-1 {
        fill: #748596;
      }

      .cls-2 {
        stroke: #add1f5;
        stroke-miterlimit: 10;
        stroke-width: 4.06px;
      }

      .cls-2, .cls-3 {
        fill: #f9d8e0;
      }

      .cls-4 {
        fill: #fffaee;
      }

      .cls-5 {
        fill: #b87858;
      }

      .cls-6 {
        fill: #3a3b61;
      }

      .cls-7 {
        fill: #7facb6;
      }

      .cls-8 {
        fill: #cc8562;
      }

      .cls-9 {
        fill: #add1f5;
      }

      .cls-10 {
        fill: #2e2f4c;
      }

      .cls-11 {
        fill: #e5c7ce;
      }

      .cls-12 {
        fill: #7098a1;
      }
    </style>
  </defs>
  <path class="cls-8" d="M207.89,521.51c34.17,1.36,46.07-26.29,46.07-26.29h52.54s22.92,53.35,28.13,56.21c5.21,2.86,18.49,8.85,52.09-3.39,33.6-12.24,36.98-22.92,33.86-36.46-3.13-13.54-20.57-14.84-35.16-9.64l7.95-2.12-7.69-21.58-47.92-237.13-137.71-4.09s-33.4,8.74-51.34,43.65c-17.94,34.9-13.82,90.42,11.31,102.06,0,0,3.75,31.37,20.63,27.71l-19.05,96.34s-5.61,9.24,0,19.8c5.61,10.56,23.15,37.82,51.82,36.31,25.09-1.32,41.32-16.68,16.39-44.74"/>
  <g>
    <path class="cls-8" d="M431.19,331.13c19.77,2.88,19.23,8.23,19.23,8.23h0s9.79-13.42,9.54-23.78c-.25-10.37-10.12-27.9-23.95-32.09-13.82-4.2-22.22,6.78-18.02,16.72l-4.18,15.31,13.33,7.97,4.05,7.66Z"/>
    <path class="cls-8" d="M337.79,239.5l25.32,105.24c12.81,8.79,21.05,9.52,21.05,9.52l2.24-33.74,4.83-15.14c13.61-1.72,16.36-25.9,1.85-24.77-2.85.22-5.14.96-6.97,2.07l-.02-.37c-13.3-24.89-48.3-42.8-48.3-42.8Z"/>
    <path class="cls-10" d="M338.83,237.26c14.81,7.59,28.44,17.56,39.46,30.09,1.73,2.2,3.56,4.31,5.07,6.68,1.55,2.46,3.7,4.57,3.16,7.85,0,0-.88.47-.88.47-1.71-.61-2.6-1.59-3.31-2.7-8.23-12.15-19.98-21.52-32-29.78-4.4-3.04-9.03-5.89-13.61-8.51,0,0,2.09-4.09,2.09-4.09h0Z"/>
    <path class="cls-10" d="M386.63,321.27c-.24.07-.6.06-.89-.08-.44-.25-.28-.18-.37-.25,0,0-.07-.07-.07-.07,0,0-.13-.13-.13-.13-3.85-3.94-7.15-8.54-8.78-13.86-1.6-6.43-2.24-13.51.38-19.92,4.94-11.73,23.95-12.46,25.91,1.6,1.23,7.52-3.21,16.64-11.39,17.3,0,0,.41-.34.41-.34-1.45,5.2-3.17,10.62-5.07,15.74h0ZM385.93,318.78c1.41-4.76,3.07-9.21,4.95-13.88,7.28-.8,10.7-9.4,9.03-15.8-1.93-7.72-8.32-7.61-14.36-4.68-5.7,3.03-7.29,10.46-7.3,16.71-.26,6.88,3.42,13.4,8.63,17.72.04.03.17.13.21.16.03.04.05,0-.3-.19-.28-.13-.63-.13-.86-.05h0Z"/>
    <path class="cls-10" d="M438.31,300.56c-6.91-1.13-16.43-1.96-20.68,4.69-2.46,4.1-2.01,9.17,1.48,12.51,1.93,1.89,4.71,3.39,7.43,2.81,4.41-1.33,9.08-2.86,13.53-4.09,0,0,.27.63.27.63-3.52,2.08-7.18,3.86-10.91,5.52-1.38.6-2.83,1.26-4.37,1.28-6.38.05-11.99-5.4-12.66-11.69-.32-3.11.56-6.24,2.27-8.85,3.29-5.24,10.25-6.55,15.88-5.7,2.77.37,5.45,1.07,7.99,2.16,0,0-.24.73-.24.73h0Z"/>
    <path class="cls-10" d="M427.59,321.98c1.56,5.38,3.49,8.21,9.55,8.71,2.85.34,5.79-.15,8.61,1.09,3.07,1.28,5.11,4.16,5.66,7.38,0,0-1.82-.4-1.82-.4,4.72-6.47,9.22-14,9.84-22.15-.03-11.64-9.19-23.73-19.02-29.25-10.91-6.33-24.86-1.78-21.97,12.65,0,0-.92.39-.92.39-1.18-1.83-1.86-4.07-1.88-6.37-.2-7.29,6.59-13.4,13.7-13.42,16.03-.05,26.75,15.68,30.37,29.72,2.3,8.4-1.35,16.88-5.24,24.19-1.27,2.41-2.8,4.83-4.35,7.11,0,0-.71-2.07-.71-2.07-.73-2.14-2.6-4.04-4.81-4.55-1.09-.29-2.32-.26-3.44-.17-2.99.21-6,.22-8.95-.87-4.86-1.62-7-7.32-5.61-11.96,0,0,1-.02,1-.02h0Z"/>
    <path class="cls-10" d="M384.11,354.56c-6.13.69-12.11-1.89-16.99-5.36-1.59-1.21-3.07-2.57-4.3-4.24l.57-.82c1.95.48,3.72,1.23,5.53,2,3.53,1.51,11.72,5.72,15.28,7.43,0,0-.09,1-.09,1h0Z"/>
  </g>
  <g>
    <g>
      <path class="cls-7" d="M363.05,344.78s62.26,108.93,39.69,122.74c-62.61,38.31-197.99,33.67-201.49,5.5-5.7-45.85,18.21-123.48,18.21-123.48"/>
      <path class="cls-12" d="M363.48,344.54c10.53,16.7,20.1,34,28.69,51.77,6.41,13.44,12.4,27.21,16.43,41.65,2.32,9.52,6.08,24.57-2.71,32.04-12.76,8.36-27.37,13.8-41.87,18.11-38.39,10.71-79.01,13.61-118.57,8.83-14.01-2.19-32.5-5.04-43.22-15.31-2.18-2.26-3.78-5.12-4.15-8.3,0,0-.53-7.56-.53-7.56-.24-3.47-.06-7.8-.11-11.29,1.64-35.85,10.42-71.12,21.54-105.08,0,0,.96.29.96.29-4.84,19.01-8.99,38.25-12.1,57.61-3.29,21.44-5.91,43.65-3.43,65.25.25,1.61,1.08,3.13,2.52,4.56,3.07,2.98,7.36,5,11.48,6.52,27.42,8.97,57.48,8.4,86.11,6.48,31.18-2.76,62.82-8.46,90.8-22.83,1.57-.81,3.14-1.74,4.66-2.62,1.86-.96,2.82-2.24,3.45-4.81,1.33-6.52-.15-13.49-1.67-20.14-2.23-9.38-5.49-18.59-8.94-27.63-8.82-22.87-19.34-45-30.2-67.05,0,0,.87-.5.87-.5h0Z"/>
    </g>
    <g>
      <path class="cls-7" d="M201.24,240.97s33.94,39.36,18.21,108.57c0,0,52.36,21.71,143.6-4.76,0,0,22.43-32.04-25.29-103.67l-16.72,6.6s8.3,13.76,11.24,29.04c0,0-36.27,8.62-84.08,6.27,0,0-4.99-21.58-15.62-34.31l-31.34-7.75Z"/>
      <path class="cls-12" d="M201.67,241.24c.09-.06.17-.25.12-.38-.07-.16-.02-.06,0-.05.41.37.78.72,1.15,1.1,20.94,22.41,28.48,57.18,23.24,86.95-1.25,7.14-3.32,14.16-6.26,20.79,0,.03-.3-.57-.3-.57,10.28,2.05,20.86,3.03,31.31,3.6,28.37,1.47,56.74-.98,84.83-4.85,9.07-1.08,17.93-2.65,27.12-3.53.01,0-.27.19-.27.19,2.33-8.61,2.33-17.67,1.57-26.49-.89-10.95-3.36-22.14-7.21-32.62,0,0-2.27-6.41-2.27-6.41-1.74-4.13-3.49-8.52-5.29-12.63-1.79-3.65-4.09-8.9-5.88-12.48-2.14-4.08-4.21-8.23-6.21-12.46,0,0,.6.19.6.19,0,0-16.72,6.6-16.72,6.6,0,0,.24-.72.24-.72,6.14,9.4,10.87,19.76,13.58,30.69-14.17,5.6-29.18,7.97-44.26,9.07-14.79.96-29.72.54-44.3-2.3-2.74-9.3-5.89-18.68-10.37-27.31-1.1-2.01-2.21-4.03-3.53-5.9-.41-.64-.66-1.39-.38-2.65-7.49-1.59-21.9-5.59-30.53-7.82h0ZM200.82,240.71c9.64,2.31,22.86,5.06,32.15,7.69,2.27-.01,2.91,1.63,4.04,3.05,4.82,6.55,8.21,14.04,10.79,21.7,1,3.08,1.89,6.13,2.53,9.38l-2.02-1.69c13.99-1.29,27.84-1.94,41.79-3.07,12.24-.91,29.56-2.49,41.65-3.26,0,0-1.73,2.68-1.73,2.68-.37-2.49-.79-5-1.41-7.48-1.9-7.67-4.61-15.23-8.3-22.24,0,0,.55-.22.55-.22l16.72-6.6.34-.13s.26.32.26.32c10.44,12.63,19.56,26.69,25.79,41.9,4.83,11.61,8.2,24.08,8.22,36.72-.2,6.72-1.42,13.53-4.44,19.59-1.26,2.23-2.52,4.55-4.55,6.22-16.8,7.67-34.74,12.8-53.02,15.39-24.41,3.48-49.83,3.06-73.66-3.75-5.95-1.74-11.81-3.86-17.24-6.9,0,0-.39-.23-.39-.23,0,0,.09-.35.09-.35.3-14.01,1.06-27.98.14-41.96-1.22-22.4-6.69-44.78-17.37-64.63,0,0-.43-.77-.43-.77l-.22-.38-.11-.19s-.01,0-.14-.22c-.09-.19-.07-.43-.02-.55h0Z"/>
    </g>
  </g>
  <g id="baby">
    <path class="cls-8" d="M478.59,228.87s8.62-17.94,25.27-14.04c19.21,4.5,20.78,26.83,17.78,34.94-3.27,8.87-15.29,20.28-28.08,18.72l5.26.51s.27,23.75-14.27,36.46c-18.12,15.84-84.29,11.08-100.82-16.23-16.54-27.31,8.11-37.28,8.11-37.28,0,0-3.74-35.26,31.82-44.93,35.57-9.67,60.02,13.21,60.02,13.21l-5.1,8.63Z"/>
    <path class="cls-8" d="M406.16,214.86s-4.84-9.41.09-17.52c4.35-7.15,12.46-13.39,25.48-10.66s14.7,17.88,14.7,17.88l-40.27,10.3Z"/>
    <path class="cls-8" d="M397.94,302.41s-36.61,16.7-34.87,62.31l1.34-17.62c-19.9-2.3-24.53,8.57-24.53,8.57-26.54,37.6,18.66,53.97,18.66,53.97,0,0,18.76,17.2,43.41-13.96l-5.58,6.37c31.81,12.6,46.65-10.05,46.65-10.05,0,0,36.64-42.83,18.28-77.51"/>
    <path class="cls-8" d="M422.96,370.99s-11.36-18.81-31.55-14.98c-20.2,3.83-25.49,19.06-25.49,19.06"/>
    <path class="cls-8" d="M374.22,385.61s-6.27-13.58-15.67-15.67"/>
    <path class="cls-10" d="M478.59,228.87c3.33-11.07,14.06-19.73,26.01-17.18,3.89.77,7.66,2.31,10.81,4.79,9.38,7.34,12.57,20.61,10,31.89-2.44,8.63-9.68,15.38-17.63,18.92-4.45,1.91-9.57,2.64-14.25,1.42,0,0,.05-.44.05-.44,2.32-.13,4.54-.51,6.64-1.21,8.5-3.08,16.79-11.24,18.83-20.09,1.28-8.78-1.21-19.09-8.1-24.91-2.2-1.9-5.02-3.25-7.83-4.09-9.54-3.06-18.67,3.36-24.54,10.9h0Z"/>
    <path class="cls-10" d="M483.17,220.8c-15.86-12.35-37.6-17.21-57.05-11.98-9.66,2.32-18.56,7.41-24.18,15.31-2.83,3.92-4.75,8.42-6.2,13.09-1.45,4.67-2.42,9.61-3.03,14.64,0,0,.09.53.09.53-6.85,3.56-12.64,10.31-12.76,18.23-.19,5.59,2.01,11.23,4.82,16.09,8.51,15.09,28.82,21.29,44.96,24.22,11.75,1.98,23.89,2.52,35.68.62,13.17-2.05,21.51-6.9,27.44-19.33,3.46-7.22,5.29-15.22,5.89-23.22.31,14.03-3.67,29.92-15.34,38.9-19.39,12.77-57.47,9.38-78.21.62-7.74-3.28-15.18-7.7-20.68-14.27-5.24-6.74-9.04-15.18-8.47-23.87.61-8.82,7.3-16.31,15.4-19.22,0,0-.53.88-.53.88-3.94-15.93,4.76-33.77,18.93-41.92,23.43-13.2,54.78-8.59,74.28,9.55,0,0-1.05,1.12-1.05,1.12h0Z"/>
    <path class="cls-10" d="M446.19,204.58c-1.49-5.48-4.61-11.03-9.53-13.84-4.69-2.56-10.78-2.62-15.75-1.22-5.1,1.56-9.13,5.06-12.27,9.36-3.25,4.36-3.28,10.42-2.18,15.82,0,0-.61.32-.61.32-6.78-8.94-4.31-20.09,4.28-26.94,6.75-5.4,16.38-5.89,24.2-2.93,4.69,1.76,8.43,5.85,10.28,10.29,1.2,2.91,1.95,5.96,2.04,9.09,0,0-.47.05-.47.05h0Z"/>
    <path class="cls-10" d="M394.76,339.52c-6.44.46-16.08-2.29-12.86-10.72,2.7-5.9,10.4-1.71,13.95,1.01-2.67-.7-5.29-1.56-7.8-1.79-2.63-.26-3.96.67-4.12,3.35-.92,4.91,7.18,6.76,10.83,8.15h0Z"/>
    <path class="cls-10" d="M404.2,324.65c-2.4-3.1-6.05-6.49-10.11-6.21-3.59.18-4.57,4.17-4.05,7.12.07.43.2.87.32,1.1l-3.21,1.26c-.44-1.41-.4-2.56-.28-3.91.78-7.85,8.06-9.66,13.44-4.61,1.66,1.5,3,3.25,4.07,5.14,0,0-.18.11-.18.11h0Z"/>
    <path class="cls-10" d="M435.88,332.95c-3.74-.06-7.47-.18-11.21-.38-2.93-.24-5.67-.19-8.58-1.03-.69-.21-1.04-.98-1.3-1.51,0,0-.61-1.27-.61-1.27-2.47-5.29-7.66-14.39-14.02-8.28,0,0-2.19-2.66-2.19-2.66,9.59-7.38,15.61,3.37,18.51,11.45.09.21.17.42.25.58.02.07.12.19-.02.04,2.36.91,5.45,1.13,8.06,1.52,3.69.46,7.41.83,11.12,1.15,0,0-.02.39-.02.39h0Z"/>
    <path class="cls-10" d="M489.23,238.31c0-.06,0-.12-.02-.17,0-.04-.09-.13-.04-.09,0,0,.14.08.14.08,4.79,3.2,8.01,9.42,6.68,15.2-.16.83-.54,1.63-.92,2.38,0,0-.32-.33-.31-.32,4.4-1.89,7.99-4.79,9.24-9.09,1.47-5.21.01-12.05-6.47-12.18-2.92-.13-6.01,1.3-7.74,3.75-.2.28-.25.23-.56.44h0ZM487.84,238.67c.11-2.36,1.46-4.55,3.21-6.1,5.83-5.05,15.47-2.62,17.37,5.14,2.35,9.21-4.02,18.03-13.57,18.21,0,0-.23.13-.23.13l-.08-.45c-.64-6.27-3.43-11.67-6.7-16.93h0Z"/>
    <g>
      <path class="cls-8" d="M332.72,381.65s.9,7.27,1.42,11.99c.34,3.03-3.41,9.04-6.94,7.31-2.2-1.08.48.01-4.17-1.57-6.79-2.31-27.63,1.88-19.01,20.62,8.63,18.74,39.47,22.08,45.31,16.24s13.69-24.42,13.69-24.42"/>
      <path class="cls-10" d="M335.52,381.3c.62,3.92.82,7.89.94,11.86.04.55,0,1.53-.17,2.12-.94,3.79-5.29,8.89-9.52,6.51,0,0,.19-.39.19-.39-.32-.08-.64-.16-.97-.26-.07-.02-.19-.07-.22-.06-.74.01-1.73-.23-2.52-.35-5.5-1.32-12.07.21-16.21,4.01-5.26,4.89-2.4,12.86,1.16,17.96,5.59,7.71,15.13,12.09,24.43,13.8,4.95.74,10.98,1.46,15.31-1.22,2.96-3,4.97-6.81,6.98-10.53,2.29-4.44,4.38-9.05,6.17-13.71,0,0,3.82,1.61,3.82,1.61-2.24,4.65-4.48,9.21-6.99,13.71-1.91,3.39-3.86,6.81-6.37,9.85-.92,1.16-2.18,2.26-3.52,2.8-5.26,2.09-10.59,1.72-15.97,1.11-10.46-1.54-21.11-5.88-27.59-14.75-7.56-10.59-6.64-23.65,7.46-27.23,3.88-.9,8.37-1.38,12.08.33,0,0,1.69.87,1.69.87.29.15.44.22.77.39.32.26.58.51.92.77,0,0,.19-.39.19-.39,1.53.32,2.51-1.05,3.24-2.27.75-1.39,1.25-3.24.92-4.15-.81-3.87-1.55-7.75-1.85-11.69,0,0,5.61-.69,5.61-.69h0Z"/>
    </g>
    <path class="cls-10" d="M429.9,205.81c-1.61-1.8-3.16-3.17-5.2-3.65-2.12-.37-4.64.29-6.25,1.71-1.46,1.5-1.94,3.5-2.23,5.94,0,0-1.67.45-1.67.45-5.44-10.64,10.06-18.31,16.01-8.61.61,1.1,1.05,2.18,1.21,3.46l-1.86.68h0Z"/>
    <path class="cls-10" d="M399.12,304.99c-16.55,7.81-29.19,23.4-33.65,41.16-1.52,6.03-2.25,12.29-2.25,18.57,0,0-.3.01-.3.01-.45-6.29-.18-12.66.94-18.93,2.81-15.92,11.86-30.48,24.58-40.45,2.65-2.07,5.3-3.94,8.32-5.52,0,0,2.35,5.16,2.35,5.16h0Z"/>
    <path class="cls-10" d="M364.27,349.93c-8.11-.46-18.17.71-22.91,7.98-4.06,6.85-7.56,14.55-7.75,22.6.09,4.25,2.39,7.97,5.15,11.42,4.66,5.61,10.7,10.34,16.86,14.23,13.69,10.67,29.72,5.26,40.8-6.36,1.5-1.64,3.19-3.15,4.19-5.21,0,0,1.69,1.33,1.69,1.33-1.83,1.44-3.09,3.35-4.69,5.01-1.58,1.66-3.22,3.27-4.97,4.74-11.56,10.08-26.92,11.7-38.66,2.98-9.27-5.65-20.88-13.88-24.06-24.84-2.15-9.07,3.71-23.83,9.13-31.11,6.44-7.01,16.5-8.76,25.5-8.44,0,0-.29,5.66-.29,5.66h0Z"/>
    <path class="cls-10" d="M422.96,370.99c-8.19-8.55-19.89-13.39-31.64-12.57-4.34.71-7.85,3.77-11.17,6.66-3.97,3.66-7.73,7.79-11.78,11.49l-4.41-3.57c5-7.81,17.5-19.23,27.25-19.37,12.62.35,24.76,6.95,31.76,17.37h0Z"/>
    <path class="cls-10" d="M374.17,385.63c-3.31-9.22-15.61-18.06-25.53-16.91-4.74.71-10.77,2.51-12.37,7.57-1.54,4.79-.04,10.47,1.91,14.98,0,0-3.28,1.46-3.28,1.46-2.47-6.74-4.11-15.55,1.37-21.29,5.17-4.6,14.37-5.9,20.69-3.15,7.51,3.21,15.09,9.39,17.2,17.34h0Z"/>
    <path class="cls-10" d="M343.01,416.84c-3.06-7.71-10.26-12.98-17.9-15.62-4.99-2-10.19-.82-14.83,1.53-2.16,1.07-3.79,2.75-4.57,4.95-1.57,4.42-.45,10.05,1.32,14.78l-3.28,1.46c-2.34-5.57-3.71-11.65-1.56-17.6,2.29-6.08,9.08-8.56,15.12-9.04,6-.39,11.32,2.77,16.01,6.11,4.31,3.36,8.55,8.2,9.69,13.44h0Z"/>
    <path class="cls-1" d="M423.31,273.22c-.65,3.84-5.68,6.73-11.12,5.81-5.44-.92-9.24-5.31-8.59-9.14.65-3.84,5.5-5.67,10.94-4.75,5.44.92,9.42,4.25,8.77,8.08Z"/>
    <path class="cls-10" d="M466.2,340.92c.29.63.22,1.21.11,1.77-.7,3.94-1.6,7.86-2.64,11.71-6.87,26.08-23.9,57.45-55.32,54.13-4.83-.33-9.42-1.71-13.94-3.16l2-5.3c4.08,1.45,8.23,2.87,12.5,3.3,32.73,4.17,49.32-32.62,55.85-59.25.27-.92.34-2.49,1.12-3.24,0,0,.33.05.33.05h0Z"/>
    <path class="cls-6" d="M454.27,271.08c0,3.18-3.6,5.03-8.01,5.43-5.29.48-9.61-3.66-9.61-8.17,0-3.17,2.09-4.51,3.74-1.63.85,1.48,2.11,2.46,4.4,3.53,4.3,2,9.49-3.67,9.49.84Z"/>
    <path class="cls-6" d="M412.96,255.68c-.41,2.81-3.07,5.31-7.02,5.09-4.73-.27-7.43-4.48-6.85-8.47.41-2.8,2.44-3.71,3.51-.95.56,1.42.96,2.45,2.84,3.69,3.54,2.33,8.1-3.34,7.51.65Z"/>
    <path class="cls-9" d="M417.02,271.29c-.46,1.2-2.06,1.71-4.38.82-2.31-.89-3.27-2.38-2.8-3.58.46-1.2,2.16-1.67,4.48-.78s3.17,2.34,2.7,3.54Z"/>
    <path class="cls-6" d="M403.77,286.2c-1.79-1.21-3.23-2.07-3.86-4.13-.19-.61.13-2.48-.79-2.48-1.59,0-1.74,5,0,7.03,1.74,2.03,10.99,8.23,17.18,8.26,6.52.03,9.13-4.78,7.07-6.16-2.07-1.38-1.92,3.04-6.92,2.1-3.7-.7-9.33-2.34-12.68-4.62Z"/>
    <path class="cls-6" d="M452.4,239.88s-2.89-1.09-.83-2.76c2.05-1.67,9.31.39,11.75,4.88,2.44,4.49,1.16,8.73,0,6.93s-5.46-8.02-10.91-9.05Z"/>
    <path class="cls-6" d="M418.11,227.98c3.43.51,4.11-2.52,1.06-3.64-3.05-1.13-7.65.85-8.91,2.28-1.26,1.43-2.47,4.75,1.75,2.33,2.87-1.65,5.37-1.07,6.1-.96Z"/>
    <path class="cls-10" d="M422.45,332.39c.11-4.89,3.13-9.58,7.09-12.2,2.68-1.83,5.93-2.86,9.08-3.46,0,0,3.12-.39,3.12-.39l.04.18c-1.73.59-4.11,1.5-5.68,2.37-.72.46-1.87,1.07-2.51,1.63-3.55,2.56-6.24,6.97-5.5,11.35,0,0-5.65.52-5.65.52h0Z"/>
    <path class="cls-10" d="M462.92,313.86c4.07,10.59,7.38,24.76.26,34.79-6.81,8.69-17.64,14.17-28.72,14.02-10.29-.02-20.33-4.88-27.77-11.43,0,0,.43.17.43.17-2.49-.06-4.93-.33-7.38-.77-6.33-1.18-16.06-3.87-15.59-12.01.12-.81.09-1.44-.28-2.29,0,0,3.21,1.28,3.21,1.28-1.47.37-1.31,1.68-1.14,2.76,1.53,5.59,16.25,8.38,21.51,9.34,8.28,5.17,17.34,8.98,26.96,8.61,9.16-.18,18.19-4.59,24.14-11.5,1.13-1.26,2.12-2.73,2.73-4.32,3.19-8.71.98-18.71-1.58-27.38,0,0,3.21-1.25,3.21-1.25h0Z"/>
  </g>
  <path class="cls-8" d="M153.81,121.18c-17.98-4.26-28.83-25.05-28.86-41.63-.03-21.29,19.02-41.96,45.74-41.96s33.84,30.87,33.84,30.87"/>
  <path class="cls-8" d="M376.86,108.71s29.91-16.18,26.12-41.82c-3.8-25.63-25.16-37.98-41.77-37.03s-27.53,16.61-27.53,16.61"/>
  <path class="cls-8" d="M199.62,54.66s50.64-26.77,92.41-20.12c41.77,6.65,61.12,22.31,78.5,53.17,17.39,30.86-1.13,40.35,7.42,54.12,8.54,13.77,29.17,48.42.34,74.05-28.83,25.63-81.04,51.27-153.68,31.33-72.63-19.94-78.33-78.33-81.18-94.47s0-36.26,0-36.26"/>
  <path class="cls-10" d="M203.56,68.17c-4.76-12.78-14.13-25.69-28.44-27.36-19.14-1.79-39.34,10.29-44.88,29.03-5.69,18.36,5.17,43.62,23.7,50.29,0,0-.26,1.09-.26,1.09-15.37-2.18-26.35-16.13-30.51-30.35-6.54-21,4.23-41.92,23.2-51.87,6.07-3.02,12.78-4.85,19.53-5.36,1.7.05,4.1-.22,5.8-.04,5.95.29,11.9,2.16,16.78,5.6,6.34,4.36,10.93,10.86,13.86,17.88,1.43,3.45,2.53,6.95,3.15,10.65l-1.95.45h0Z"/>
  <path class="cls-10" d="M375.98,106.57c11.2-8.06,22.51-19.63,23.21-33.99.12-8.12-2.89-16.46-7.45-23.03-6.2-8.86-16.47-15.07-27.25-15.93-11.17-.99-21.39,5.89-28.57,13.91,0,0-4.51-3.14-4.51-3.14,1.83-2.89,3.84-5.25,6.2-7.64,4.72-4.71,10.45-8.52,16.99-10.43,16.76-4.64,35.14,4.12,44.57,18.06,7.48,11.18,10.98,26.01,5.67,38.72-5.24,12.29-15.48,20.96-27.1,26.73,0,0-1.76-3.26-1.76-3.26h0Z"/>
  <g>
    <path class="cls-5" d="M354.22,62.26s8.04-4.7,13.12-4.38,11.44,4.61,13.21,14.93c1.77,10.32-8.23,16.62-8.23,16.62l-18.1-27.17Z"/>
    <path class="cls-10" d="M371.58,88.25c3.94-3.43,7.02-7.97,6.84-13.06-.37-7.31-5.78-16.71-14.21-14.82-3.16.61-6.28,1.89-9.25,3.18,0,0-1.51-2.58-1.51-2.58,6.33-4.29,14.53-7.91,21.46-2.75,4.88,3.45,7.39,9.24,8.04,14.96.6,4.55-1.22,9.34-4.14,12.7-1.67,1.92-3.5,3.47-5.75,4.73,0,0-1.48-2.35-1.48-2.35h0Z"/>
  </g>
  <path class="cls-10" d="M145.62,116.28c-.51,13.56-.23,27.25,2.47,40.56,3.1,19.94,10.5,39.37,23.85,54.65,17.72,20.83,44.1,32.14,70.67,37.01,47.33,9.86,98.7-1.61,134.89-34.35,21.52-19.75,12.2-49.32-1.66-70.68-2.77-4.08-3.82-9.25-3.49-14.07.2-3.72.77-7.15,1.12-10.53.77-6.71.55-13.33-.97-19.83-11.22-49.45-69.39-67.34-114.66-63.18-20.09,1.97-40.41,8.35-56.42,20.88,0,0-3.6-4.15-3.6-4.15,11.36-8.8,24.9-14.24,38.69-17.81,51.95-12.65,126.43,4.64,141.1,63.05,1.78,7.01,2.11,14.49,1.4,21.58-.56,6.98-2.46,14.38,1.47,20.4,8.97,14.49,17.31,31.17,15.14,48.78-2.38,18.69-18.48,30.64-32.86,40.54-41.03,28.14-94.39,32.76-141.54,19.19-45.59-11.98-73.78-43.61-80.67-90.22-2.74-14.03-2.31-28.5.73-42.44,0,0,4.35.62,4.35.62h0Z"/>
  <g>
    <path class="cls-5" d="M185.17,80.89s-5.1-21.89-22.49-15c-17.4,6.9-13.56,33.29,2.07,35.69l20.43-20.69Z"/>
    <path class="cls-10" d="M184.89,80.51l-.21.23c-.07.1,0,.3-.06.13-.54-1.41-1.19-2.89-1.9-4.23-2.07-3.91-5.24-7.99-9.34-9.46-5.33-1.95-11.73.72-15.56,4.55-6.24,6.08-6.32,17.68-.56,24.39,1.96,2.27,4.61,3.93,7.62,4.54,0,0-.8.27-.8.27,5.26-7.5,11.87-13.93,19.13-19.47.66-.55,1.03-.66,1.68-.97h0ZM185.49,81.53c-6.02,7.61-12.3,14.85-20.08,20.69,0,0-.51.37-.51.37-3.54-.53-7.03-1.99-9.58-4.66-10.36-10.74-6.81-31,8.6-34.69,11.82-3.39,19.69,6.32,21.64,16.9.03.27.16.62.1.9,0,0-.17.49-.17.49h0Z"/>
  </g>
  <path class="cls-10" d="M345.5,107.87c-8.44-3.41-14.22-.66-14.98-2.46s2.28-7.39,5.59-7.21,10.24,1.14,14.32,6.35c4.08,5.21,4.17,10.81.66,8.15-3.51-2.65-2.91-3.75-5.59-4.84Z"/>
  <path class="cls-10" d="M242.9,107.76c6.07-1.28,12.11.88,9.46-4.24-2.65-5.13-14.23-3.27-18.21,0-3.98,3.27-9.99,15.38-4.77,13.35s5.57-7.42,13.52-9.1Z"/>
  <path class="cls-11" d="M260.55,191.14c-1.49,19.01,13.68,38.63,35.48,38.63s45.22-8.64,46.32-37.84c.72-19.06-17.58-36.27-39.38-36.27s-40.85,15.39-42.42,35.48Z"/>
  <path class="cls-10" d="M291.46,174.85c0,6.05,9.15,13.47,18.99,13.47,9.84,0,17.79-7.54,16.63-13.47-1.19-6.08-8.33-10.38-18.17-10.38-9.84,0-17.45,4.33-17.45,10.38Z"/>
  <path class="cls-1" d="M299.86,174.96c0,3.42,4.74,7.82,10.59,7.82,5.85,0,10.59-4.4,10.59-7.82s-4.74-6.19-10.59-6.19c-5.85,0-10.59,2.77-10.59,6.19Z"/>
  <ellipse class="cls-9" cx="310.45" cy="173.75" rx="7.74" ry="3.58"/>
  <path class="cls-10" d="M304.28,212.07c-9.33.51-19.79-4.59-22.98-7.27-3.48-2.93-6.93-7.21-4-8.36,1.51-.59,5.76,4.98,9.2,7.16,3.35,2.12,12.63,5.91,22.82,3.64,6.35-1.41,12-4.82,14.72-7.26,1.6-1.44,4.49-4.68,5.45-1.72s-3.82,6.66-5.78,8.02c-2.07,1.43-10.83,5.32-19.43,5.79Z"/>
  <ellipse class="cls-10" cx="248.21" cy="156.59" rx="13.7" ry="17.15"/>
  <ellipse class="cls-4" cx="244.15" cy="152.31" rx="4.06" ry="4.99"/>
  <ellipse class="cls-10" cx="340.4" cy="152.31" rx="13.21" ry="16.46" transform="translate(-9.2 22.51) rotate(-3.74)"/>
  <ellipse class="cls-4" cx="336.34" cy="148.21" rx="4.06" ry="4.99"/>
  <ellipse class="cls-11" cx="220.93" cy="188.32" rx="13.58" ry="11.99"/>
  <ellipse class="cls-11" cx="366.26" cy="177.99" rx="13.58" ry="11.99"/>
  <path class="cls-10" d="M211.91,299.39c-1.8,6.15-3.99,12.1-6.73,17.91-2.91,6.05-6.16,11.78-11.24,16.55,0,0-4.75-5.98-4.75-5.98,4.66-3.22,8.5-8.15,11.74-12.96,3.41-5.11,6.41-10.63,8.98-16.22,0,0,1.99.7,1.99.7h0Z"/>
  <path class="cls-10" d="M256.52,495.62c-9.83,17.8-29.57,27.48-49.59,25.16,0,0,.03-.76.03-.76,9.17-.2,18.38-2.57,25.99-7.62,7.29-4.82,13.24-11.73,16.56-19.8,0,0,7.02,3.02,7.02,3.02h0Z"/>
  <path class="cls-10" d="M175.94,452.55c-7.64,15.69-10.54,33.27-12.86,50.4-.65,6.26-1.45,12.72-.76,18.88.2,1.32.4,2.06.95,2.96,2.45,4.38,5.28,8.58,8.41,12.48,10.05,12.94,25.31,23.41,42.23,21.35,7.5-.73,16.1-3.4,20.7-9.22,7.13-9.67-1.94-22.19-7.56-30.76,0,0,3.62-3.21,3.62-3.21,8.61,7.79,17.09,19.48,13.99,31.83-3.57,12.92-18.56,16.83-30.26,17.46-18.88,1.68-36.07-9.43-47.12-23.98-2.74-3.57-5.22-7.32-7.43-11.23-.22-.45-1-1.77-1.21-2.22-.86-1.49-1.33-3.38-1.47-4.79-.65-6.89.61-13.55,1.76-20.19,1.64-8.66,3.67-17.16,5.5-25.72,1.89-8.55,3.63-17.08,4.14-26.05l7.37,2h0Z"/>
  <path class="cls-10" d="M223.2,533.61c10.31,3.74,13.18,15.31,11.31,25.23,0,0-7.32-2.18-7.32-2.18.72-1.69,1.65-4.06,2-5.84,1.52-6.22-.66-13.21-6.12-16.92,0,0,.13-.29.13-.29h0Z"/>
  <path class="cls-10" d="M206.23,536.12c6.61,4.76,9.61,13.5,8.61,21.47-.17,1.87-.62,3.86-1.06,5.68,0,0-7.08-2.87-7.08-2.87.86-1.58,1.63-3.19,2.26-4.89.13-.46.5-1.74.63-2.22.15-.72.27-1.55.41-2.29.56-5.07-.85-10.42-4.15-14.43,0,0,.38-.46.38-.46h0Z"/>
  <path class="cls-2" d="M375.13,98.96c.3,1.2-1.05,2.12-2.06,1.41-10.76-7.63-51.35-33.84-97.75-31.11-49.01,2.88-119.29,59.05-132.38,69.85-.87.72-2.17.1-2.17-1.02,0-3.63.13-10.32.92-17.34.1-.89,1.03-1.42,1.85-1.07,2.06.89,5.57,2.34,7.52,2.81.46.11.95-.03,1.28-.37l51.26-53.12c.39-.41.49-1.02.23-1.53l-5.8-11.39c-.29-.58-.14-1.28.38-1.67,7.38-5.53,60.36-41.99,133.05-7.54,31.85,15.1,41.29,42.45,43.69,52.06Z"/>
  <path class="cls-8" d="M153.61,280.37c-17.94,34.9-19.75,87.57,5.38,99.21,0,0,10.36,41.54,27.44,29.29"/>
  <path class="cls-8" d="M177,388.95s.43,16.81,12.95,19.06c11.1,1.99,14.44-4.24,14.44-4.24l-10.03-17.96s8.53,22.6,19.56,17.32c10.13-4.85,4.14-21.04-1.9-30.33l8.06,17.8s13.24-4.94,9.33-17.8c-3.91-12.87-19.92-18.73-19.92-18.73,0,0-5.62-21.02-27.62-30.91"/>
  <path class="cls-10" d="M199.45,237.28c-20.04,8.26-37.46,23.49-47.6,42.72-10.08,19.2-13.26,41.95-10.88,63.42,1.83,13.72,6.04,29.42,18.79,36.71,0,0,.77.41.77.41,0,0,.13.68.13.68,2.9,9.17,9.29,28.26,20.45,28.72,2.21-.24,3.86-1.59,3.09-4.16,0,0,4.45,6.21,4.45,6.21-2.67-1.31-4.63-.19-7.17.33-13.17,3.26-21.42-20.5-24.02-30.27,0,0,.91,1.08.91,1.08-3.73-1.53-7.07-3.95-9.81-6.86-17.54-19.63-17.73-53.7-11.78-78.03,4.59-18.93,15.35-36.59,30.87-48.54,9.2-7.11,19.67-12.63,31.1-15.13,0,0,.71,2.72.71,2.72h0Z"/>
  <path class="cls-10" d="M218.02,389.44c5.45-2.6,10.64-6.91,8.37-13.47-2.66-8.34-10.15-13.86-17.42-18.24,0,0-.58-.12-.58-.12-6.09-13.34-14.28-23.77-26.76-31.72,0,0,.63-1.4.63-1.4,14.13,4.27,26.04,16.57,28.98,31.17,0,0-1.1-1.19-1.08-1.18,8.82,2.36,17.11,7.9,21.22,16.25,5.45,10.86-.96,20.75-12.68,21.84,0,0-.69-3.13-.69-3.13h0Z"/>
  <g>
    <g>
      <path class="cls-3" d="M255.5,33.72s-11.07-13.41-31.86-11.23-28.29,8.95-31.91,10.15c0,0,12.57,16.68,18.86,20.79,6.29,4.11,21.28,13.01,44.24,5.66l.67-25.37Z"/>
      <path class="cls-9" d="M255.03,33.89c-7.19-6.27-16.85-9.92-26.48-9.72-.51-.02-1.54.01-2.05.07-6.24.43-12.48,1.65-18.52,3.26-5.58,1.32-10.59,3.94-16.09,5.61-.02.02.24-.78.24-.77,4.11,4.63,8.22,9.28,12.52,13.65,4.21,4.55,9.01,7.8,14.61,10.14,11.2,4.96,23.47,4.66,35.43,2.49,0,0-.35.46-.35.46l.7-25.2h0ZM255.98,33.56l-.64,25.55v.33s-.35.13-.35.13c-15.34,7.42-34.51,4.42-47.48-6.47-6.44-6.08-11.62-13.36-16.5-20.68,1.47-.62,2.67-1.73,4.08-2.64,8.44-6,18.87-8.45,29.03-9.29,11.84-.95,24.58,3.43,31.88,13.07h0Z"/>
    </g>
    <g>
      <path class="cls-3" d="M275.32,30.28s3.55-11.82,20.5-12.44c16.95-.62,29.77,10.45,37.84,10.81,0,0,.21,11.46-12.41,18.31-12.61,6.86-21.8,9.82-37.99,8.34l-7.95-25.02Z"/>
      <path class="cls-9" d="M274.82,30.29c.55-6.18,5.49-11.21,11.04-13.49,3.17-1.34,6.51-1.91,9.85-2.02,8.28-.27,16.41,2.43,23.62,6.23,4.96,2.47,9.46,5.88,14.8,7.29.42,5.67-1.98,11.25-5.81,15.38-3.78,4.02-8.73,6.4-13.61,8.82-9.6,4.76-21.14,6.31-31.5,3.31,0,0-.34-.07-.34-.07l-.09-.27-7.97-25.17h0ZM275.82,30.28l7.92,24.87-.43-.35c5.18-.48,10.25-.73,15.34-1.63,7.49-1.23,14.62-4.13,21.38-7.64,6.71-3.18,12.08-9.38,13.13-16.87,0,0,.48.49.48.49-5.61.27-10.92-2.41-16.08-4.06-7.18-2.59-14.16-4.42-21.62-4.17-.59.05-2.16.18-2.77.23,0,0-1.8.29-1.8.29-5.41.84-10.62,3.35-14.32,7.47-.17.23-.79.9-.95,1.14,0,0-.15.2-.15.2-.02.03-.06.08-.07.08,0-.02-.03-.03-.05-.04h0Z"/>
    </g>
    <g>
      <ellipse class="cls-3" cx="267.83" cy="46.97" rx="17.35" ry="18.31"/>
      <path class="cls-9" d="M251.48,46.97c.1,11.43,11.81,20.13,22.51,15.44,13.17-5.84,13.45-25.51.39-31.74-11.45-5.38-23.35,4.26-22.9,16.3h0ZM249.49,46.97c.29-16.24,19.59-25.39,31.31-13.27,7.05,7.11,7.33,19.55.52,27.02-12.18,13.27-32.2,3.57-31.83-13.75h0Z"/>
    </g>
    <g>
      <path class="cls-3" d="M250.48,46.41s-7.01-9.09-27.52-10.64"/>
      <path class="cls-9" d="M250.09,46.71c-4.08-1.68-9.33-3.53-13.43-4.99-4.65-1.71-9.32-3.07-13.74-5.46,0,0,.08-1,.08-1,5.11-1.68,10.71-1.31,15.77.38,3.82,1.3,7.52,3.51,10.08,6.74.85,1.1,1.61,2.28,2.03,3.72l-.79.61h0Z"/>
    </g>
    <g>
      <path class="cls-3" d="M283.74,40.74s13.95-5.7,17.97-6.25"/>
      <path class="cls-9" d="M282.48,37.64c6.38-1.43,12.63-3.16,19.17-3.65,0,0,.14.99.14.99-2.92,1.04-5.74,2.65-8.5,4.12-2.78,1.53-5.57,3.12-8.28,4.73l-2.53-6.19h0Z"/>
    </g>
  </g>
  <path class="cls-10" d="M306.01,493.91c8,15.78,15.76,31.91,24.54,47.2,1.44,2.33,2.71,4.65,4.49,6.56,13.02,6.65,29.6,1.97,43.22-2.26,3.92-1.36,8.38-3.02,12.2-4.61,6.61-2.86,13.71-6.21,19.15-10.73,6.63-5.44,7.73-11.67,5.55-19.41-3.7-11.23-20.59-10.12-30.53-9.34,0,0-.34-.94-.34-.94,3.91-2.59,8.35-4.3,13-5.15,13.49-2.51,26.15,3.5,27.31,18.53,2.2,15.51-9.2,24.24-21.61,30.41-8.17,3.91-16.93,7.08-25.64,9.58-14.29,3.9-31.36,6.95-44.98-.78-.53-.33-1.06-.72-1.47-1.18-2.13-2.4-3.58-5.4-5.03-8.09-4.13-8.05-7.58-16.26-11.05-24.48-3.39-8.25-6.67-16.53-9.73-24.91l.92-.39h0Z"/>
  <path class="cls-10" d="M386.15,476.63c4.6,6.2,7.21,13.89,7.72,21.57,0,0-2.9,1.04-2.9,1.04-2.4-3.13-3.97-6.62-5.32-10.26-1.29-3.66-2.29-7.36-2.34-11.32,0,0,2.85-1.02,2.85-1.02h0Z"/>
  <path class="cls-10" d="M395.26,509.21c7.88,1.59,14.55,7.62,16.78,15.4.15.76.62,2.54.75,3.28.09.72.26,2.59.34,3.33.05,1.47-.02,2.94-.04,4.43,0,0-6.23-.92-6.23-.92.32-1.73.72-3.69.75-5.48,0,0,.06-.92.06-.92.06-8.3-4.94-15.13-12.65-18.16,0,0,.24-.97.24-.97h0Z"/>
  <path class="cls-10" d="M381.59,517.59c10.26,4.98,17.42,15.48,15.7,27.2,0,0-7.56-1.75-7.56-1.75,1.48-4.18,1.65-8.72-.02-12.96-1.68-4.48-4.86-8.57-8.62-11.62,0,0,.5-.86.5-.86h0Z"/>
  <g>
    <g>
      <path class="cls-8" d="M72.18,499.57l-1.09.79c-.44,6.35,4.84,10.57,4.84,10.57l.86.8s-.67,23.55-8.39,25.55-8.73,30.55,8.39,39.07c17.12,8.52,33.92-5.68,16.17-16.8,0,0,23.26-7.58,24.65-27.46,0,0,3.52.95,8.25.24,0,0,11.6,20.8,13.73,28.98,2.13,8.18,6.63,26.17,18.7,22.62,12.07-3.55,36.45-13.73,26.98-33.61-3.77-7.91-10.23-7.83-16.12-5.44l-12.99,8.75s6.09-5.96,12.99-8.75v-1.66s-9.92-41.28-9.92-41.28l1.05-3.31c8.77-6.13,1.04-26.84-7.22-43.52,0,0,18.65,2.44,35.56-14.48,16.92-16.92,15.46-30.53,15.46-30.53l-26.22-7.69c-1.76,17.59-23.07,22.54-23.07,22.54l-14.5,7.29s-3.92,1.51-15.35,3.93c-12,2.54-22.32,1.45-22.32,1.45l-25.26-5.37s-36.93,29.18-16.84,57.99c3.67,5.26,7.66,8.1,11.66,9.34Z"/>
      <path class="cls-8" d="M156.16,553.63l12.99-8.75c-6.9,2.79-12.99,8.75-12.99,8.75Z"/>
      <path class="cls-10" d="M78.3,432.12c-15.78,16.77-31.01,38.88-13.02,59.97,10.47,12.18,25.88,4.6,35.8-4.35,0,0,.11-.09.11-.09l.09.07c3.12.68,5.83,1.06,7.88-1.14,1.71-1.97,2.92-4.83,1.28-7.24-1.01-1.62-2.72-3.02-4.67-4.13,7.61.47,10.98,7.7,5.65,13.51-2.78,3.09-7.91,2.31-10.32-.75,0,0,.2-.02.2-.02-3.07,3.71-6.74,6.92-10.89,9.42-9.33,5.74-19.99,5.43-27.66-2.92-11.19-11.78-12.15-27.76-4.38-41.67,4.64-8.56,11.18-16.07,19.36-21.36,0,0,.56.71.56.71h0Z"/>
      <path class="cls-10" d="M111.76,481.98c2.18-4.42,3.52-9.73-1.49-12.73-1.42-.97-3.1-1.69-4.82-2.45,1.87-.07,3.78.15,5.62.87,6.97,2.46,6.71,10.69,2.29,15.47,0,0-1.61-1.17-1.61-1.17h0Z"/>
      <path class="cls-10" d="M69.83,471.2c4.51-2.27,9.68-3.14,14.73-2.56,0,0-1.04.5-1.04.5,4.07-7.51,12.16-13.8,21.07-12.55,2.91.34,5.96,1.19,8.22,3.13,3.37,2.71,3.24,7.84.99,11.16,0,0-.88-.47-.88-.47,1.27-3.46.89-7.76-2.59-9.6-1.81-1.04-3.95-1.61-6.01-1.8-7.95-1.02-15.04,4.66-19.07,11.06,0,0-.39.62-.39.62l-.65-.12c-4.77-1.28-9.85-.65-14.38.63h0Z"/>
      <path class="cls-10" d="M141.08,431.68c10.95,13.5,29.24,43.34,26.41,61.1-.5,2.96-2.45,6.44-5.21,8.11,0,0-2.12,1.44-2.12,1.44-25.47,18.32-55.48,17.5-84.55,10.07,0,0-.57-.14-.57-.14-1.65-2.02-3.05-4.02-4.1-6.4-1.03-2.28-1.65-4.75-1.66-7.31,0,0,4.89.34,4.89.34-.54,3.83.95,7.87,2.93,11.12,0,0-.86-.54-.86-.54,28.42,5.2,56.32,5.96,80.54-12.07.35-.28,2.51-1.71,2.81-2.01,3.9-3.99,1.7-12.31.45-17.35-2.58-9.58-6.7-18.67-10.77-27.79-2.74-6.13-5.64-12.21-8.45-18.39,0,0,.26-.17.26-.17h0Z"/>
      <path class="cls-10" d="M77.95,511.27c.55,7.38.25,14.99-2.7,21.99-1.03,2.32-2.93,4.9-5.65,5.59,0,0-.04.02-.04.02,0,0-.09.03-.09.03l-.18.08c-1.32.77-2.26,2.94-2.68,4.58-.56,2.08-.8,4.33-.8,6.58.7,40.06,52.13,28.17,26.89,9.83,0,0-.78-.22-.78-.22,0,0,.89-.68.89-.68,10.74-7.94,21.77-13.27,24.97-27.49,0,0,.02-.48.02-.48,1.52.13,3.11.05,4.62-.18,1.78-.21,3.44-.95,5.2-1.13,0,0,.56,1.15.56,1.15,4.16,8.49,8.49,16.83,11.95,25.65,2.13,5.8,3.01,12.16,6.12,17.54,2.61,4.91,6.88,9.61,12.68,7.29,10.09-3.42,23.92-9.33,26.42-20.51.89-4.78-1.17-11.52-4.98-14.4-4.53-3.05-10.81-.32-15.49,1.96-2.71,1.39-5.4,2.97-8.06,4.69,1.88-2.57,4.14-4.85,6.66-6.86,6.96-5.78,17.56-8.75,23.4.33,2.83,4.48,4.35,9.78,3.36,15.18-2.07,10.38-12.14,16.41-21.11,20.2-2.97,1.24-6,2.27-9.07,3.15-3.48,1.19-7.64.72-10.53-1.57-2.91-2.22-4.58-5.24-5.91-8.18-2.26-5.13-3.45-10.49-5.03-15.79-3.51-9.4-8.6-18.24-13.72-26.85,0,0,1.94.95,1.93.95-2.99-.04-5.89-.51-8.66-1.63,0,0,.63-.45.63-.45,1.16,13.58-12.46,27.29-25.65,28.37,0,0,.1-.91.11-.9,5.51,2.82,11.48,9.54,6.87,15.72-6.11,7.4-17.65,6.02-25.18,1.66-9.06-5.39-13.16-16.24-13.26-26.35.11-5.23.78-12.75,6.36-15.24,1.78-.37,2.71-1.82,3.61-3.43,3.02-6.22,3.97-13.36,5.33-20.24,0,0,1,.03,1,.03h0Z"/>
      <polygon class="cls-10" points="161.42 501.1 171.57 542.32 168.06 543.16 158.38 501.83 161.42 501.1 161.42 501.1"/>
      <path class="cls-10" d="M155.34,423.99c10-4.81,19.43-11.06,22.68-22.1,0,0,1,.1,1,.1,1,9.39-6.59,17.58-14.85,20.85-2.75,1.14-5.61,1.95-8.61,2.13,0,0-.23-.97-.23-.97h0Z"/>
      <path class="cls-10" d="M153.79,454.14c17.9-1.54,33.16-12.75,43.21-27.11,3.26-4.77,6.13-10.19,6.59-16.03,0,0,.99-.17.99-.17.8,3.2.4,6.43-.3,9.58-1.52,6.23-4.81,11.9-8.78,16.86-7.83,10.01-19.45,17.68-32.37,18.56-3.18.2-6.36.13-9.46-.7,0,0,.13-.99.13-.99h0Z"/>
    </g>
    <g>
      <path class="cls-8" d="M55.6,382.33c-8.14,13.35-2.26,36.88,21.49,48.19,23.76,11.31,65.7,7.63,84.86-12.87,17.23-18.44,1.1-36.9-1.16-40.97-1.51-2.71,2.91-14.26-3.68-27.94,0,0,6.36-6.54,7.6-14.24,1.54-9.56-1.67-26.42-21.25-29.75-19.58-3.33-23.38,15.4-23.38,15.4l.43.33c-26.37-5.94-49.75,13.1-49.75,13.1l5.15,8.16c-.7-1.32-8.46-15.5-20.53-15.28-12.67.23-22.85,7.47-24.89,21.72-2.03,14.25,4.3,33.25,25.11,34.15Z"/>
      <path class="cls-10" d="M119.59,320.05c.8-7.83,6.41-15.53,14.34-17.45,4.02-1.11,8.22-.92,12.07-.05,7.94,1.43,15.59,6.77,18.83,14.35,5.12,11.56,2.46,24.2-7.35,32.19,0,0-.73-.71-.73-.71,4.03-5.8,6.84-12.45,5.92-19.53-.7-6.77-3.68-13.15-8.92-16.97-7.8-5.4-20.05-7.74-27.44-.39-2.46,2.34-4.4,5.44-5.74,8.77l-.99-.2h0Z"/>
      <path class="cls-10" d="M69.97,332.61c15.52-14.07,39.1-20.76,58.91-12.3,12.43,5.48,24.4,15.74,29.93,28.34,2.79,6.42,3.63,13.57,3.13,20.47,0,2.22-.69,4.98-.19,6.99.31.57.85,1.33,1.3,2.01,12.88,17.43,12.5,33.2-5.55,46.66-24.48,17.6-75.33,19.68-96.62-3.98-7.09-7.7-11.74-18.53-10.12-29.15.53-3.53,1.8-6.99,3.85-9.92,0,0,.94,1.77.94,1.77-16.53.2-26.96-13.01-27.41-28.82-.83-16.38,9.23-29.6,26.22-29.81,10.17-.43,18.02,8.32,21.9,16.82,0,0-.6.3-.6.3-2.46-3.8-5.53-7.35-9.13-10.06-3.57-2.68-7.75-4.31-12.02-3.82-4.41.29-8.7,1.58-12.27,3.9-11.25,7.39-12.27,23.8-7.19,35.25,3.61,8.26,11.64,13.31,20.61,13.9,0,0,1.93.19,1.93.19-2.11,3.16-3.24,6.95-3.59,10.7-1.6,16.57,10.52,31.39,25.24,37.72,18.24,7.72,39.81,7.24,58.31.59,11.68-4.41,23.99-12.07,28.6-23.94,3.94-10.26-.26-20.57-6.37-29.33-.95-2.66-.14-5.44-.17-8.1,1.08-13.62-5.51-25.63-16.04-33.86-22.83-18.83-48.07-15.34-72.01-.6,0,0-1.59-1.93-1.59-1.93h0Z"/>
      <path class="cls-10" d="M65.48,352.91c-.11.2.06.47-.02.37-.7-.7-1.45-1.44-2.2-2.09-3.05-2.71-7.33-5.75-10.96-2.66-2.53,2.03-4.6,5.17-4.65,8.51-.08,5,3.64,11.38,9.08,11.87.01,0-.41.49-.41.49-.49-5.85,3.12-14.78,9.17-16.49h0ZM66.53,353.24c-2.59,1.97-4.68,4.37-6,7.36-1.23,2.65-2.35,6.57-3.28,9.37-7.45,2.47-14.64-5.7-14.93-12.81-.54-7.65,6.72-16.72,14.89-14.64,4.89,1.56,7.5,5.5,9.15,9.87.06.25.26.6.17.84h0Z"/>
      <path class="cls-10" d="M135.59,325.66c2.3-8.03,11.15-11.06,17.06-4.54,5.1,5.07,5.29,15.21-2.43,17.69,0,0-.79-1.29-.79-1.29,3.14-3.32,2.81-7.76.25-11.22-4.04-5.39-7.85-3.87-12.79.13,0,0-1.3-.78-1.3-.78h0Z"/>
      <path class="cls-6" d="M99.97,359.15s-4.03-.08-6.78,2.91c-2.74,2.99-4.66,5.74-4.82,2.58s3.24-9.56,8.48-10.15c5.24-.58,9.15,4.41,3.12,4.66Z"/>
      <path class="cls-6" d="M145.35,352.2s-2.07-1.6-5.18-1.57c-2.32.02-6.44-.47-3.41-3.5,3.03-3.03,8.69,1.34,10.39,3.09,1.48,1.52,3.21,5.31-1.8,1.97Z"/>
      <ellipse class="cls-6" cx="146.68" cy="376.85" rx="5.83" ry="8.14" transform="translate(-59.57 29.01) rotate(-9.4)"/>
      <ellipse class="cls-6" cx="104.43" cy="387.45" rx="7.17" ry="9.19" transform="translate(-61.87 22.26) rotate(-9.4)"/>
      <ellipse class="cls-4" cx="100.84" cy="385.83" rx="1.88" ry="2.65" transform="translate(-61.66 21.65) rotate(-9.4)"/>
      <ellipse class="cls-4" cx="144.64" cy="375.2" rx="2" ry="2.63" transform="translate(-59.33 28.66) rotate(-9.4)"/>
      <path class="cls-1" d="M127.79,395.49c.73,4.4,5.93,7.21,11.62,6.27,5.69-.94,9.71-5.28,8.98-9.68-.73-4.4-5.6-5.22-11.29-4.28-5.69.94-10.04,3.28-9.31,7.69Z"/>
      <path class="cls-10" d="M150.24,405.89s-7.08,7.65-15.53,7.76-10.7-5.35-12.69-3.88,2.75,6.52,7.73,7.46,15.35-.11,20.49-11.34Z"/>
      <path class="cls-9" d="M134.3,392.76c.21,1.27,1.68,2.09,4.12,1.69s3.68-1.67,3.47-2.94-1.78-2.07-4.23-1.67-3.57,1.65-3.36,2.93Z"/>
    </g>
  </g>
  <path class="cls-10" d="M177.1,390.99c1.58,7.38,5.58,16.25,13.93,16.69,3.5.31,7.2.04,10.03-2.03.41-.3.78-.64,1.13-1,.02-.02.1-.13.05-.03l4.46,2.38c-.19.41-.33.56-.53.9-4.82,6.63-14.93,6.41-21.4,2.54-6.28-4.08-8.46-12.55-7.66-19.44h0Z"/>
  <path class="cls-10" d="M194.62,387.78c3.64,4.89,10.77,16.88,17.24,15.11,2.74-.84,4.48-3.36,4.77-6.24.65-7.34-2.19-14.54-4.82-21.62,0,0,.58-.38.58-.38,6.19,6.63,12.32,17.89,8.66,27.23-1.36,3.2-4.23,5.63-7.6,6.58-5,1.5-10.03-1.69-12.85-5.51-3.4-4.48-5.42-9.59-6.34-15.03,0,0,.37-.14.37-.14h0Z"/>
</svg>