<?xml version="1.0" encoding="UTF-8"?>
<svg id="Layer_2" xmlns="http://www.w3.org/2000/svg" viewBox="0 0 658.85 608.7">
  <defs>
    <style>
      .cls-1 {
        fill: #748596;
      }

      .cls-2 {
        fill: #fffaee;
      }

      .cls-3 {
        fill: none;
        stroke: #d4bc89;
        stroke-miterlimit: 10;
      }

      .cls-4 {
        fill: #b87858;
      }

      .cls-5 {
        fill: #3a3b61;
      }

      .cls-6 {
        fill: #cc8562;
      }

      .cls-7 {
        fill: #d4bc89;
      }

      .cls-8 {
        fill: #4db3ae;
      }

      .cls-9 {
        fill: #add1f5;
      }

      .cls-10 {
        fill: #2e2f4c;
      }

      .cls-11 {
        fill: #657382;
      }

      .cls-12 {
        fill: #e5c7ce;
      }

      .cls-13 {
        fill: #e3ca93;
      }

      .cls-14 {
        fill: #7098a1;
      }
    </style>
  </defs>
  <ellipse class="cls-11" cx="333.57" cy="525.92" rx="323.9" ry="79.94"/>
  <path class="cls-11" d="M494.79,290.14s9.08-9.31,4.87-15.01c-4.21-5.69-10.4-3.87-10.4-3.87,0,0-27.91-127.63-22.61-187.45l4.98-7.2v-14.13h-4.84s1.67-2.76,1.67-5.38-5.01-9.98-9.68-9.98c0,0-.33-32.87-4.17-32.87s-3.53,32.69-3.53,32.69c-10.48,3.11-8.12,15.72-8.12,15.72h-5.3v15.01l5.3,4.87c-3.02,88.08-25.81,188.54-25.81,188.54-20.75,0-4.71,19.04-4.71,19.04-1.13,9.55-34.22,80.71-34.22,80.71h-15.63v19.62c-2.07,1.54-1.68,6.06-1.68,6.06v9.39l-35.04,82.43,53.53-.7s26.06-42.96,74.11-42.96,80.53,42.96,80.53,42.96h54.14v-60.75s-72.41-34.13-93.39-136.76ZM425.24,387.66l14.93-65.6h24.97l15.7,65.6h-55.6Z"/>
  <path class="cls-6" d="M264.62,523.34s-17.78,42.04-16.52,45.8,3.14,29.91-30.12,29.7c-33.25-.21-42.65-11.68-34.48-22.8,8.17-11.12,22.56-13.8,22.56-13.8l8.57-44.38,21.08-16.77,28.91,22.25Z"/>
  <g>
    <path class="cls-13" d="M211.89,520.79l-1.89,16.46s-.77,16-10.88,6.02c-8.99-8.88-15.15,8.49-15.15,8.49,0,0-45.76-11.27-50.33-12.89s-16.22-55.6-20.54-75.84c-4.32-20.24,15.07-26.56,15.07-26.56l12.01-1.98s7.74.2,17.66,1.08l9.9.81,6.68.98s31.12.07,36.3,3.84c5.18,3.77,1.16,79.59,1.16,79.59Z"/>
    <path class="cls-13" d="M121.69,408.46h38.26s7.4-15.56-5.8-16.92-49-2.87-32.46,16.92Z"/>
    <path class="cls-13" d="M170.9,452.57s-5.54,4.2-8.85.11l-12.01-44.21,11.04-.11,9.83,44.21Z"/>
    <path class="cls-3" d="M170.88,452.57c.26,1.51-5,7.34-8.85.11l-12.01-44.21,11.04-.11,9.83,44.21Z"/>
    <path class="cls-13" d="M131.25,452.42s6.31,5.61,12.03,0l-10.11-44.52h-11.48l9.56,44.52Z"/>
    <path class="cls-13" d="M158.45,545.72c0,6.39-4.83,11.57-10.78,11.57s-11.51-6.89-10.3-17.12"/>
    <path class="cls-13" d="M180.96,550.86c.5,7.63,4.87,12.82,10.88,12.82s13.03-6.39,11.35-17.26c0,0,7-4.36-4.4-8.12s-17.99,10.19-17.83,12.55Z"/>
    <path class="cls-3" d="M131.25,452.98s6.31,5.61,12.03,0l-10.11-44.52h-11.48l9.56,44.52Z"/>
    <path class="cls-7" d="M127.86,436.95c-11.97,5.7-16.56,15.44-12.78,28,.77,2.98,5.12,21.52,5.98,24.96,2.22,10.02,5.19,19.83,6.96,29.94,1.11,5.81,1.69,11.91,4.3,17.27.4.67.73,1.32,1.54,1.43,3.24.97,6.62,1.67,10,2.26,13.59,2.16,27.25,3.96,39.76,10.46,0,0-.61.33-.59.31,1.14-6.29,6.81-16.19,14.42-11.83,1.94,1.7,5.16,6.56,7.95,5.32,1.71-.97,2.51-3.65,2.93-5.63.37-2.02.71-5.25,1.04-7.35.69-4.96,1.34-9.92,1.96-14.89l.99.11c-.64,6.16-1.25,12.45-1.8,18.63-.15,4.91-1.57,14.22-8.68,11.33-2.02-.8-3.27-2.24-4.93-3.4-.89-.42-1.84-.58-2.66-.98-4.42-1.04-8.22,5.73-10.27,9.02,0,0,0,.32,0,.32h-.59c-17.68,0-33.3-7.88-49.83-12.74-.99-.18-1.69-1.06-2.13-1.87-1.32-2.28-2.26-4.71-3.35-7.1-2.77-6.36-5.47-12.79-7.11-19.47-3.3-13.34-6.23-26.75-8.8-40.25-.23-1.37-1.2-6.19-1.44-7.59-.81-4.5-.62-9.26,1.1-13.57,2.74-6.8,8.91-11.58,15.74-13.67,0,0,.31.95.31.95h0Z"/>
    <path class="cls-7" d="M137.69,459.96c8.08,20.22,13.08,41.41,16.36,62.88.98,7.17,1.73,14.38,1.68,21.76l-.98.21c-8.7-20.05-12.91-41.45-16.13-62.93-.97-7.17-1.74-14.38-1.91-21.71l.98-.21h0Z"/>
    <path class="cls-7" d="M183.02,551.88c-5.52-12.06-9.1-24.82-12.11-37.69-.31-2.3.27-4.2,1.97-6.24,0,0,.97-.22.97-.22,1.47.63,2.36,1.38,3.08,2.18,1.96,2.28,1.88,5.31,2.66,8.06,2.28,11.11,4.16,22.3,4.4,33.69,0,0-.97.22-.97.22h0Z"/>
    <path class="cls-3" d="M158.29,545.95c0,6.39-4.83,11.57-10.78,11.57s-11.51-6.89-10.3-17.12"/>
    <path class="cls-3" d="M203.03,546.66c1.67,10.87-5.34,17.26-11.35,17.26s-10.93-5.17-10.88-12.82"/>
    <ellipse class="cls-7" cx="193.6" cy="551.93" rx="4.23" ry="6.42"/>
    <path class="cls-7" d="M151.52,543.53c.24.8.37,1.69.37,2.63,0,3.55-1.89,6.42-4.23,6.42s-4.23-2.88-4.23-6.42c0-1.43.31-2.75.83-3.81"/>
    <path class="cls-3" d="M142.56,449.79c10.62,1.78,19.46,2.88,19.46,2.88"/>
    <path class="cls-3" d="M113.36,449.87s1.6-5.46,16.72-2.38"/>
    <line class="cls-3" x1="140.86" y1="442.29" x2="159.8" y2="444.5"/>
    <path class="cls-7" d="M139.73,434c5.9-.75,11.95-1.04,17.74.45,0,0-.2,2.24-.2,2.24-2.96.33-5.88.05-8.81-.29-2.92-.34-5.84-.75-8.76-1.41l.03-1h0Z"/>
    <path class="cls-7" d="M167.35,435.88c.15-.2.24-.04.36-.05l.34.08c1.41.39,3.48.76,4.73,1.3-1.59,0-3.3-.09-4.89-.17,0,0-.35-.02-.35-.02-.11-.04-.25.08-.33-.15l.15-.99h0Z"/>
  </g>
  <polygon class="cls-4" points="224.03 249.77 288.93 254.18 282.12 272.67 235.32 291.75 210.42 268.36 224.03 249.77"/>
  <path class="cls-8" d="M325.58,428.03s22.31,60.09,10.77,67.36c-10.85,6.84-19.49,5.95-19.49,5.95,0,0-34.27,27.82-91.24,15.5,0,0-39.89,3.97-48.24-11.52,0,0-17.6-.94-13.95-18.99s12.56-57.58,12.56-57.58c0,0,25.53-149.92,44.03-163.7,0,0,5.59,10.09,17.83,12.48s33.5-3.37,43.54-15.88"/>
  <path class="cls-3" d="M121.69,408.46h38.26s7.4-15.56-5.8-16.92-49-2.87-32.46,16.92Z"/>
  <path class="cls-14" d="M185.94,461.94c-3.14,12.41-6.29,24.96-6.93,37.74-.05,1.61.07,3.23.32,4.77,0,0-7.38.83-7.38.83,0-2.16.2-4.24.6-6.3,2.79-12.87,8.11-25.08,13.39-37.04h0Z"/>
  <path class="cls-14" d="M220.47,264.36c6.39,5.89,13.2,9.87,21.6,10.41,9.06.48,18.3-1.74,26.6-5.38,1.86-.9,3.93-1.93,5.68-3.02,2.45-1.51,4.74-3.27,6.93-5.27l.24.2c-1.57,2.5-3.61,4.88-5.83,6.86-7.47,6.58-17.07,10.47-26.89,11.84-8.85,1.2-18.05-.4-24.37-7.17-2.18-2.31-3.92-4.96-4.84-7.99l.87-.48h0Z"/>
  <path class="cls-14" d="M308.75,432.99c3.73,12.65,5.5,25.68,5.22,38.81,0,0-.28.02-.28.02-.97-6.33-2.45-12.56-4.43-18.64-1.91-5.91-4.28-11.98-7.07-17.45,0,0,6.55-2.74,6.55-2.74h0Z"/>
  <path class="cls-14" d="M251.21,352.57c1.53,3.62,1.98,7.24,2.16,10.87.22,6.3.36,15.4.46,21.79.13,3.62.1,7.26.6,10.83l-.56.2c-1.63-3.39-2.36-7.08-3.05-10.73-1.3-7.24-1.89-14.59-2.19-21.93-.08-3.66.17-7.34,1.58-11.02h1Z"/>
  <path class="cls-14" d="M220.51,350.45c1.65,3.8.4,7.18-.37,10.84-1.34,6.12-3.31,14.74-4.44,20.81-.65,3.49-1.28,6.98-1.58,10.58-.86-3.54-.98-7.21-.97-10.82.07-8.13,1.17-16.22,2.7-24.18.51-2.86,1.24-5.32,3.69-7.46,0,0,.97.23.97.23h0Z"/>
  <path class="cls-14" d="M208.91,346.66c1.3,4.25.18,7.83-.85,11.44-.99,3.62-2,7.23-3.05,10.84-1.8,6.41-4.64,15.29-5.95,21.76-.53-3.8-.27-7.67.07-11.46.75-7.57,2.15-15.03,3.89-22.42.83-3.69,1.64-7.4,4.94-10.42l.96.27h0Z"/>
  <path class="cls-14" d="M198.28,341.3c10.15,6.04,22.43,7.62,34.04,7.64,8.86-.08,17.7-.71,26.57-.18,3.05.09,6.15.32,9.44,1.09l.21.98c-10.04,6.76-22.61,8.78-34.48,7.5-7.16-.85-14.34-2.33-20.98-5.26-5.82-2.65-11.53-5.95-15.52-11.07,0,0,.72-.69.72-.69h0Z"/>
  <path class="cls-12" d="M133.54,363.27c-7.54,3.54-16.28,8.95-17.66,17.75-.24.92-.25,1.87-.57,2.79-.34.92-.91,1.86-1.17,2.85.28.94,1.26,1.86,1.21,2.89.17,2.85.5,5.76,1.27,8.51.27.81.52,1.87,1.28,2.31,0,0-.02.33-.02.33-.65.06-1.18-.34-1.59-.7-1.2-1.12-1.96-2.61-2.56-4.09-.79-1.97-1.22-4.04-1.44-6.13-.23-1.1.69-2.17,1.02-3.13-.23-1.02-.67-2.08-.77-3.16-.02-2.13.71-4.22,1.59-6.14,3.47-7.92,11.34-12.32,19.07-15.02,0,0,.33.94.33.94h0Z"/>
  <g>
    <path class="cls-4" d="M143.24,390.69s1.35,13.13-10.84,14.68c-12.19,1.55-11.66-.31-12.58-1.02-1.31-1.01-1.87-4.03-3.8-5.78s-4.52-11.01-.65-20.9,17.99-14.88,17.99-14.88c0,0,21.01-8.82,25.52-5.39s4.04,21.07,4.04,21.07c0,0,.63,9.16-5.37,13.73"/>
    <path class="cls-10" d="M133.62,363.5c-7.7,3.73-15.71,9.31-17.53,18.09-1.13,3.73-1.63,7.52-1.03,11.36.06,1.18.3,2.23.77,3.42,1.05,2.62,2.93,6.03,5.57,6.93,3.86,1.01,8.68,1.3,12.72.82,6.69-1,8.53-8.63,7.8-14.53,5.46-.68,11.03-.29,16.22,1.58,0,0-.75.12-.75.12,1.88-1.33,3.06-3.52,3.82-5.69.79-2.27,1.28-4.7,1.47-7.13h.5c-.06,5.1-.85,11-5.12,14.39,0,0-.44-.13-.44-.13-4.55-1.35-9.52-1.47-14.19-.8,0,0,1.05-1.39,1.05-1.39.43,4.01.03,8.01-2.09,11.56-3.29,5.64-10.46,6-16.25,5.79-4.42-.05-8.45-.74-11.25-4.68-2.16-2.92-3.88-6.13-4.09-9.83-.69-4.36.05-8.9,1.52-13,1.74-5.74,5.49-10.46,10.58-13.57,3.21-2.06,6.62-3.63,10.24-4.71l.5,1.41h0Z"/>
  </g>
  <g>
    <path class="cls-4" d="M326.65,388.86c-3.62,8.1-6.89,13.78-4.58,22.73,1.72,6.69,12.71,13.91,11.06,6.75-1.65-7.16-.14-17.91,7.03-15.02,7.16,2.89,1.65,10.88-3.86,13.91-5.51,3.03-10.88,15.29,15.7,8.68,26.59-6.61,13.22-42.71,13.22-42.71,0,0-11.43-3.2-17.78-2.19-6.35,1.01-19.09,4.03-20.79,7.84Z"/>
    <path class="cls-10" d="M365.25,383.2c6.82,11.98,8.75,30.03-2.66,39.95-5.8,4.77-13.12,5.73-20.32,6.48-6.14.65-15.23-1.28-11.01-9.38,1.03-1.71,2.4-3.07,4.12-4.07,1.38-.73,2.72-1.66,3.85-2.75,3.61-3.37,5.32-8.38-.84-9.67-5.06-.42-5.32,7.52-5.08,11.14.04,1.84.69,3.21.64,5.16-.06.51-.28,1.17-.86,1.57-1.48.87-3.08,0-4.38-.57-3.33-1.72-6.36-3.93-8.19-7.4-2.1-5.08-2.14-11.16-.1-16.29,1.34-3.41,3.56-6.27,6.17-8.55l.13.09c-1.34,3.2-2.61,6.28-3.17,9.39-.88,4.61-.21,9.22.92,13.71,1.13,3.3,3.52,7.46,7.11,8.57.72.09.92-.03,1.02-.68,0-1.44-.66-3.33-.7-4.89-.23-4.17-.2-9.85,3.73-12.43,2.71-1.45,6.17-.07,7.98,2.17,1.27,1.65,1.13,4.01.41,5.83-1.25,3.05-3.49,5.4-6.12,7.26-1.59.91-3.17,2.21-3.98,3.88-.49.99-.85,2.21-.14,3.02,3.69,2.92,13.36.15,17.8-.92,3.04-.8,5.84-2.17,8.09-4.13,9.69-8.46,6.59-24.88,5.6-36.49h0Z"/>
    <path class="cls-10" d="M357.84,407.57c2.83,9.15-4.18,20.97-14.34,20.4,0,0-.24-.8-.24-.8.43-.41.87-.76,1.3-1.1,2.03-1.5,3.86-3.25,5.57-5.06,3.33-3.86,5.19-8.14,6.93-13.41,0,0,.78-.03.78-.03h0Z"/>
  </g>
  <g>
    <path class="cls-1" d="M369.4,383.23s-23.48-13.23-46.22,7.46c0,0-2.23-17.15-5.22-27.96-2.98-10.81-4.1-15.28-11.18-30.19-1.33-2.81-2.37-5.42-3.17-7.82l12.92,32.84,14.58,65.85c-6.5,7.74-44.3,15.86-53.27,13.69-8.98-2.16-8.98-106.11-11.14-125.96-2.17-19.84,17.63-55.61,17.63-55.61l11.85-1.08c5.47-.8,8.6-2.27,8.6-2.27l7.39-3.55s17.71,10.66,24.61,23.52c6.89,12.86,23.11,52.74,28.33,76.6,5.22,23.86,4.28,34.48,4.28,34.48Z"/>
    <path class="cls-11" d="M312.44,248.2c8.1,4.97,15.79,10.85,21.83,18.28,5.77,7.66,9.08,16.76,13.06,25.38,9.81,23.25,19.15,47.1,22.82,72.26.95,7.17,1.79,14.38.92,21.64-18.7-6.8-32.57-3.93-48.83,6.98-2.34-14.71-5.12-29.34-9.6-43.55-4.03-13.59-12.76-26.38-11.7-41.07,0,0,.15.02.15.02-.27,3.56.26,7.16,1.07,10.62,2.44,10.62,8.77,19.5,12.75,29.61,5.26,13.48,8,27.81,9.55,42.15,0,0-2.12-.78-2.12-.78,8.23-10.42,22.58-15.74,35.66-13.07,4.44.87,8.54,2.33,12.35,4.9,0,0-2.82,1.49-2.82,1.49.06-6.11-.73-12.27-1.61-18.32-4.64-30.9-16.03-60.58-28.6-89.07-5.17-11.45-15.17-19.72-25.38-26.61,0,0,.52-.86.52-.86h0Z"/>
    <path class="cls-1" d="M225.23,251.13c-.39.88-25.83,57.43-32.03,107.05-6.25,50.01-7.42,75.02-17.58,69.94-10.16-5.08-19.15-8.6-14.07-26.57,1.94-6.88,4.57-15.37,7.12-24.06-12.33.22-22.49-5.18-31.3-13.56-8.82-8.39.86-19.14,12.68-35.05,11.83-15.91,19.14-47.3,30.75-65.79,11.61-18.49,29.24-16.77,29.24-16.77l4.56,1.73,10.63,3.08Z"/>
    <path class="cls-11" d="M284.34,255.53c-6.87,15.11-17.2,38.6-15.84,55.12,1.04,9.5,1.47,22.58,1.97,32.24.88,17.84,1.91,42.86,3.33,60.38.6,7.47,1.27,14.94,2.53,22.3.63,3.13,1.05,6.54,2.6,9.1-.11-.08-.2-.12-.34-.18-.03-.01-.09-.02-.11-.03l.08.02c7.89.94,16.3-1.03,24.12-2.55,4.85-1.07,9.68-2.28,14.36-3.84,4.3-1.51,9.12-2.96,12.47-6.04,0,0-.28,2.27-.28,2.27-1.72-4.86-2.4-11.93-3.37-17.02-.92-5.52-1.79-11.05-3.14-16.47,0,0,.95-.32.95-.32,3.17,7.56,5.11,16.41,7.15,24.36.8,2.93,1.28,6.18,2.82,8.77,0,0-.91,1.11-.91,1.11-7.2,8.79-44.79,17.44-55.85,14.88-5.36-1.79-6.28-15.82-7.08-20.77-1.75-15.14-2.41-30.35-2.96-45.54-.86-21.42-.74-43.01-2.08-64.35.2-17.61,10.77-38.51,19.58-53.47h0Z"/>
    <path class="cls-11" d="M225.92,251.44c-12.93,32.78-24.15,66.4-29.52,101.18-1.31,9.13-2.3,18.46-3.38,27.62-1.34,11.11-2.45,22.27-4.51,33.31-1.41,6.71-3.81,21.39-13.76,16.49-14.44-6.52-19.17-13.14-14.66-29.07,5.36-18.79,12.09-37.05,15.32-56.25,1.45-13.83,1.77-27.88,4.65-41.55.76-3.67,1.63-7.33,3.06-10.85,2.93-6.8,4.73-14.08,5.38-21.49-.31,7.43-1.78,14.86-4.41,21.86-1.18,3.46-1.85,7.11-2.39,10.76-1.82,12.57-1.86,26.19-2.69,38.89-2.55,20.42-9.81,40.03-15.11,59.71-1.77,6.41-2.72,14.01,2.97,18.52,2.54,2.13,5.82,3.71,9.15,5.36,1.82.95,2.46,1.05,3.21.62.82-.47,1.71-1.95,2.33-3.48,2.54-6.58,3.41-14.17,4.51-21.24,2.07-14.7,3.65-29.51,5.6-44.25,1.08-7.32,2.39-14.92,4.09-22.1,3.25-14.53,7.62-28.96,12.6-42.97,4.99-14.05,10.56-27.89,16.96-41.36l.61.28h0Z"/>
    <path class="cls-11" d="M210.37,247c-10.29.02-19.99,5.89-25.83,14.18-6.81,10.27-10.74,22.02-15.16,33.52-4.06,10.78-8.01,22-14,32.01-3.97,6.4-9.28,12.55-13.35,18.8-3.17,5.02-7.71,11.98-1.82,16.78,8,7.71,17.69,13.25,28.83,14.88,0,0,.02,1,.02,1-11.85,2.42-24.42-3.23-32.96-11.48-8.26-7.17-4.19-16.88,1.02-24.42,4.17-6.37,9.36-12.2,13.5-18.51,5.98-9.67,9.93-20.24,14.34-30.78,4.41-10.65,8.78-21.6,15.3-31.28,2.25-3.2,5-6.33,8.11-8.7,6.27-4.91,14.22-7.6,22.09-6.98l-.1,1h0Z"/>
  </g>
  <path class="cls-6" d="M312.73,506.23s20.91,11.92,18.2,29.07c-2.72,17.15-21.75,50.2-44.55,42.46-22.8-7.74-4.4-32.91.2-40.65l6.49,3.3s-15.69-6.57-23.63-17.87"/>
  <path class="cls-10" d="M312.88,505.96c10.1,5.65,20.28,15.45,19.68,27.94-1.72,15.9-13.04,36.14-27.28,44.03-9.18,5.25-22.14,4.16-29.18-4.32-4.64-5.82-3.12-14.16-.32-20.31,2.75-6.18,6.7-11.49,10.73-16.6,0,0,.21.14.21.14l6.49,3.3s-.26.56-.26.56c-9.52-2.45-19.3-9.05-23.77-17.97,0,0,.51-.36.51-.36,3.57,3.46,7.27,6.53,11.29,9.39,4.01,2.91,8.13,5.51,12.21,8.37,0,0-.26.56-.26.56,0,0-6.49-3.3-6.49-3.3l.41-.12c-2.78,5.83-5.91,11.39-7.85,17.28-1.77,5.3-2.97,11.77.63,16.31,3.45,4.09,9.92,6.21,15.3,5.73,17.42-1.78,32.17-26.94,34.71-42.92,1-11.55-8.22-21.01-17.07-27.16,0,0,.31-.54.31-.54h0Z"/>
  <path class="cls-10" d="M264.92,522.46c-5.06,13.78-10.58,27.52-14.61,41.63-.26,1.12-.72,2.74-.63,3.67,1.48,6.17.48,12.67-2.41,18.32-3.73,7.19-11.33,11.55-19.09,13-12.1,2.16-34.95.98-44.64-7.06-12.22-10.27.92-23.63,11.51-28.23,3.47-1.6,7.08-2.73,10.86-3.31l-.61.6,9.01-44.3.63.12-8.14,44.47-.09.49-.52.11c-6.87,2.08-13.42,5.67-18.27,10.67-17.91,18.69,16.05,23.05,28.86,22.95,10.08.32,21.86-1.83,27.14-11.37,2.58-4.59,3.68-10.51,2.59-15.71-.34-1.78.37-3.62.81-5.28,2.26-7.15,5.09-13.93,7.99-20.79,2.9-6.8,5.86-13.57,9-20.25l.6.25h0Z"/>
  <path class="cls-14" d="M326.05,427.4c6.48,12.59,26.59,60.66,12.91,70.7-6.49,4.12-14.61,6.54-22.22,3.94-.01,0,.84-.25.84-.25-5.24,6.57-12.5,11.08-20.04,14.54-22.63,9.59-49.26,9.47-72.04.55-12.82,4.13-43.16,3.68-50.28-10.85,0,0,2.02,1.28,2.02,1.28-2.16.03-4.09-.27-6.14-.89-6.47-1.76-11.42-7.87-11.55-14.64-.26-4.02.89-7.71,1.75-11.49.84-3.51,1.66-7.01,2.56-10.5,3.54-13.96,7.29-27.85,11.64-41.59,0,0,.98.22.98.22-1.95,14.27-4.43,28.43-6.97,42.59,0,0-1.93,10.59-1.93,10.59l-.92,5.25c-1.63,8.7,2.56,13.61,10.85,15.6,0,0,1.64.44,1.64.44,3.34,6.87,13.91,9.11,21.03,10.37,27.55,3.62,56.14,5.1,83.16-2.27,11.46-3.06,22.31-6.87,33.54-11.27,6-1.77,11.42-4.61,16.67-7.84,0,0,.55-.33.55-.33.06-.04.08-.05.07-.05.1-.07.12-.12.26-.28,1.18-1.9,1.36-5.89,1.25-8.53-.12-3.51-.53-7.16-1.09-10.8-1.11-7.3-2.7-14.64-4.32-22l-5.17-22.12.94-.35h0Z"/>
  <g>
    <path class="cls-6" d="M294.9,102.82s1.96-18.23,13.36-23.98,32.48-2.75,40.55,10.07c8.07,12.82,9.24,24.97,8.37,29.28s-7.19,20.93-15.59,25.97c0,0,2.29,19.77,1.7,24.35-.47,3.61-1.97,11.84,1.98,19.91s4.63,26.28,2.67,29.44-10.76,25.25-49.46,34.5c-38.7,9.25-88.8-3.87-104.93-13.81s-29.62-23.91-27.04-68.78l1.51-8.77,4.71.56h0s-5.54-1.17-7.58-2.36-21.91-12.69-23.79-37.06,14.9-37.15,32.59-38.12,30.04,5.18,36.73,22.21c1.29,3.05.92,9.51,4.66,7.32,7.14-4.86,24.84-21.92,79.58-10.73Z"/>
    <path class="cls-4" d="M183.27,145.6s-1.31-13.38,9.59-17.69c10.89-4.3-9.68-28.78-24.61-13.85s7.36,31,15.02,31.54Z"/>
    <path class="cls-4" d="M315.99,109.08s15.58,8.63,19.07,16.75c0,0,9.93-13.43,0-21.63-9.93-8.2-18.47,2.2-19.07,4.88Z"/>
    <path class="cls-5" d="M185.04,146.07s-24.57-3.02-23.56-19.33,19.13-25.57,29.6-15.1,3.28,24.93,0,22.33.88-13.58-3.87-18-14.65-4.95-20.14,4.35,6.58,23.33,17.97,25.74Z"/>
    <path class="cls-5" d="M254.32,152.19s.46-3.5-3.95-4.18-11.74-.33-17.79,8.17-1.8,9.15.98,5.88,7.07-6.21,12.53-6.7,7.58.21,8.23-3.16Z"/>
    <path class="cls-5" d="M312.12,151.97c-2.55.52-4.66-1.98-3.5-4.3.03-.06.06-.12.1-.19,2.18-4.1,14.52-2.6,17.93,2.59,4.46,6.78,4.92,10.24-2.63,4.1-2.67-2.18-7.02-3.21-11.9-2.2Z"/>
    <path class="cls-10" d="M259.1,185.71c0,6.86-5.28,12.14-10.1,11.83-5.22-.34-8.74-5.56-8.74-12.42s5.09-12.14,9.92-12.14,8.91,5.87,8.91,12.73Z"/>
    <path class="cls-10" d="M323.66,178.63c.67,6.71-2.28,14.8-7.54,14.15-4.43-.55-7.67-5.36-7.67-12.1s4-12.07,8.45-12.07c3.85,0,6.13,3.65,6.76,10.02Z"/>
    <path class="cls-12" d="M253.57,221.78c1.26,16.97,20.11,24.54,39.56,23.09,19.44-1.44,28.84-14.66,27.58-31.63-1.26-16.97-14.78-26.24-34.22-24.8-19.44,1.44-34.18,16.37-32.92,33.33Z"/>
    <path class="cls-2" d="M323.04,179.96c0,2.85-1.86,5.16-4.16,5.16s-4.42-2.31-4.42-5.16,2.12-5.16,4.42-5.16,4.16,2.31,4.16,5.16Z"/>
    <path class="cls-2" d="M257.59,185.12c0,2.85-1.86,5.16-4.16,5.16s-4.42-2.31-4.42-5.16,2.12-5.16,4.42-5.16,4.16,2.31,4.16,5.16Z"/>
    <g>
      <path class="cls-5" d="M279.28,200.48c.85,5.67,7.06,13.82,16.41,14.18,9.36.36,17.09-7.14,17.47-12.86.34-5.21-6.27-8.36-15.63-8.73s-19.05,2.11-18.25,7.41Z"/>
      <path class="cls-1" d="M284.95,200.28c.33,5.7,9.43,10.97,15.17,9.15s9.36-5.01,8.75-8.6c-.55-3.27-5.36-5.7-11.16-6.06-6.09-.38-13,1.31-12.76,5.52Z"/>
      <path class="cls-9" d="M308.13,201.04c.89-.83-2.36-4.62-6.02-4.87-3.54-.24-7.13-.41-8.02.42s2.13,3.07,5.66,3.5c3.04.37,7.49,1.78,8.38.95Z"/>
    </g>
    <ellipse class="cls-12" cx="229.89" cy="208.72" rx="13.01" ry="11.53"/>
    <path class="cls-12" d="M345.05,197.21c.86,5.51-.86,10.36-7.08,11.32-6.22.97-11.96-2.72-12.82-8.23-.86-5.51,3.49-10.77,9.72-11.73s9.33,3.13,10.18,8.64Z"/>
    <path class="cls-10" d="M335.65,124.89c3.03-6.11,4.59-13.46-.42-18.93-6.11-6.96-13.11-3.48-18.93,1.78,0,0-.61-.34-.61-.34,2.18-6.06,9.24-10.48,15.63-8.49,4.32,1.33,7.44,4.93,9.07,8.99,1.56,4.05.81,8.57-1.05,12.28-.9,1.81-2,3.48-3.35,4.95l-.34-.25h0Z"/>
    <path class="cls-10" d="M342.48,143.18c8.43-6.81,13.37-17.41,12.95-28.18-.65-15.91-9.08-31.63-25.48-35.49-13.58-3.68-27.21.61-32.46,14.48-.98,2.51-1.64,5.16-2.09,7.85l-.99-.11c1.09-20.34,17.17-30.45,36.45-25.98,11.72,2.33,21.35,11.09,25.15,22.31,3.96,10.7,4.3,23.39-1.6,33.43-2.84,4.89-6.83,9.16-11.71,12.01,0,0-.2-.33-.2-.33h0Z"/>
    <path class="cls-10" d="M212.96,118.64c-3.24-13.12-9.7-27.5-23.55-31.86-6.52-2.15-13.72-1.87-20.37-.45-14.15,2.87-23.45,14.24-25.64,28.26-1.88,10.27,1.67,20.59,6.74,29.44,5.15,9.07,13.88,16.4,24.44,17.86,0,0-6.66-.28-6.66-.28,0,0,.66-.45.66-.45-3.71,20.4-4.14,47.24,10.82,63.33,19.36,18.15,48.97,25.89,74.84,28.38,24.58,2.48,49.77-1.99,71.07-14.75,8.12-4.94,16.48-11.21,20.41-20.01,3.25-9.26,1.77-19.43-.85-28.74-1.26-4.82-3.34-9.75-2.85-14.84,1.07-14.78-.56-29.98-7.26-43.15-5.63-10.75-15.55-18.49-26.88-22.51-3.19-1.27-7.21-2.72-10.47-3.7-22.29-6.99-47.19-8.08-69.03,1.11-4.58,1.95-9.06,4.27-13.04,7.29,7.62-6.61,17.1-10.89,26.76-13.63,18.41-5.14,38.19-3.87,56.47,1.26,2.13.52,5.2,1.57,7.3,2.2,3.49,1.29,7.41,2.47,10.76,4.22,14.53,6.77,23.89,21.13,26.5,36.67,1.87,10.06.75,20.29-.18,30.32-.58,5,1.58,9.72,3.18,14.37,3.11,8.28,5.02,17.45,3.42,26.35-2.48,11.69-12.84,19.82-22.26,26.01-13.01,8.13-27.72,13.36-42.94,15.42-20.22,2.31-40.76-.12-60.32-5.41-17.58-4.95-41.42-15.08-51.41-31.07-10.39-17.38-9.34-40.79-5.06-59.92,0,0,.53.08.53.08,0,0,6.51,1.46,6.5,1.46-14.96-.48-26.24-13.11-31.42-26.25-2.79-6.74-4.26-14.27-2.9-21.55,2.18-15.26,12.85-27.42,28.24-30.24,7.15-1.34,14.65-1.56,21.63.76,14.05,4.58,22.68,19.81,22.83,34.03h0Z"/>
    <path class="cls-10" d="M313.96,223.65c4.08-3.48-13.75,4.6-27.49,3.9-13.74-.71-25.67-13.7-22.71-8.04,3.32,6.34,8.55,12.3,22.28,13.01,10.39.53,23.77-5.33,27.91-8.86Z"/>
  </g>
  <g>
    <g>
      <path class="cls-6" d="M471.57,517.65l1.09.79c.44,6.35-4.84,10.57-4.84,10.57l-.86.8s.67,23.55,8.39,25.55c7.72,2,8.73,30.55-8.39,39.07-17.12,8.52-33.92-5.68-16.17-16.8,0,0-23.26-7.58-24.65-27.46,0,0-3.52.95-8.25.24,0,0-11.6,20.8-13.73,28.98-2.13,8.18-6.63,26.17-18.7,22.62-12.07-3.55-36.45-13.73-26.98-33.61,3.77-7.91,10.23-7.83,16.12-5.44l12.99,8.75s-6.09-5.96-12.99-8.75v-1.66l9.92-41.28-1.05-3.31c-8.77-6.13-1.04-26.84,7.22-43.52,0,0-18.65,2.44-35.56-14.48-16.92-16.92-15.46-30.53-15.46-30.53l26.22-7.69c1.76,17.59,23.07,22.54,23.07,22.54l14.5,7.29s3.92,1.51,15.35,3.93c12,2.54,22.32,1.45,22.32,1.45l25.26-5.37s36.93,29.18,16.84,57.99c-3.67,5.26-7.66,8.1-11.66,9.34Z"/>
      <path class="cls-6" d="M387.59,571.71l-12.99-8.75c6.9,2.79,12.99,8.75,12.99,8.75Z"/>
      <path class="cls-10" d="M466,449.49c8.17,5.29,14.72,12.79,19.36,21.36,7.77,13.92,6.82,29.89-4.38,41.67-7.68,8.34-18.32,8.66-27.66,2.92-4.14-2.5-7.81-5.71-10.89-9.42,0,0,.2.02.2.02-2.41,3.05-7.56,3.84-10.32.75-5.3-5.8-1.98-13.03,5.65-13.51-2.67,1.59-5.23,3.58-5.46,6.59-.05,1.71,1,3.49,2.08,4.77,2.05,2.2,4.76,1.82,7.88,1.14,0,0,.09-.07.1-.07,0,0,.11.1.11.1,9.92,8.96,25.33,16.53,35.8,4.35,13.86-15.85,8.11-34.3-3.88-49.26-2.84-3.69-5.92-7.25-9.14-10.71,0,0,.56-.71.56-.71h0Z"/>
      <path class="cls-10" d="M430.38,501.22c-6.67-7.81-2.41-16.84,7.92-16.34-1.72.76-3.39,1.48-4.82,2.45-5.01,3-3.67,8.31-1.49,12.73,0,0-1.61,1.17-1.61,1.17h0Z"/>
      <path class="cls-10" d="M473.87,489.38c-4.57-1.64-9.66-1.87-14.33-.74,0,0-.65.12-.65.12l-.39-.62c-4.03-6.4-11.13-12.08-19.07-11.06-2.44.25-5.03.94-6.98,2.48-2.72,2.08-2.68,5.86-1.62,8.92,0,0-.88.47-.88.47-2.25-3.32-2.38-8.45.99-11.16,2.26-1.94,5.31-2.79,8.22-3.13,8.91-1.25,17.01,5.03,21.07,12.55,0,0-1.04-.5-1.04-.5,4.85-.51,10.69.2,14.68,2.67h0Z"/>
      <path class="cls-10" d="M402.93,449.92c-5.58,12.23-11.49,24.32-16.21,36.83-2.16,5.99-4.25,12.4-4.64,18.65-.09,3.18.07,6.8,2.88,8.57,2,1.37,4.13,2.91,6.15,4.2,16.51,11.28,36.98,14.19,56.6,12.66,6.7-.44,13.37-1.29,20.01-2.32,0,0-.29.18-.29.18,1.43-2.74,2.43-5.88,2.47-8.96.02-.98-.13-1.91-.32-2.77l4.89-.34c-.33,4.91-2.91,9.26-6.26,12.7,0,0-.09.13-.09.13,0,0-.2.05-.2.05-26.54,7.44-55.91,9.28-80.02-6.24-2.65-1.64-5.24-3.28-7.74-5.19-3.79-3.25-4.62-8.49-4.27-13.03.59-7.43,3.04-13.98,5.71-20.33,2.67-6.35,5.91-12.38,9.39-18.23,3.55-5.81,7.34-11.47,11.67-16.73l.26.17h0Z"/>
      <path class="cls-10" d="M466.8,529.32c1.36,6.87,2.31,14.02,5.33,20.24.82,1.4,1.58,2.76,3.04,3.25,0,0,.57.18.57.18.22.08.44.18.65.28,5.03,3.01,5.58,9.81,5.71,14.96-.1,10.11-4.21,20.96-13.26,26.35-7.53,4.37-19.08,5.74-25.18-1.66-4.61-6.19,1.37-12.89,6.87-15.72,0-.02.11.9.11.9-13.18-1.08-26.81-14.79-25.65-28.37,0,0,.63.45.63.45-2.77,1.11-5.67,1.58-8.66,1.63,0,0,1.93-.95,1.93-.95-5.12,8.61-10.22,17.45-13.72,26.85-1.58,5.3-2.77,10.65-5.03,15.79-1.33,2.94-3,5.96-5.91,8.18-2.88,2.29-7.06,2.76-10.53,1.57-3.07-.88-6.1-1.91-9.07-3.15-8.98-3.78-19.05-9.82-21.11-20.2-.99-5.4.54-10.71,3.36-15.18,5.83-9.08,16.45-6.12,23.4-.33,2.52,2.01,4.78,4.29,6.66,6.86-2.66-1.71-5.35-3.3-8.06-4.69-4.68-2.28-10.97-5.01-15.49-1.96-3.82,2.88-5.86,9.62-4.98,14.4,2.48,11.18,16.35,17.11,26.42,20.51,5.81,2.31,10.05-2.38,12.68-7.29,3.11-5.38,3.99-11.74,6.12-17.54,3.62-9.21,8.19-17.91,12.52-26.8,0,0,1.37.2,1.37.2,2.47.83,5.21,1.29,7.84,1.15,0,0,.61-.04.61-.04l.02.49c3.21,14.23,14.24,19.55,24.97,27.49,0,0,.89.68.89.68l-.78.22c-25.24,18.33,26.18,30.24,26.89-9.83-.08-3.5-.51-9.35-3.66-11.25-2.78-.67-4.74-3.26-5.78-5.63-2.95-7-3.25-14.61-2.7-21.99,0,0,1-.03,1-.03h0Z"/>
      <polygon class="cls-10" points="385.37 519.9 375.69 561.24 372.18 560.4 382.33 519.17 385.37 519.9 385.37 519.9"/>
      <path class="cls-10" d="M388.18,443.04c-11.62-.83-24.6-10.28-23.45-22.97,0,0,1-.1,1-.1,3.25,11.04,12.68,17.29,22.69,22.1,0,0-.23.97-.23.97h0Z"/>
      <path class="cls-10" d="M390.09,473.21c-15.97,3.6-32.22-5.45-41.83-17.87-3.97-4.96-7.26-10.63-8.78-16.86-.7-3.15-1.1-6.38-.3-9.58,0,0,.99.17.99.17.47,5.84,3.34,11.26,6.59,16.03,10.04,14.37,25.31,25.58,43.21,27.11,0,0,.13.99.13.99h0Z"/>
    </g>
    <path class="cls-6" d="M488.14,400.4c8.14,13.35,2.26,36.88-21.49,48.19-23.76,11.31-65.7,7.63-84.86-12.87-17.23-18.44-1.1-36.9,1.16-40.97,1.51-2.71-2.91-14.26,3.68-27.94,0,0-6.36-6.54-7.6-14.24-1.54-9.56,1.67-26.42,21.25-29.75,19.58-3.33,23.38,15.4,23.38,15.4l-.43.33c26.37-5.94,49.75,13.1,49.75,13.1l-5.15,8.16c.7-1.32,8.46-15.5,20.53-15.28,12.67.23,22.85,7.47,24.89,21.72,2.03,14.25-4.3,33.25-25.11,34.15Z"/>
    <path class="cls-10" d="M423.17,338.33c-2.49-6.35-7.53-12.12-14.37-13.16-6.31-.93-13.64,1.09-18.81,4.79-6.57,4.75-9.64,13.85-8.96,22.07.46,5.23,3.01,10.01,5.96,14.43,0,0-.73.71-.73.71-2.94-2.44-5.35-5.42-7.23-8.88-5.48-10.8-2.33-25.62,7.58-32.88,9.68-6.91,25.44-8.39,33.25,2,2.38,3.23,3.86,6.89,4.28,10.72l-.99.2h0Z"/>
    <path class="cls-10" d="M472.77,351.91c-16.73-9.6-37.27-15.69-55.88-8.47-11.72,4.88-23.12,13.19-29.06,24.62-2.98,5.77-4.05,12.4-3.68,19.01-.03,2.66.79,5.45-.17,8.1-.5.91-.96,1.53-1.43,2.25-16.26,23.75.61,42.43,23.69,50.93,23.6,8.38,56.43,8.08,74.81-11.16,9.01-9.39,13.7-24.76,6.82-36.63,0,0-.29-.45-.29-.45,0,0,.56-.06.56-.06,9.11-.8,17.36-6.11,20.89-14.58,4.94-11.56,3.79-28.01-7.54-35.36-3.58-2.29-7.86-3.57-12.25-3.84-4.24-.49-8.38,1.13-11.96,3.79-3.61,2.7-6.68,6.22-9.19,9.99,0,0-.6-.3-.6-.3,3.79-8.57,11.7-17.37,21.9-16.92,16.95.25,27.04,13.52,26.03,29.91-.58,15.49-10.99,28.6-27.26,27.99,0,0,.27-.51.27-.51,7.31,12.14,2.75,28.03-6.3,37.98-21.4,24.22-70.9,22.53-95.91,4.68-17.97-13.46-18.44-29.22-5.53-46.69.46-.68.99-1.44,1.3-2.01.52-2.02-.19-4.76-.2-6.99-.51-6.91.32-14.06,3.09-20.49,4.16-9.77,11.97-17.45,20.59-23.34,8.78-6.07,19.62-9.25,30.29-8.67,10.65.55,20.69,4.34,29.43,10.17,2.85,1.94,5.58,4.04,7.99,6.52,0,0-.43.52-.43.52h0Z"/>
    <path class="cls-10" d="M477.22,371.32c-.09-.25.11-.59.17-.84,1.66-4.37,4.26-8.32,9.15-9.87,8.17-2.07,15.43,6.99,14.9,14.64-.29,7.11-7.49,15.28-14.93,12.81-.93-2.82-2.04-6.72-3.28-9.37-1.32-2.99-3.42-5.4-6-7.36h0ZM478.27,370.99c6.05,1.71,9.66,10.62,9.17,16.49,0,0-.42-.49-.41-.49,5.44-.49,9.15-6.87,9.08-11.87-.05-3.34-2.12-6.48-4.65-8.51-3.63-3.09-7.91-.05-10.96,2.66-.74.64-1.5,1.39-2.2,2.09-.08.1.09-.17-.02-.37h0Z"/>
    <path class="cls-10" d="M406.85,344.51c-5.82-4.77-9.74-5.31-13.68,1.33-1.82,3.24-1.48,6.94,1.14,9.76,0,0-.8,1.29-.8,1.29-1.51-.52-3.03-1.41-4.15-2.84-7.39-10.08,7.65-25.74,16.55-14.62,1.02,1.33,1.79,2.71,2.23,4.31l-1.3.78h0Z"/>
    <path class="cls-5" d="M443.77,377.22s4.03-.08,6.78,2.91c2.74,2.99,4.66,5.74,4.82,2.58s-3.24-9.56-8.48-10.15c-5.24-.58-9.15,4.41-3.12,4.66Z"/>
    <path class="cls-5" d="M398.4,370.28s2.07-1.6,5.18-1.57c2.32.02,6.44-.47,3.41-3.5s-8.69,1.34-10.39,3.09c-1.48,1.52-3.21,5.31,1.8,1.97Z"/>
    <ellipse class="cls-5" cx="397.07" cy="394.93" rx="8.14" ry="5.83" transform="translate(-57.4 722.17) rotate(-80.6)"/>
    <ellipse class="cls-5" cx="439.31" cy="405.53" rx="9.19" ry="7.17" transform="translate(-32.52 772.71) rotate(-80.6)"/>
    <ellipse class="cls-2" cx="442.91" cy="403.91" rx="2.65" ry="1.88" transform="translate(-27.91 774.91) rotate(-80.6)"/>
    <ellipse class="cls-2" cx="399.11" cy="393.28" rx="2.63" ry="2" transform="translate(-54.07 722.8) rotate(-80.6)"/>
    <path class="cls-1" d="M415.95,413.56c-.73,4.4-5.93,7.21-11.62,6.27-5.69-.94-9.71-5.28-8.98-9.68.73-4.4,5.6-5.22,11.29-4.28,5.69.94,10.04,3.28,9.31,7.69Z"/>
    <path class="cls-10" d="M393.51,423.97s7.08,7.65,15.53,7.76c8.14.11,10.7-5.35,12.69-3.88s-2.75,6.52-7.73,7.46-15.35-.11-20.49-11.34Z"/>
    <path class="cls-9" d="M409.44,410.84c-.21,1.27-1.68,2.09-4.12,1.69s-3.68-1.67-3.47-2.94,1.78-2.07,4.23-1.67,3.57,1.65,3.36,2.93Z"/>
  </g>
</svg>