<?xml version="1.0" encoding="UTF-8"?>
<svg id="Layer_4" xmlns="http://www.w3.org/2000/svg" viewBox="0 0 558.56 608.7">
  <defs>
    <style>
      .cls-1 {
        fill: #748596;
      }

      .cls-2 {
        fill: #fffaee;
      }

      .cls-3 {
        fill: #b87858;
      }

      .cls-4 {
        fill: #3a3b61;
      }

      .cls-5 {
        fill: #cc8562;
      }

      .cls-6 {
        fill: #4db3ae;
      }

      .cls-7 {
        fill: #add1f5;
      }

      .cls-8 {
        fill: #2e2f4c;
      }

      .cls-9 {
        fill: #657382;
      }

      .cls-10 {
        fill: #e5c7ce;
      }

      .cls-11 {
        fill: #7098a1;
      }
    </style>
  </defs>
  <polygon class="cls-5" points="221.33 247.14 211.17 275.9 284.73 308.66 316.99 265.13 303.51 239.89 221.33 247.14"/>
  <g>
    <path class="cls-5" d="M326.96,525.92s-8.65,30.21-6.06,31.51,22.96,4.63,22.59,23.7c-.37,19.07-40.36,14.81-50.55,11.67s-30.37-9.81-30.55-26.11c-.19-16.29,0-27.96,0-27.96l64.57-12.81Z"/>
    <path class="cls-8" d="M327.33,525.58c.25.43.06.62.13.53.28,1.02.22,2.12,0,3.13-1.76,6.9-4.07,13.74-5.57,20.69-.38,2.24-1,4.82-.57,6.85,3.06.9,6.88,1.91,10.07,3.32,6.11,2.54,11.65,7.15,13.68,13.83,1.35,4.59,1.66,9.58-.79,13.93-4.99,8.08-15.52,9.57-24.08,10.12-12.66.49-25.38-1.26-37.04-6.39-12.39-5.21-23.68-13.2-22.16-28.27.15-8.35.45-16.69.88-25.02,21.79-4.34,43.69-8.56,65.44-12.74h0ZM326.6,526.25c-21.44,4.38-42.72,8.73-64.1,12.96l.4-.48c.48,8.2.71,16.39.88,24.58l.07,3.07c.11,11.39,11.28,17.84,20.84,21.39,12.94,5.03,27.36,6.29,41.09,4.44,5.02-.77,11.53-2.64,13.98-6.95.78-1.35,1.1-2.85,1.13-4.59.14-5.58-1.78-10.84-5.97-14.83-3.64-3.59-8.73-5.81-13.67-7.43-.43-.2-.46-.13-.95-.49-.44-.46-.46-.81-.54-1.12-.27-2.43.26-4.78.59-7.15,1.14-7.13,2.48-14.21,4.47-21.14.33-.99.85-1.97,1.63-2.7.08-.12-.11.03.15.44h0Z"/>
  </g>
  <g>
    <path class="cls-5" d="M170.06,531.46s2.74,47.04,11.87,55.03,41.46,22.68,62.8,6.85-13.47-32.62-13.47-32.62l5.02-24.01-66.22-5.25Z"/>
    <path class="cls-8" d="M170.41,531.82c.06-.02.11-.08.14-.14.03-.06.02-.14.03-.08l.02.16c0,.13.1.82.11.98,1.65,13.39,3.42,26.98,7,39.98,1.37,4.3,2.53,8.77,5.54,11.98,1.49,1.32,3.26,2.44,5.04,3.49,17.09,9.83,45.28,15.89,59.34-1.68,6.16-9.49-9.72-20.4-16.56-25.33,0,0-.33-.13-.33-.13l.05-.43c.73-5.88,1.8-12.34,2.82-18.21.12-.5.58-.92.7-1.42l.53-1.45c.35-.97.68-1.95.97-2.93l.45.6c-21.95-1.73-43.84-3.55-65.83-5.39h0ZM169.71,531.1c22.35,1.67,44.79,3.37,67.18,5.16-.26,1.19-.29,2.42-.4,3.63,0,0-.1,1.55-.1,1.55-.09.5.16,1.08.07,1.58-1.45,5.79-3,12.13-4.72,17.81,0,0-.29-.57-.27-.55,11.2,4.01,28.61,15.28,20.77,29.08-1.06,1.86-2.49,3.28-3.92,4.63-11.65,10.15-28.41,10.76-42.51,6.78-7.02-1.95-13.75-4.76-19.94-8.66-3.21-2.03-6.67-4.45-8.3-8.01-1.73-3.44-2.68-6.94-3.52-10.43-2.79-12.19-3.78-24.49-4.34-36.9,0-.78-.13-3.19-.12-3.97,0,0-.02-.66-.02-.66v-.33s0-.17,0-.17c0,0-.01-.13.02-.25.02-.12.08-.23.13-.31h0Z"/>
  </g>
  <g id="dress">
    <path class="cls-6" d="M159.21,472.26s-18.8,47.2-8,51.2c10.8,4,71.01,32,189.21,0,0,0,26.88-1.3,25.39-11.76-1.49-10.46-6.73-45.79-10.46-56.03l-52.86-193.35s-4.06,19.93-29.27,23.53c-25.2,3.6-48.88-22.61-48.88-22.61l-93.53,179.02s-10.4,43.2-12,51.2c-1.6,8,12.8,18.4,28,20.8"/>
    <path class="cls-11" d="M224.72,262.9c13.45,9.37,29.38,19.82,46.17,18.88,13.05-1.01,25.04-7.54,31.11-19.57,0,0,.98.2.98.2-.17,4.28-1.72,8.35-3.89,12.01-6.34,10.45-18.89,15.91-30.84,16.07-9.81-.04-19.19-3.93-27.07-9.4-6.81-4.82-12.72-10.64-17.2-17.52l.74-.67h0Z"/>
    <path class="cls-11" d="M131.3,442.38c-2.46,14.84-5.64,29.53-8.9,44.19-.3,1.6-1.5,6.47-1.65,7.92.26,6.86,10.13,12.65,15.76,15.45,3.3,1.58,6.78,2.85,10.38,3.83l-.16.99c-3.82-.2-7.61-1.02-11.26-2.29-7.61-2.73-18.73-8.9-18.82-18.19.21-2.36,1.35-6.35,1.81-8.61,3.49-14.64,7.32-29.17,11.86-43.53,0,0,.97.23.97.23h0Z"/>
    <path class="cls-11" d="M159.29,472.29c-2.22,10.03-11.96,40.41-7.57,48.19,11.71,5.08,24.28,8.33,36.85,10.7,17.31,3.31,35.41,4.42,53.02,4.24,4.32.12,10.88-.35,15.25-.54,5.1-.12,17.59-1.43,22.85-1.9,5.22-.79,17.7-2.34,22.72-3.39,12.59-2.44,25.51-3.04,37.93-6.39,3.63-.27,7.26-1.02,10.68-2.24,3.72-1.43,12.66-5,11.82-9.14-.16-1.19-1.55-11.4-1.74-12.84-2.02-14.18-3.25-29.18-5.78-43.3,1.61,3.17,2.79,6.94,3.85,10.34,4.2,14.05,6.91,28.47,9.16,42.93,0,0,.21,1.36.21,1.36l.1.68c1.24,6.95-5.75,10.73-11.53,11.54-3.6.72-12.9.98-16.71,1.23-4.71,1.13-9.95,2.71-14.74,4.39-13.97,5.39-30.5,7.89-45.3,10.26-30.68,4.12-62.53,4.97-93.01-1.02-12.77-2.5-25.34-6.33-37.37-11.34-1.03-.42-1.98-1.15-2.62-1.96-6.17-8.11,1.93-29.14,5.23-37.76,1.93-4.8,4.05-9.52,6.5-14.09l.16.06h0Z"/>
  </g>
  <g id="jaket">
    <path class="cls-1" d="M242.14,361.46c7.38-53.2-21.74-105.82-21.74-105.82l-29.82-15.02s-39.9,17.2-48.12,55.34c-8.22,38.14,7.85,108.77,88.83,122.85,0,0,28.2-14.29,22.21-51.85l-39.5-14.35c-.18-.07-.38-.1-.57-.13-.05,0-.11-.01-.16-.02"/>
    <path class="cls-1" d="M231.29,418.82s1.03,43.37-13.01,45.49c-14.04,2.13-67.23-11.52-83.82-22.56-12.92-8.6-11.91-7.25-8.08-22.56,3.83-15.3,12.14-60.25,12.14-60.25l2.78-15.23,1.17-47.74"/>
    <path class="cls-1" d="M324.31,244.32l29.9,20.71,4.82,157.83s3.63,15.15,4.24,22.41c.61,7.27-17.57,10.3-17.57,10.3-3.03-39.98-44.91-198.96-44.91-198.96l23.51-12.29Z"/>
    <path class="cls-9" d="M191.01,241.19c-21.32,12.37-40.73,31.54-45.69,56.33-8.4,45.45,14.38,92.48,57.13,111.42,8.71,4.24,20.3,7.42,28.64,9.43,10.19-9.97,18.28-22.3,19.56-36.63.44-4.65.29-9.39-.33-14.12l2.24,2.71c-7.35-2.88-14.67-5.81-21.94-8.87-5.26-2.17-11.07-4.74-16.3-7.09-.11-.06-.55-.24-.6-.27-.83-.21-1.97-.6-2.54-1.47-1.36-1.87-.64-4.59,1.47-5.25.3-.09.62-.16.91-.12l.82.39c-1.59-.05-1.43.01-1.44-.22,0-.16-.02-.56-.02-.72-.33-9.97-1.12-20.01-2.44-29.89-.72-5.1-1.57-10.18-2.86-15.15-1.3-4.87-2.84-9.91-6.02-13.87,0,0,.73-.68.73-.68,11.06,11.56,12.99,43.67,13.46,59.52,0,.23.02.64.01.86.08.04-.07.08-1.43.15l-.61.67c-.19.14-.34.2-.48.34-.62.56-.74,1.91-.14,2.34.48.31.64.08,1.41.28,0,0,.8.22.8.22,9.45,2.64,19.02,5.56,28.33,8.61,4.36,1.44,8.76,2.84,13.1,4.34,0,0,.38,2.07.38,2.07,2.95,15.54-.09,33.58-12.01,44.78-3.92,3.73-8.55,6.61-13.74,8.04-20.51-2.76-40.74-10.33-56.83-23.68-28.57-23.4-41.63-63.24-34.85-99.28,3.11-15.7,12.34-29.69,24.33-40.04,7.93-6.76,16.81-12.39,26.57-16.06,0,0,.4.92.4.92h0Z"/>
    <path class="cls-9" d="M221.08,255.54c14.39,25.87,23.15,55.81,24.11,85.49-.06,7.03-.75,14.06-2.41,20.89,0,0-10.32-1.43-10.32-1.43,0-13.04.8-26.08.04-39.12-.82-13.23-2.71-26.39-5.49-39.4-1.9-8.71-4.12-17.42-6.84-26l.91-.42h0Z"/>
    <path class="cls-9" d="M231.57,418.72c2.12,12.74,3.61,37.51-6.46,47.09-4.73,4.44-12.22,3.13-17.96,2.65-20.57-2.79-39.96-8.98-59.01-16.86-5.81-2.5-11.83-5.42-17.05-9.28-2.74-2.01-5.76-3.73-7.82-6.62-2.28-3.33-1.01-7.47-.12-10.86.67-2.46,1.39-4.87,2-7.28,1.23-4.83,2.33-9.76,3.41-14.68,4.3-19.69,8.29-39.48,12.25-59.26l.98.18c-3.27,19.92-6.58,39.82-10.21,59.69-.91,4.97-1.84,9.93-2.93,14.91-.76,3.66-1.82,7.31-2.39,10.93-.29,2.27-.19,3.43,1.54,4.95,6.73,5.26,14.27,9.17,22.44,12.02,18.59,6.44,38.48,10.98,57.89,13.52,3.42.36,6.6.7,9.88.27,3.77-1.21,5.39-8.08,6.44-11.89,2.18-9.28,2.98-19.34,3.82-29.29l3.29-.2h0Z"/>
    <path class="cls-9" d="M301.5,256.58c16.06,57.39,32.24,114.8,44.87,173.09,1.72,8.41,3.37,16.78,4.34,25.64,0,0-5.58-4.37-5.58-4.37,3.23-.16,15.46-1.9,15.66-5.69-.14-7.67-1.28-15.57-2.3-23.24,0,0,.97-.23.97-.23,1.22,3.63,2.39,7.28,3.5,10.96,1.1,3.69,2.18,7.36,2.99,11.28l.14.75.07.38c.42,2.36-.83,5.04-2.32,6.59-4.03,4.15-8.95,5.94-14.11,7.78-1,.32-1.91.62-3.04.91,0,0-5.23.82-5.23.82l-.34-5.2c-3.16-33.46-11.14-66.76-17.9-99.73-7.19-33.23-14.8-66.38-22.71-99.47l.97-.25h0Z"/>
    <path class="cls-9" d="M324.81,244.01c6.48.88,11.98,3.58,17.3,6.96,4.05,2.53,7.36,6.16,10.56,9.7.09.2.39.1.14.8-.07.29-.61,1.46-.44,1.63.43.23,1.94-1.36,2.35-1.4.29-.09.36.15.43.37.13.44-.05,1.55-.76,3.09-1.21,1.14-2.82,2.3-3.08,1.45-.11-.39.84-2.38.48-2.69-.22-.1-1.13.82-1.37.98-.56.48-.58.17-.8.15-1.61-.66-3.26-1.29-4.85-1.98-5.73-2.39-10.54-6.09-14.84-10.51-2.11-2.27-4.13-4.68-5.71-7.73l.57-.82h0Z"/>
  </g>
  <g id="baby">
    <path class="cls-5" d="M417.98,243.98s8.62-17.94,25.27-14.04c19.21,4.5,20.78,26.83,17.78,34.94-3.27,8.87-15.29,20.28-28.08,18.72l5.26.51s.27,23.75-14.27,36.46c-18.12,15.84-84.29,11.08-100.82-16.23-16.54-27.31,8.11-37.28,8.11-37.28,0,0-3.74-35.26,31.82-44.93s60.02,13.21,60.02,13.21l-5.1,8.63Z"/>
    <path class="cls-5" d="M345.56,229.98s-4.84-9.41.09-17.52c4.35-7.15,12.46-13.39,25.48-10.66s14.7,17.88,14.7,17.88l-40.27,10.3Z"/>
    <path class="cls-5" d="M337.34,317.53s-36.61,16.7-34.87,62.31l1.34-17.62c-19.9-2.3-24.53,8.57-24.53,8.57-26.54,37.6,18.66,53.97,18.66,53.97,0,0,18.76,17.2,43.41-13.96l-5.58,6.37c31.81,12.6,46.65-10.05,46.65-10.05,0,0,36.64-42.83,18.28-77.51"/>
    <path class="cls-5" d="M362.35,386.11s-11.36-18.81-31.55-14.98c-20.2,3.83-25.49,19.06-25.49,19.06"/>
    <path class="cls-5" d="M313.61,400.73s-6.27-13.58-15.67-15.67"/>
    <path class="cls-8" d="M417.98,243.98c3.33-11.07,14.06-19.73,26.01-17.18,3.89.77,7.66,2.31,10.81,4.79,9.38,7.34,12.57,20.61,10,31.89-2.44,8.63-9.68,15.38-17.63,18.92-4.45,1.91-9.57,2.64-14.25,1.42,0,0,.05-.44.05-.44,2.32-.13,4.54-.51,6.64-1.21,8.5-3.08,16.79-11.24,18.83-20.09,1.28-8.78-1.21-19.09-8.1-24.91-2.2-1.9-5.02-3.25-7.83-4.09-9.54-3.06-18.67,3.36-24.54,10.9h0Z"/>
    <path class="cls-8" d="M422.56,235.92c-15.86-12.35-37.6-17.21-57.05-11.98-9.66,2.32-18.56,7.41-24.18,15.31-2.83,3.92-4.75,8.42-6.2,13.09-1.45,4.67-2.42,9.61-3.03,14.64,0,0,.09.53.09.53-6.85,3.56-12.64,10.31-12.76,18.23-.19,5.59,2.01,11.23,4.82,16.09,8.51,15.09,28.82,21.29,44.96,24.22,11.75,1.98,23.89,2.52,35.68.62,13.17-2.05,21.51-6.9,27.44-19.33,3.46-7.22,5.29-15.22,5.89-23.22.31,14.03-3.67,29.92-15.34,38.9-19.39,12.77-57.47,9.38-78.21.62-7.74-3.28-15.18-7.7-20.68-14.27-5.24-6.74-9.04-15.18-8.47-23.87.61-8.82,7.3-16.31,15.4-19.22,0,0-.53.88-.53.88-3.94-15.93,4.76-33.77,18.93-41.92,23.43-13.2,54.78-8.59,74.28,9.55,0,0-1.05,1.12-1.05,1.12h0Z"/>
    <path class="cls-8" d="M385.59,219.7c-1.49-5.48-4.61-11.03-9.53-13.84-4.69-2.56-10.78-2.62-15.75-1.22-5.1,1.56-9.13,5.06-12.27,9.36-3.25,4.36-3.28,10.42-2.18,15.82,0,0-.61.32-.61.32-6.78-8.94-4.31-20.09,4.28-26.94,6.75-5.4,16.38-5.89,24.2-2.93,4.69,1.76,8.43,5.85,10.28,10.29,1.2,2.91,1.95,5.96,2.04,9.09,0,0-.47.05-.47.05h0Z"/>
    <path class="cls-8" d="M334.15,354.64c-6.44.46-16.08-2.29-12.86-10.72,2.7-5.9,10.4-1.71,13.95,1.01-2.67-.7-5.29-1.56-7.8-1.79-2.63-.26-3.96.67-4.12,3.35-.92,4.92,7.18,6.76,10.83,8.15h0Z"/>
    <path class="cls-8" d="M343.59,339.77c-2.4-3.1-6.05-6.49-10.11-6.21-3.59.18-4.57,4.17-4.05,7.12.07.43.2.87.32,1.1l-3.21,1.26c-.44-1.41-.4-2.56-.28-3.91.78-7.85,8.06-9.66,13.44-4.61,1.66,1.5,3,3.25,4.07,5.14l-.18.11h0Z"/>
    <path class="cls-8" d="M375.27,348.07c-3.74-.06-7.47-.18-11.21-.38-2.93-.24-5.67-.19-8.58-1.03-.69-.21-1.04-.98-1.3-1.51,0,0-.61-1.27-.61-1.27-2.47-5.29-7.66-14.39-14.02-8.28,0,0-2.19-2.66-2.19-2.66,9.59-7.38,15.61,3.37,18.51,11.45.09.21.17.42.25.58.02.07.12.19-.02.04,2.36.91,5.45,1.13,8.06,1.52,3.69.46,7.41.83,11.12,1.15l-.02.39h0Z"/>
    <path class="cls-8" d="M428.62,253.43c0-.06,0-.12-.02-.17,0-.04-.09-.13-.04-.09l.14.08c4.79,3.2,8.01,9.42,6.68,15.2-.16.83-.54,1.63-.92,2.38,0,0-.32-.33-.31-.32,4.4-1.89,7.99-4.79,9.24-9.09,1.48-5.21.01-12.05-6.47-12.18-2.92-.13-6.01,1.3-7.74,3.75-.2.28-.25.23-.56.44h0ZM427.23,253.78c.11-2.36,1.46-4.55,3.21-6.1,5.83-5.05,15.48-2.62,17.37,5.14,2.35,9.21-4.02,18.03-13.57,18.21,0,0-.23.13-.23.13l-.08-.45c-.63-6.27-3.43-11.67-6.7-16.93h0Z"/>
    <path class="cls-8" d="M369.29,220.93c-1.61-1.8-3.16-3.17-5.2-3.65-2.12-.37-4.64.29-6.25,1.71-1.46,1.5-1.94,3.5-2.23,5.94,0,0-1.67.45-1.67.45-5.44-10.64,10.06-18.31,16.01-8.61.61,1.1,1.05,2.18,1.21,3.46l-1.86.68h0Z"/>
    <path class="cls-8" d="M338.51,320.11c-16.55,7.81-29.19,23.4-33.65,41.16-1.52,6.03-2.25,12.29-2.25,18.57h-.3c-.45-6.28-.18-12.65.94-18.92,2.81-15.92,11.86-30.48,24.58-40.45,2.65-2.07,5.3-3.94,8.32-5.52,0,0,2.35,5.16,2.35,5.16h0Z"/>
    <path class="cls-8" d="M278,370.24c4.65-9.49,16.6-11.44,26.15-10.83,0,0-.65,5.63-.65,5.63-4.09-.63-8.74-.96-12.78-.03-3.96.84-7.96,2.85-10.15,6.33,0,0-2.57-1.1-2.57-1.1h0Z"/>
    <path class="cls-8" d="M362.35,386.11c-6.97-8.87-17.97-15.15-29.34-13-8.07,1.53-15.36,5.62-20.54,11.83-1.67,1.9-3.15,4.04-4.49,6.19,0,0-5.36-1.86-5.36-1.86.45-1.72,1.1-3.18,1.94-4.69,5.6-9.87,16.94-15.06,27.88-16.02,12.62-1.12,24.11,6.85,29.9,17.55h0Z"/>
    <path class="cls-8" d="M313.57,400.75c-3.03-4.55-6.88-8.97-11.7-11.56-1.52-.76-3.08-1.24-4.54-1.37l1.23-5.53c6.19,2.19,10.03,7.56,12.84,13.08.87,1.74,1.64,3.51,2.26,5.34l-.1.04h0Z"/>
    <path class="cls-8" d="M296,420.34c10.53,8.81,24.52,7.43,35.07-.74,3.58-2.63,6.78-5.82,9.73-9.23l1.1.87c-2.72,3.7-5.74,7.23-9.29,10.29-7.08,6.33-16.85,10.36-26.55,8.76-4.96-.78-9.71-2.62-13.77-5.65,0,0,3.7-4.29,3.7-4.29h0Z"/>
    <path class="cls-1" d="M362.7,288.34c-.65,3.84-5.68,6.73-11.12,5.81s-9.24-5.31-8.59-9.14c.65-3.84,5.5-5.67,10.94-4.75,5.44.92,9.42,4.25,8.77,8.08Z"/>
    <path class="cls-8" d="M382.88,407.41c-10.96,16.02-30.83,18.72-48.16,12.38,0,0,2.09-5.27,2.09-5.27,3.75,1.69,7.66,3,11.68,3.76,12.14,2.58,25.63-1.66,33.47-11.47,0,0,.92.6.92.6h0Z"/>
    <path class="cls-4" d="M393.67,286.19c0,3.18-3.6,5.03-8.01,5.43-5.29.48-9.61-3.66-9.61-8.17,0-3.17,2.09-4.51,3.74-1.63.85,1.48,2.11,2.46,4.4,3.53,4.3,2,9.49-3.67,9.49.84Z"/>
    <path class="cls-4" d="M352.36,270.8c-.41,2.81-3.07,5.31-7.02,5.09-4.73-.27-7.43-4.48-6.85-8.47.41-2.8,2.44-3.71,3.51-.95.56,1.42.96,2.45,2.84,3.69,3.54,2.33,8.1-3.34,7.51.65Z"/>
    <path class="cls-7" d="M356.41,286.41c-.46,1.2-2.06,1.71-4.38.82s-3.27-2.38-2.8-3.58c.46-1.2,2.16-1.67,4.48-.78s3.17,2.34,2.7,3.54Z"/>
    <path class="cls-4" d="M343.17,301.32c-1.79-1.21-3.23-2.07-3.86-4.13-.19-.61.13-2.48-.79-2.48-1.59,0-1.74,5,0,7.03,1.74,2.03,10.99,8.23,17.18,8.26,6.52.03,9.13-4.78,7.07-6.16-2.07-1.38-1.92,3.04-6.92,2.1-3.7-.7-9.33-2.34-12.68-4.62Z"/>
    <path class="cls-4" d="M391.8,255s-2.89-1.09-.83-2.76c2.05-1.67,9.31.39,11.75,4.88,2.44,4.49,1.16,8.73,0,6.93s-5.46-8.02-10.91-9.05Z"/>
    <path class="cls-4" d="M357.51,243.1c3.43.51,4.11-2.52,1.06-3.64-3.05-1.13-7.65.85-8.91,2.28-1.26,1.43-2.47,4.75,1.75,2.33,2.87-1.65,5.37-1.07,6.1-.96Z"/>
    <path class="cls-8" d="M361.84,347.51c.11-4.89,3.13-9.58,7.09-12.2,2.68-1.83,5.93-2.86,9.08-3.46,0,0,3.12-.39,3.12-.39l.04.18c-1.73.59-4.11,1.5-5.68,2.37-.72.46-1.87,1.07-2.51,1.63-3.55,2.56-6.24,6.97-5.5,11.35,0,0-5.65.52-5.65.52h0Z"/>
    <path class="cls-8" d="M402.31,328.98c4.07,10.59,7.38,24.76.26,34.79-6.81,8.69-17.64,14.17-28.72,14.02-10.29-.02-20.33-4.88-27.77-11.43,0,0,.43.17.43.17-2.49-.06-4.93-.33-7.38-.77-6.33-1.19-16.06-3.87-15.59-12.01.12-.81.09-1.44-.28-2.29,0,0,3.21,1.28,3.21,1.28-1.47.37-1.31,1.68-1.14,2.76,1.53,5.59,16.25,8.38,21.51,9.34,8.28,5.17,17.34,8.98,26.96,8.61,9.16-.18,18.19-4.59,24.14-11.5,1.13-1.26,2.12-2.73,2.73-4.32,3.19-8.71.98-18.71-1.58-27.38,0,0,3.21-1.25,3.21-1.25h0Z"/>
  </g>
  <g id="hand">
    <path class="cls-5" d="M295.49,390.39c8.18-9.52-6.1-21.48-16.2-19.65s-21.78,0-21.78,0l-1.26,10.33c-1.3,10.59-5.03,21.09-12.13,29.06l-5.81,6.38s26.05,20.98,43.76,10.43"/>
    <path class="cls-5" d="M282.9,424.08l-15.13-2.48s22.21,11.93,30.15-4.47l-15.13-3.34c11.96,8.7,24.14.14,23.37-13.31-1.13-19.61-24.09-14.72-24.09-14.72"/>
    <path class="cls-8" d="M257.72,369.33c6.27,1.3,12.91,1.68,19.31.98,6.67-1.52,13.9.57,18.83,5.38,2.52,2.36,4.49,6.14,3.67,9.78-.36,1.25-.47,2.34.52,4.87l-6.12-4.4c2.24.74,3.12-.15,3.27-1.03,1.78-8.12-9.72-14.38-16.76-13.59-7.64,1.35-15.39,1.38-23.16.81,0,0,.44-2.8.44-2.8h0Z"/>
    <path class="cls-8" d="M282,385.49c7.98-2.71,18.59-1.57,23.41,6.24,3.16,5.23,4.01,11.95,1.1,17.37-4.79,9.08-15.7,9.44-22.37,2.28,4.44,2.33,9.96,3.76,14.35,1.08,3.99-2.38,6.12-7.34,5.59-11.84-1.06-11.91-11.47-15.08-21.95-14.62,0,0-.11-.51-.11-.51h0Z"/>
    <path class="cls-8" d="M269.13,419.18c9.26,5.3,17.92,7.06,25.9-1.26.92-.89,2.1-2.18,3.02-3.08,0,0,1.05.6,1.05.6-.22.73-.48,1.46-.78,2.17-5.92,13.04-21.27,11.64-29.2,1.57h0Z"/>
    <path class="cls-8" d="M238.47,416.28c11.71,6.61,24.97,12.99,38.74,10.82,1.89-.3,3.76-.74,5.77-1.27l.1.17c-9.32,8.7-25.22,2.9-34.93-2.43-3.54-1.98-6.92-4.23-10.01-6.85l.33-.44h0Z"/>
  </g>
  <g id="hand1">
    <path class="cls-5" d="M373.56,392.33c-.74.12-1.33.46-1.33.46-4.53,9.7,17.91,28.32,37.28-1.04,5.44-8.25,8.75-17.79,9-27.68.1-4.2-.3-8.78-1.71-13.17-4.39-13.65-15.5-20.33-15.5-20.33l-2.13.16"/>
    <path class="cls-5" d="M400.18,360.84s-16.97-3.02-20.45,3.72c-3.49,6.74,2.78,10.68,2.78,10.68l12.68.25s-18.01-1.98-23.36,5.23c-5.35,7.21,1.74,11.62,1.74,11.62"/>
    <path class="cls-8" d="M390.66,392.13c-4.89,4.79-13.36,2.75-19.24,1,0,0,1.42-.55,1.42-.55-1.66,4.29,2.04,8.96,5.72,11.04,4.03,2.35,9.03,2.45,13.33.66,8.86-3.77,14.83-12.85,18.73-21.41,5.85-13.55,6.1-29.06-1.6-41.89-2.41-4.31-5.33-8.42-8.69-12.36,2.26.92,4.44,2.87,6.39,4.52,3.94,3.55,7.26,7.81,9.6,12.61,8.44,17.42,1.99,38.48-10.13,52.36-3.5,3.99-7.75,7.63-13.01,9.55-5.21,1.99-11.46,1.61-16.19-1.47-4.65-2.89-8.69-9.04-6.15-14.56,0,0,.49-.98.49-.98l.93.43c5.59,2.38,13.06,4.86,18.39,1.04h0Z"/>
    <path class="cls-8" d="M372.29,392.54c-6.13-2.41-5.94-9.35-1.79-13.6,3.77-3.62,9.14-4.27,14.09-4.45,3.21-.05,6.43.19,9.58.78-3.19,0-6.36.17-9.48.58-4.43.69-9.26,1.52-12.38,4.79-3.15,3.59-2.51,7.54.51,11.05,0,0-.53.85-.53.85h0Z"/>
    <path class="cls-8" d="M381.23,375.44c-4.79-1.91-6-7.41-3.49-11.68,1.78-3.09,5.4-4.02,8.61-4.35,4.32-.39,8.65.17,12.83,1.21-5.38-.2-16.38-.93-19.42,4.21-1.78,3.43-.56,6.75,2.01,9.76,0,0-.53.85-.53.85h0Z"/>
    <path class="cls-8" d="M400.49,334.48c.12.13.44-.03.43-.21,0-.04,0-.12-.01-.15-.04-.08.28.16.29.16,1.79,1.29,3.03,3.24,3.73,5.32,2.44,6.63.57,14.28-3.88,19.58,0,0-.84-.55-.84-.55,3.74-7.09,4.55-13.73,1.23-21.12-.29-.81-.79-2.09-1.02-2.91-.03-.14-.11-.25-.09-.4-.03-.13.28-.33.36-.26.08.02.09.04.13.06l-.32.49h0Z"/>
  </g>
  <g id="head">
    <path class="cls-5" d="M304.3,84.79c-3.31-17.43,18.29-27.52,30.27-27.52s35.36,5.49,40.01,35.92c4.65,30.43-26.41,43.84-26.41,43.84,0,0-36.13-11.58-43.86-52.25Z"/>
    <path class="cls-5" d="M207.35,92.79s45.53-25.94,97.18-8c51.65,17.94,45.1,76.32,49.48,85.86,6.39,13.91,4.33,58.84-38.06,75.63-51.07,20.22-101.41,10.9-132.74-12.94-28.3-21.53-30.29-57.93-24.19-73.17,1.03-2.57,1.49-5.22-.98-6.46-14.56-7.33-45.86-28.11-23.7-63.47,29.15-46.51,73.45-14.14,73.97,8.16"/>
    <ellipse class="cls-8" cx="246.95" cy="176.1" rx="12.28" ry="16.42"/>
    <path class="cls-2" d="M254.61,181.02c-.12,3.23-2.36,6.67-5.6,6.55-3.23-.12-5.25-3.5-5.13-6.73.12-3.23,2.38-6.31,5.61-6.19,3.23.12,5.24,3.14,5.12,6.37Z"/>
    <ellipse class="cls-8" cx="321.58" cy="163.35" rx="10.66" ry="14.26"/>
    <path class="cls-2" d="M327.05,168.11c-.19,2.82-2.2,5.75-4.94,5.57s-4.36-3.18-4.17-6c.19-2.82,2.19-5.44,4.94-5.25s4.36,2.87,4.17,5.69Z"/>
    <path class="cls-4" d="M251.48,132.38s.54-4.08-4.6-4.88c-5.09-.79-13.7-.39-20.75,9.52-7.05,9.91-2.1,10.68,1.14,6.86,3.24-3.81,8.25-7.24,14.61-7.82s8.84.24,9.6-3.69Z"/>
    <path class="cls-4" d="M313.22,129.25c-2.97.61-5.44-2.31-4.08-5.02.04-.07.07-.14.11-.22,2.55-4.78,15.72-2.74,20.92,3.03,6.33,7.03,5.73,11.95-3.07,4.78-3.12-2.54-8.19-3.74-13.89-2.57Z"/>
    <ellipse class="cls-10" cx="224.8" cy="209.19" rx="16.88" ry="13.05"/>
    <ellipse class="cls-10" cx="342.28" cy="186.63" rx="10.88" ry="8.41" transform="translate(-36.54 94.52) rotate(-14.94)"/>
    <path class="cls-10" d="M325.97,203.27c4.12,16.73-11.72,34.33-29.36,38.03-16.22,3.39-35.81,3.52-43.77-19.06-6.87-19.49,19.91-39.27,36.36-41.27,16.23-1.98,32.69,5.69,36.78,22.31Z"/>
    <g>
      <path class="cls-3" d="M324.02,96.05s9.64-18.17,24-6.34,3.38,28.74-5.07,30.85c0,0-6.16-16.83-18.93-24.51Z"/>
      <path class="cls-8" d="M323.54,96.19c-.05-.25.07-.44.15-.62,2.55-5.23,6.77-9.98,12.8-11.19,6.34-1.14,12.32,2.61,16.22,7.29,4.05,4.68,5.03,11.86,2.42,17.42-2.49,5.46-6.74,9.98-12.39,12.11-5.12-9.35-10.84-18.3-19.2-25.01h0ZM324.5,95.92c.6.29,1.89.79,2.44,1.14,5.96,3.82,10.49,9.58,13.66,15.84,1.18,2.4,2.19,4.87,2.82,7.49,0,0-.6-.32-.59-.31,2.65-.48,4.96-2.34,6.65-4.46,5.01-6.12,5.37-15.45.19-21.5-8.62-10.23-17.46-8.34-24.93,1.75-.07.09-.19.27-.26.36.02-.01.07-.23,0-.32h0Z"/>
    </g>
    <g>
      <path class="cls-3" d="M171.97,136.62s1.69-15.53,16.06-24.41c0,0-.42-19.02-19.86-18.6-19.44.42-23.16,27.57-10.54,37.16,7.68,5.84,14.34,5.84,14.34,5.84Z"/>
      <path class="cls-8" d="M171.76,136.39c-.09-.04-.1.06-.09-.05,0-.14.05-.57.06-.72,1.2-9.83,7.14-19.26,16.03-23.83,0,0-.24.45-.24.43-1.66-1.78-2.37-3.4-2.99-5.08-1.88-4.79-5.38-8.78-10.45-10.27-6.82-2.06-14.62-.53-18.81,5.72-4.23,6.07-5.05,14.7-2.05,21.57,3,6.92,11.04,11.48,18.38,12.14.06,0,.21,0,.27,0,.04,0-.11.01-.12.08h0ZM172.17,136.85c-.23.16-.71.02-.98.01-7.43-1.15-15.64-5.17-19.29-12.04-5.95-11.08-2.53-28.09,10.41-32.49,8.46-2.77,19.25-.74,24.29,7.13,2.15,3.76,4.58,8.5,1.93,12.74,0,0,.02.23.03.23-7.55,5.55-13.27,13.38-15.82,22.43-.07.23-.3,1.1-.36,1.35-.05.2-.09.47-.2.64h0Z"/>
    </g>
    <path class="cls-4" d="M314.26,195.76c0,4.76-6.1,14.28-14.23,14.28s-15.2-9.52-15.2-14.28,6.59-7.9,14.71-7.9,14.71,3.14,14.71,7.9Z"/>
    <path class="cls-1" d="M311.66,195.6c0,3.42-4.52,7.29-10.1,7.29s-10.1-3.86-10.1-7.29,4.52-6.2,10.1-6.2,10.1,2.77,10.1,6.2Z"/>
    <path class="cls-7" d="M309.81,193.43c0,1.5-3.46,3.12-7.73,3.12s-7.73-1.62-7.73-3.12,3.46-3.14,7.73-3.14,7.73,1.64,7.73,3.14Z"/>
    <path class="cls-8" d="M279.93,223.14s10.73,3.68,22.28.26c11.55-3.42,7.97-8.63,10.9-7.81s-.33,11.72-16.44,13.67c-6.62.8-13.83.16-19.16-2.16-7.89-3.45-12.47-8.07-10.84-9.89,1.42-1.59,6.84,4.12,13.25,5.93Z"/>
    <path class="cls-8" d="M347.8,136.58c14.8-8.92,26.72-24.63,23.29-42.5-1.26-7.5-3.98-15.1-8.72-20.88-7.49-9.35-20.51-14.34-32.43-12.79-12.08,2.07-23.23,11.75-24.62,24.45,0,0-2.35-.15-2.35-.15.02-7.01,2.96-13.94,7.74-19.07,6.05-6.54,14.65-10.79,23.63-11.18,12.48-.25,25.3,4.41,33.51,14.21,8.93,10.89,12.61,26.87,8.78,40.46-1.99,6.82-6.03,12.93-11.14,17.73-5.01,4.68-10.85,8.36-17.29,10.64,0,0-.39-.91-.39-.91h0Z"/>
    <path class="cls-8" d="M205.81,90.8c26.53-14.13,58.13-18.86,87.51-12.12,14.84,3.33,29.38,9.9,39.63,21.47,10.41,11.24,15.87,26.18,17.82,41.08,1.46,9.16,1.37,18.4,3.06,27.4.27,1.02.48,1.56.89,2.46,4.55,11.43,3.88,24.43.29,36.05-6.79,22.24-26.19,38.29-47.1,46.91-41.61,17.99-93.24,9.68-127.07-20.44-13.95-12.61-23.23-30.35-25.25-49.06-.36-3.73-.66-7.5-.16-11.25.47-3.74,1.57-7.38,2.65-10.88.68-2.55,3.14-6.87-.42-8.28,0,0-1.25-.59-1.25-.59-27.14-13.07-41.87-36.22-25.23-64.74,7.57-13.67,20.97-25.75,37.37-26.06,15.96-.39,31.49,9.91,37.64,24.42,1.49,3.55,2.29,7.47,1.82,11.21h-.22c-1.4-7.03-6.01-12.95-11.27-17.56-17.27-14.77-38.4-14.25-53.63,2.98-24.61,27.21-16.7,51.8,13.91,69,0,0,1.2.66,1.2.66,3.78,1.88.6,6.13.2,9.02-.76,3.61-.51,7.33-.26,10.93.54,21.47,8.8,43.32,25.28,57.55,40.68,34.73,105.19,33.79,146.99,1.56,17.63-13.28,29.96-35.94,23.81-58.24-.28-1.25-.96-2.63-1.42-3.84-.76-2.26-.99-4.65-1.32-6.95-3.59-32.66-14.78-65.41-48.95-76.25-17.02-5.71-35.34-7.27-53.12-4.82-14.17,1.94-28.36,5.94-41.14,12.35,0,0-2.27-3.98-2.27-3.98h0Z"/>
  </g>
  <path class="cls-11" d="M339.94,523.47c-1.24-14.49-2.9-29.02-5.06-43.42-1.1-7.21-2.34-14.39-3.91-21.51-1.65-7.07-3.31-14.26-6.7-20.72,0,0,.17-.11.17-.11,1.96,3.11,3.39,6.52,4.69,9.95,6.18,17.29,9.65,35.4,13.06,53.4,1.31,7.22,2.53,14.44,3.62,21.73l-5.86.66h0Z"/>
</svg>