<svg width="32" height="32" viewBox="0 0 32 32" fill="none" xmlns="http://www.w3.org/2000/svg">
<path d="M3.33337 16.0002C3.33337 10.0295 3.33337 7.04283 5.18804 5.18816C7.04271 3.3335 10.028 3.3335 16 3.3335C21.9707 3.3335 24.9574 3.3335 26.812 5.18816C28.6667 7.04283 28.6667 10.0282 28.6667 16.0002C28.6667 21.9708 28.6667 24.9575 26.812 26.8122C24.9574 28.6668 21.972 28.6668 16 28.6668C10.0294 28.6668 7.04271 28.6668 5.18804 26.8122C3.33337 24.9575 3.33337 21.9722 3.33337 16.0002Z" stroke="#FFFAEE" stroke-linecap="round" stroke-linejoin="round"/>
<path d="M23.344 8.66699H23.3307M22 16.0003C22 17.5916 21.3679 19.1177 20.2426 20.243C19.1174 21.3682 17.5913 22.0003 16 22.0003C14.4087 22.0003 12.8826 21.3682 11.7574 20.243C10.6321 19.1177 10 17.5916 10 16.0003C10 14.409 10.6321 12.8829 11.7574 11.7577C12.8826 10.6325 14.4087 10.0003 16 10.0003C17.5913 10.0003 19.1174 10.6325 20.2426 11.7577C21.3679 12.8829 22 14.409 22 16.0003Z" stroke="#FFFAEE" stroke-linecap="round" stroke-linejoin="round"/>
</svg>
