<svg width="307" height="50" viewBox="0 0 307 50" fill="none" xmlns="http://www.w3.org/2000/svg">
<path fill-rule="evenodd" clip-rule="evenodd" d="M25 0C11.1929 0 0 11.1929 0 25C0 38.8071 11.1929 50 25 50H242C248.743 50 254.862 47.3307 259.358 42.9913C260.796 41.6039 263.204 41.6039 264.642 42.9913C269.138 47.3307 275.257 50 282 50C295.807 50 307 38.8071 307 25C307 11.1929 295.807 0 282 0C275.257 0 269.138 2.66925 264.642 7.0087C263.204 8.39607 260.796 8.39607 259.358 7.0087C254.862 2.66925 248.743 0 242 0H25Z" fill="#4DB3AE"/>
</svg>
