<svg width="492" height="29" viewBox="0 0 492 29" fill="none" xmlns="http://www.w3.org/2000/svg">
<path d="M801 -106C760.986 -106 760.986 136 720.972 136C680.958 136 680.958 -106 640.944 -106C600.93 -106 600.93 136 561.009 136C520.994 136 520.994 -106 481.075 -106C441.06 -106 441.06 136 401.141 136C361.126 136 361.126 -106 321.114 -106C281.099 -106 281.099 136 241.084 136C201.072 136 201.072 -106 161.057 -106C121.042 -106 121.042 136 81.027 136C41.015 136 41.015 -106 1 -106" stroke="#FFFAEE" stroke-width="2" stroke-miterlimit="10" stroke-linecap="round"/>
</svg>
