<svg width="502" height="29" viewBox="0 0 502 29" fill="none" xmlns="http://www.w3.org/2000/svg">
<path d="M-299 -106C-258.986 -106 -258.986 136 -218.972 136C-178.958 136 -178.958 -106 -138.944 -106C-98.9296 -106 -98.9296 136 -59.0093 136C-18.994 136 -18.994 -106 20.9251 -106C60.9401 -106 60.9401 136 100.859 136C140.874 136 140.874 -106 180.886 -106C220.901 -106 220.901 136 260.916 136C300.928 136 300.928 -106 340.943 -106C380.958 -106 380.958 136 420.973 136C460.985 136 460.985 -106 501 -106" stroke="#FFFAEE" stroke-width="2" stroke-miterlimit="10" stroke-linecap="round"/>
</svg>
